<svg width="104" height="49" viewBox="0 0 104 49" fill="none" xmlns="http://www.w3.org/2000/svg">
<path d="M78.7661 43.7324C78.7661 44.2534 78.8669 44.7155 79.0685 45.1187C79.2786 45.5136 79.5684 45.8245 79.9381 46.0513C80.3162 46.2782 80.7573 46.3916 81.2614 46.3916C81.7571 46.3916 82.1898 46.2782 82.5595 46.0513C82.9376 45.8245 83.2274 45.5136 83.4291 45.1187C83.6391 44.7155 83.7441 44.2534 83.7441 43.7324C83.7441 43.2115 83.6433 42.7536 83.4417 42.3588C83.24 41.9555 82.9544 41.6404 82.5847 41.4136C82.215 41.1867 81.7739 41.0733 81.2614 41.0733C80.7573 41.0733 80.3162 41.1867 79.9381 41.4136C79.5684 41.6404 79.2786 41.9555 79.0685 42.3588C78.8669 42.7536 78.7661 43.2115 78.7661 43.7324ZM76.5102 43.7324C76.5102 43.0519 76.6278 42.4302 76.8631 41.8673C77.1067 41.3043 77.4428 40.817 77.8713 40.4053C78.2998 39.9937 78.8039 39.6786 79.3836 39.4601C79.9633 39.2333 80.5893 39.1199 81.2614 39.1199C81.9419 39.1199 82.5679 39.2333 83.1392 39.4601C83.7189 39.6786 84.223 39.9937 84.6515 40.4053C85.08 40.817 85.4119 41.3043 85.6471 41.8673C85.8824 42.4302 86 43.0519 86 43.7324C86 44.413 85.8824 45.0389 85.6471 45.6102C85.4203 46.1816 85.0926 46.6773 84.6641 47.0974C84.244 47.5174 83.7441 47.8451 83.1644 48.0804C82.5847 48.3072 81.9503 48.4206 81.2614 48.4206C80.564 48.4206 79.9255 48.3072 79.3458 48.0804C78.7661 47.8451 78.262 47.5174 77.8335 47.0974C77.4134 46.6773 77.0857 46.1816 76.8505 45.6102C76.6236 45.0389 76.5102 44.413 76.5102 43.7324Z" fill="white"/>
<path d="M72.8514 39.3218H75.0191V48.1436H72.8514V39.3218Z" fill="white"/>
<path d="M66.7585 44.1486H68.9766L71.7366 48.1436H69.2413L66.7585 44.1486ZM64.5657 39.3218H66.6955V48.1436H64.5657V39.3218ZM65.9016 41.124V39.3218H67.7794C68.5355 39.3218 69.1656 39.4436 69.6698 39.6873C70.1739 39.9309 70.5561 40.2712 70.8166 40.7081C71.0771 41.1366 71.2073 41.6365 71.2073 42.2078C71.2073 42.7707 71.0771 43.2706 70.8166 43.7075C70.5561 44.136 70.1739 44.4721 69.6698 44.7157C69.1656 44.9594 68.5355 45.0812 67.7794 45.0812H65.9016V43.4302H67.6281C67.9138 43.4302 68.1574 43.3882 68.3591 43.3042C68.5691 43.2118 68.7288 43.0816 68.838 42.9135C68.9472 42.7371 69.0018 42.5271 69.0018 42.2834C69.0018 42.0398 68.9472 41.8339 68.838 41.6659C68.7288 41.4894 68.5691 41.355 68.3591 41.2626C68.1574 41.1702 67.9138 41.124 67.6281 41.124H65.9016Z" fill="white"/>
<path d="M58.4728 44.1486H60.6909L63.4509 48.1436H60.9556L58.4728 44.1486ZM56.28 39.3218H58.4098V48.1436H56.28V39.3218ZM57.6159 41.124V39.3218H59.4936C60.2498 39.3218 60.8799 39.4436 61.384 39.6873C61.8882 39.9309 62.2704 40.2712 62.5309 40.7081C62.7913 41.1366 62.9216 41.6365 62.9216 42.2078C62.9216 42.7707 62.7913 43.2706 62.5309 43.7075C62.2704 44.136 61.8882 44.4721 61.384 44.7157C60.8799 44.9594 60.2498 45.0812 59.4936 45.0812H57.6159V43.4302H59.3424C59.6281 43.4302 59.8717 43.3882 60.0734 43.3042C60.2834 43.2118 60.4431 43.0816 60.5523 42.9135C60.6615 42.7371 60.7161 42.5271 60.7161 42.2834C60.7161 42.0398 60.6615 41.8339 60.5523 41.6659C60.4431 41.4894 60.2834 41.355 60.0734 41.2626C59.8717 41.1702 59.6281 41.124 59.3424 41.124H57.6159Z" fill="white"/>
<path d="M48.2728 46.4421L48.424 44.8164H52.7971L52.9358 46.4421H48.2728ZM50.5791 42.5605L49.344 45.4087L49.4448 45.875L48.3484 48.1435H45.9413L50.5791 38.7671L55.2294 48.1435H52.8097L51.7511 45.9632L51.8267 45.4213L50.5791 42.5605Z" fill="white"/>
<path d="M40.1641 43.7579V42.8253H41.5882C41.8319 42.8253 42.0377 42.7875 42.2057 42.7119C42.3822 42.6363 42.5166 42.5313 42.609 42.3968C42.7014 42.254 42.7477 42.0818 42.7477 41.8801C42.7477 41.5777 42.6426 41.3508 42.4326 41.1996C42.2309 41.0483 41.9495 40.9727 41.5882 40.9727H40.706V46.4927H41.7899C42.0671 46.4927 42.315 46.4591 42.5334 46.3919C42.7519 46.3163 42.9241 46.1986 43.0501 46.039C43.1845 45.871 43.2518 45.6441 43.2518 45.3585C43.2518 45.1736 43.214 45.014 43.1383 44.8796C43.0627 44.7451 42.9577 44.6359 42.8233 44.5519C42.6888 44.4679 42.5334 44.4091 42.357 44.3754C42.1889 44.3334 41.9999 44.3124 41.7899 44.3124H40.1641V43.153H42.0293C42.4578 43.153 42.8737 43.1992 43.277 43.2916C43.6803 43.384 44.0457 43.5353 44.3734 43.7453C44.7011 43.947 44.9615 44.2074 45.1548 44.5267C45.3564 44.8375 45.4572 45.2156 45.4572 45.6609C45.4572 46.249 45.3144 46.7237 45.0287 47.085C44.7515 47.4463 44.3566 47.7152 43.8441 47.8916C43.3316 48.0596 42.7267 48.1436 42.0293 48.1436H38.5762V39.3218H41.8151C42.4284 39.3218 42.9661 39.4058 43.4282 39.5738C43.8987 39.7335 44.2684 39.9813 44.5372 40.3174C44.8145 40.6451 44.9531 41.0609 44.9531 41.5651C44.9531 42.0272 44.8145 42.422 44.5372 42.7497C44.2684 43.0774 43.8987 43.3294 43.4282 43.5059C42.9661 43.6739 42.4284 43.7579 41.8151 43.7579H40.1641Z" fill="white"/>
<path d="M25.6461 39.3218H27.776V45.0938C27.776 45.5391 27.8936 45.9004 28.1288 46.1776C28.3641 46.4549 28.717 46.5935 29.1875 46.5935C29.6664 46.5935 30.0234 46.4549 30.2587 46.1776C30.4939 45.9004 30.6116 45.5391 30.6116 45.0938V39.3218H32.7414V45.245C32.7414 45.7995 32.649 46.2827 32.4642 46.6943C32.2877 47.106 32.0357 47.4463 31.708 47.7152C31.3887 47.9756 31.0107 48.1731 30.5738 48.3075C30.1453 48.4419 29.6832 48.5091 29.1875 48.5091C28.6918 48.5091 28.2297 48.4419 27.8012 48.3075C27.3727 48.1731 26.9946 47.9756 26.6669 47.7152C26.3477 47.4463 26.0956 47.106 25.9108 46.6943C25.7343 46.2827 25.6461 45.7995 25.6461 45.245V39.3218Z" fill="white"/>
<path d="M17.6365 41.2248V39.3218H24.6184V41.2248H22.1861V48.1436H20.0562V41.2248H17.6365Z" fill="white"/>
<path d="M94.0067 36.9245C93.6921 36.9405 93.3839 36.8678 93.0917 36.7074C92.1618 36.1985 91.5582 34.8341 91.2532 33.9498C90.7018 34.0846 89.9308 34.2514 89.1001 34.3594C88.9071 34.384 88.7002 34.4032 88.4858 34.4139C87.6818 34.4556 86.9257 34.3904 86.5076 34.3412C86.0704 34.5818 85.2269 34.9539 84.1274 35.0105C83.2785 35.0544 82.4371 34.8993 81.6288 34.5497C81.4262 34.462 81.2054 34.3262 80.926 34.1551C79.9374 33.5489 78.2834 32.5352 75.7816 32.6646C75.1332 32.6978 74.4582 32.8079 73.7736 32.9918C72.56 33.3169 71.4968 33.505 70.6138 33.5499C69.9761 33.5831 69.4205 33.5425 68.9619 33.4281C68.6164 33.3425 68.3221 33.2163 68.0864 33.0517C67.2055 33.3692 66.3535 33.551 65.5515 33.5927C65.367 33.6023 65.1879 33.6045 65.0162 33.5981C64.4136 35.3912 63.4923 36.5748 63.4528 36.6261C62.8236 37.4217 62.139 37.844 61.417 37.8804C61.2592 37.8889 61.0982 37.8782 60.9393 37.8494C59.0101 37.5019 57.8189 34.4417 57.499 33.5093C57.001 34.0557 56.4369 34.2311 56.3643 34.2524L56.3505 34.2556L56.2758 34.2717H56.2694C55.2371 34.4278 54.3211 34.5262 53.5469 34.5657C51.4002 34.6769 50.6004 34.3219 50.2175 33.9937C49.2503 34.4599 48.4377 34.5721 48.0164 34.5967C46.2953 36.5556 44.7436 37.5446 43.2752 37.6205C43.2293 37.6227 43.1824 37.6248 43.1365 37.6248C41.3482 37.6441 40.19 36.3417 39.259 35.2939C39.0266 35.0319 38.8069 34.7849 38.6053 34.5925C37.4771 33.5136 35.7975 32.3545 34.9785 31.8103C33.5463 33.6387 31.7995 34.6192 29.7818 34.7229C29.432 34.7411 29.0737 34.7315 28.7165 34.694C27.3653 34.554 26.2701 34.0621 25.6793 33.7424C23.2479 35.1859 20.5328 36.1696 17.8209 36.5909C17.1437 36.6956 16.4602 36.7662 15.7872 36.8015C13.6139 36.9138 11.5536 36.6636 9.66282 36.0584C5.86425 34.8416 3.06598 32.315 1.57193 28.7491C-0.23671 24.4347 -0.486251 20.6517 0.831838 17.506C2.135 14.3945 4.9386 11.9642 9.16481 10.2822C10.549 9.73158 12.6403 9.05155 14.739 8.94248C16.5145 8.85053 18.0022 9.18306 19.1635 9.92939C19.7308 10.294 20.2054 10.7613 20.5531 11.2905C21.2153 10.433 22.4203 9.45572 24.5596 9.13709C24.8294 9.09752 25.0981 9.06972 25.3583 9.05582C27.2416 8.95852 28.5533 9.57547 29.3723 10.1796C29.576 9.75511 29.8586 9.56906 29.9844 9.50383C31.1276 8.89865 32.659 8.518 34.2949 8.43353C36.4352 8.32233 38.2374 8.73612 38.8858 9.48673C39.1577 9.80215 39.3827 10.202 39.5555 10.6789C40.2178 9.99461 41.1093 9.42578 42.2109 8.98525C42.8145 8.74467 43.4266 8.60674 44.0313 8.57467C45.5754 8.49447 46.7815 9.12746 47.4459 9.58937C48.5038 8.31163 50.2666 7.59952 52.6895 7.47442C54.015 7.40599 55.2371 7.53643 55.9463 7.64015C57.0127 3.54497 59.3855 1.69625 61.2037 0.865454C62.573 0.23888 63.8783 0.0549709 64.7325 0.0111321C65.4918 -0.0284297 66.0122 0.0325169 66.153 0.0517632C68.6462 0.398197 70.4687 1.40114 71.5682 3.0328C72.7295 4.75641 72.7754 6.73664 72.6666 7.90746C73.1156 7.87431 73.732 7.83368 74.4401 7.79733C77.3759 7.6455 81.2886 7.59524 83.2572 8.22075C84.4334 8.59391 85.2194 9.22476 85.5916 10.0962C85.6406 10.2117 85.6822 10.3314 85.7164 10.4544C86.9939 9.26005 88.2192 8.4207 90.8778 8.28276C93.7998 8.132 96.7708 10.572 99.471 15.3397C101.805 19.4627 103.329 24.1962 103.924 26.9966C104.103 27.8402 103.958 28.6389 103.517 29.2463C102.195 31.0629 98.6637 35.4404 94.4546 36.8389C94.3074 36.8881 94.156 36.917 94.0056 36.9245H94.0067Z" fill="white"/>
<path d="M14.7606 35.4728C14.5985 35.4568 14.4407 35.537 14.2786 35.5583C14.1208 35.5787 13.9597 35.5872 13.8008 35.5968C13.659 35.6054 13.5161 35.6172 13.3743 35.6139C13.1866 35.6107 13.0021 35.5626 12.8123 35.6182C12.68 35.6567 12.5393 35.6685 12.406 35.692C12.3761 35.8224 12.2844 35.8727 12.1692 35.8278C12.0594 35.784 11.9485 35.754 11.828 35.7818C11.8066 35.7872 11.7821 35.7807 11.7597 35.7765C11.5976 35.7455 11.4398 35.8374 11.4238 36.0021C11.411 36.1272 11.3427 36.202 11.266 36.2812C11.2084 36.341 11.2158 36.3891 11.2862 36.4373C11.3481 36.48 11.4153 36.5175 11.4664 36.5709C11.6883 36.8051 11.8727 37.0617 11.9015 37.3985C11.9314 37.7449 11.9623 38.0914 11.9837 38.4389C12.0039 38.7789 12.0125 39.12 12.0274 39.46C12.0487 39.9422 12.0722 40.4245 12.0903 40.9067C12.101 41.1729 12.0956 41.4392 12.1106 41.7043C12.1234 41.9353 12.1564 42.1641 12.1735 42.394C12.1809 42.4838 12.1639 42.5758 12.1713 42.6645C12.1767 42.7255 12.2055 42.7917 12.2801 42.7928C12.3516 42.7928 12.3814 42.7319 12.3996 42.6699C12.4049 42.6506 12.4081 42.6292 12.406 42.6089C12.39 42.4699 12.3697 42.3309 12.3558 42.1919C12.3334 41.9716 12.3068 41.7503 12.2961 41.529C12.2855 41.313 12.2961 41.0959 12.2908 40.8799C12.2844 40.6394 12.2652 40.3999 12.2588 40.1604C12.2535 39.9615 12.2631 39.7626 12.2556 39.5648C12.2471 39.3541 12.2183 39.1435 12.214 38.9329C12.2033 38.4998 12.1948 38.0679 12.2012 37.6348C12.2044 37.4113 12.2407 37.1889 12.2673 36.9655C12.2716 36.9345 12.3057 36.8821 12.326 36.8821C12.3676 36.8821 12.4262 36.9013 12.4454 36.9323C12.4923 37.0072 12.5446 37.0916 12.5542 37.1772C12.5883 37.4851 12.6107 37.7941 12.6288 38.1042C12.647 38.4218 12.6534 38.7404 12.6662 39.059C12.6662 39.0847 12.6683 39.1189 12.6832 39.1339C12.712 39.1617 12.7525 39.1948 12.7867 39.1927C12.8144 39.1916 12.8528 39.1478 12.8645 39.1146C12.8794 39.0729 12.8762 39.0227 12.873 38.9756C12.8581 38.7404 12.8325 38.5052 12.8251 38.2699C12.8144 37.9395 12.8133 37.6081 12.8155 37.2777C12.8155 37.1943 12.8336 37.1087 12.8592 37.0296C12.8698 36.9965 12.9178 36.959 12.953 36.9558C12.9818 36.9526 13.0255 36.989 13.0447 37.0189C13.1119 37.1248 13.1386 37.2435 13.1429 37.3686C13.1482 37.5439 13.1546 37.7182 13.1674 37.8936C13.1844 38.132 13.2122 38.3704 13.2271 38.6089C13.2388 38.7896 13.2346 38.9714 13.242 39.1521C13.2506 39.3349 13.2666 39.5188 13.2794 39.7016C13.2804 39.722 13.2815 39.7423 13.2858 39.7615C13.3113 39.877 13.3636 39.9337 13.4286 39.9166C13.4958 39.9005 13.5214 39.815 13.5044 39.707C13.4809 39.5605 13.4553 39.413 13.4468 39.2643C13.4223 38.8302 13.402 38.3961 13.3881 37.962C13.3796 37.7086 13.3839 37.4541 13.3903 37.2007C13.3913 37.144 13.418 37.082 13.45 37.0328C13.483 36.9815 13.5598 36.9879 13.579 37.0403C13.627 37.1676 13.6878 37.2959 13.7038 37.4295C13.7358 37.7086 13.7379 37.9909 13.7592 38.271C13.7731 38.4603 13.804 38.6484 13.8147 38.8388C13.8318 39.1307 13.8392 39.4236 13.8488 39.7155C13.8584 40.0107 13.8691 40.3058 13.8755 40.6019C13.8808 40.8436 13.8712 41.0874 13.8861 41.328C13.9032 41.6017 13.9469 41.8743 13.9693 42.1481C13.9811 42.2956 13.9757 42.4453 13.9683 42.5929C13.9619 42.7116 13.9587 42.8217 14.0664 42.9008L14.1367 42.8976C14.2221 42.8399 14.2327 42.7597 14.2093 42.6666C14.1965 42.6164 14.189 42.564 14.1837 42.5127C14.1655 42.3117 14.1495 42.1106 14.1346 41.9096C14.1101 41.5782 14.0781 41.2456 14.0642 40.9142C14.0482 40.5378 14.0504 40.1604 14.0408 39.7829C14.0354 39.553 14.0205 39.3221 14.012 39.0922C14.0066 38.9254 14.0056 38.7586 14.0002 38.5918C13.9907 38.2614 13.9736 37.931 13.9736 37.6006C13.9736 37.4734 13.9448 37.3344 14.0461 37.2221C14.1975 37.0553 14.3415 36.8831 14.4983 36.7217C14.6145 36.6019 14.8086 36.6287 14.8811 36.7751C14.9344 36.8831 14.9856 37.0029 14.9952 37.1205C15.0432 37.6883 15.0795 38.2571 15.1136 38.827C15.1328 39.1563 15.1349 39.4867 15.1552 39.8161C15.1818 40.2384 15.2234 40.6608 15.2522 41.0831C15.2586 41.1804 15.2362 41.2798 15.2405 41.3782C15.2437 41.4488 15.2576 41.5236 15.2885 41.5856C15.329 41.6648 15.4346 41.6562 15.4666 41.5717C15.4858 41.5204 15.4847 41.4573 15.4794 41.4007C15.4474 41.0628 15.3994 40.727 15.3802 40.3892C15.3429 39.7348 15.3162 39.0804 15.2927 38.426C15.2778 38.0197 15.2703 37.6134 15.2693 37.2071C15.2693 37.0018 15.297 36.7976 15.3962 36.6126C15.3994 36.6073 16.1715 35.6129 14.7627 35.4771L14.7606 35.4728Z" fill="white"/>
<path d="M54.9481 33.3966C54.786 33.3806 54.6282 33.4608 54.4661 33.4822C54.3083 33.5025 54.1472 33.511 53.9883 33.5207C53.8465 33.5292 53.7036 33.541 53.5618 33.5378C53.3741 33.5346 53.1896 33.4865 52.9998 33.5421C52.8675 33.5805 52.7268 33.5923 52.5935 33.6158C52.5636 33.7463 52.4719 33.7965 52.3567 33.7516C52.2469 33.7078 52.136 33.6778 52.0155 33.7056C51.9941 33.711 51.9696 33.7046 51.9472 33.7003C51.7851 33.6693 51.6273 33.7612 51.6113 33.9259C51.5985 34.051 51.5302 34.1259 51.4535 34.205C51.3959 34.2649 51.4033 34.313 51.4737 34.3611C51.5356 34.4039 51.6028 34.4413 51.6539 34.4947C51.8758 34.7289 52.0603 34.9855 52.089 35.3223C52.1189 35.6688 52.1498 36.0152 52.1712 36.3627C52.1914 36.7027 52.2 37.0438 52.2149 37.3838C52.2362 37.8661 52.2597 38.3483 52.2778 38.8305C52.2885 39.0967 52.2831 39.363 52.2981 39.6282C52.3109 39.8591 52.3439 40.0879 52.361 40.3178C52.3684 40.4076 52.3514 40.4996 52.3588 40.5883C52.3642 40.6493 52.393 40.7156 52.4676 40.7166C52.5391 40.7166 52.5689 40.6557 52.5871 40.5937C52.5924 40.5744 52.5956 40.5531 52.5935 40.5327C52.5775 40.3937 52.5572 40.2547 52.5433 40.1157C52.5209 39.8955 52.4943 39.6741 52.4836 39.4528C52.473 39.2368 52.4836 39.0198 52.4783 38.8038C52.4719 38.5632 52.4527 38.3237 52.4463 38.0842C52.441 37.8853 52.4506 37.6864 52.4431 37.4886C52.4346 37.278 52.4058 37.0673 52.4015 36.8567C52.3908 36.4236 52.3823 35.9917 52.3887 35.5586C52.3919 35.3352 52.4282 35.1128 52.4548 34.8893C52.4591 34.8583 52.4932 34.8059 52.5135 34.8059C52.5551 34.8059 52.6137 34.8251 52.6329 34.8561C52.6798 34.931 52.7321 35.0155 52.7417 35.101C52.7758 35.4089 52.7982 35.718 52.8163 36.028C52.8345 36.3456 52.8409 36.6642 52.8537 36.9829C52.8537 37.0085 52.8558 37.0427 52.8707 37.0577C52.8995 37.0855 52.94 37.1187 52.9742 37.1165C53.0019 37.1154 53.0403 37.0716 53.052 37.0385C53.0669 36.9968 53.0637 36.9465 53.0605 36.8995C53.0456 36.6642 53.02 36.429 53.0126 36.1938C53.0019 35.8634 53.0008 35.5319 53.003 35.2015C53.003 35.1181 53.0211 35.0326 53.0467 34.9534C53.0573 34.9203 53.1053 34.8829 53.1405 34.8797C53.1693 34.8765 53.213 34.9128 53.2322 34.9428C53.2994 35.0486 53.3261 35.1673 53.3304 35.2924C53.3357 35.4677 53.3421 35.642 53.3549 35.8174C53.3719 36.0558 53.3997 36.2943 53.4146 36.5327C53.4263 36.7134 53.4221 36.8952 53.4295 37.0759C53.4381 37.2587 53.4541 37.4426 53.4669 37.6255C53.4679 37.6458 53.469 37.6661 53.4732 37.6854C53.4988 37.8008 53.5511 37.8575 53.6161 37.8404C53.6833 37.8244 53.7089 37.7388 53.6919 37.6308C53.6684 37.4843 53.6428 37.3368 53.6343 37.1882C53.6098 36.754 53.5895 36.3199 53.5756 35.8858C53.5671 35.6324 53.5714 35.3779 53.5778 35.1245C53.5788 35.0679 53.6055 35.0058 53.6375 34.9567C53.6705 34.9053 53.7473 34.9117 53.7665 34.9641C53.8145 35.0914 53.8753 35.2197 53.8913 35.3533C53.9233 35.6324 53.9254 35.9147 53.9467 36.1948C53.9606 36.3841 53.9915 36.5723 54.0022 36.7626C54.0193 37.0545 54.0267 37.3475 54.0363 37.6394C54.0459 37.9345 54.0566 38.2296 54.063 38.5258C54.0683 38.7674 54.0587 39.0112 54.0736 39.2518C54.0907 39.5255 54.1344 39.7982 54.1568 40.0719C54.1686 40.2194 54.1632 40.3691 54.1558 40.5167C54.1494 40.6354 54.1462 40.7455 54.2539 40.8246L54.3243 40.8214C54.4096 40.7637 54.4202 40.6835 54.3968 40.5905C54.384 40.5402 54.3765 40.4878 54.3712 40.4365C54.353 40.2355 54.337 40.0345 54.3221 39.8335C54.2976 39.502 54.2656 39.1695 54.2517 38.838C54.2357 38.4616 54.2379 38.0842 54.2283 37.7067C54.2229 37.4769 54.208 37.2459 54.1995 37.016C54.1941 36.8492 54.1931 36.6824 54.1877 36.5156C54.1782 36.1852 54.1611 35.8548 54.1611 35.5244C54.1611 35.3972 54.1323 35.2582 54.2336 35.1459C54.385 34.9791 54.529 34.807 54.6858 34.6455C54.802 34.5258 54.9961 34.5525 55.0686 34.699C55.1219 34.807 55.1731 34.9267 55.1827 35.0443C55.2307 35.6121 55.267 36.1809 55.3011 36.7508C55.3203 37.0802 55.3224 37.4106 55.3427 37.7399C55.3693 38.1622 55.4109 38.5846 55.4397 39.0069C55.4461 39.1042 55.4237 39.2037 55.428 39.302C55.4312 39.3726 55.4451 39.4475 55.476 39.5095C55.5165 39.5886 55.6221 39.58 55.6541 39.4956C55.6733 39.4442 55.6722 39.3812 55.6669 39.3245C55.6349 38.9866 55.5869 38.6509 55.5677 38.313C55.5304 37.6586 55.5037 37.0042 55.4802 36.3499C55.4653 35.9436 55.4579 35.5373 55.4568 35.1309C55.4568 34.9256 55.4845 34.7214 55.5837 34.5364C55.5869 34.5311 56.359 33.5367 54.9502 33.4009L54.9481 33.3966Z" fill="white"/>
<path d="M34.7617 31.7367C34.7158 31.7367 34.671 31.7389 34.6252 31.7389C34.5601 31.7389 34.4961 31.7602 34.43 31.7228C34.4044 31.7078 34.3607 31.7228 34.3244 31.725C34.3159 31.725 34.3074 31.7314 34.2988 31.7292C34.2626 31.7228 34.2253 31.7143 34.189 31.7057C34.189 31.7121 34.189 31.7175 34.1879 31.7239C34.2007 31.7282 34.2125 31.7314 34.2253 31.7356C34.0536 31.7634 33.8893 31.756 33.7432 31.6309L33.7454 31.6822C33.707 31.6982 33.675 31.7121 33.643 31.726C33.6366 31.7217 33.6217 31.7046 33.6057 31.7036C33.5705 31.7025 33.5342 31.7004 33.499 31.6993L33.5449 32.5975C33.6291 32.6146 33.6643 32.6873 33.7006 32.7578C33.8168 32.9867 33.8264 33.2369 33.8403 33.4849C33.8616 33.8805 33.8744 34.2772 33.8936 34.6728C33.9021 34.8461 33.9235 35.0182 33.9299 35.1914C33.9437 35.5806 33.9491 35.9698 33.965 36.358C33.9714 36.5216 33.9992 36.6852 34.013 36.8487C34.0194 36.9257 34.0066 37.0038 34.0184 37.0797C34.0237 37.1161 34.061 37.1631 34.0941 37.177C34.1463 37.1984 34.1869 37.1588 34.2007 37.1064C34.2114 37.0637 34.2189 37.0166 34.2135 36.9728C34.205 36.9086 34.1741 36.8466 34.1687 36.7835C34.1463 36.5098 34.1261 36.235 34.1122 35.9602C34.1005 35.7111 34.0994 35.4619 34.0909 35.2139C34.0866 35.0813 34.076 34.9498 34.0717 34.8183C34.0578 34.3521 34.0461 33.8848 34.0312 33.4186C34.0237 33.208 34.0205 32.9984 34.0962 32.7963C34.1271 32.714 34.1986 32.6915 34.2679 32.7461C34.2999 32.7717 34.3319 32.8102 34.3436 32.8487C34.3703 32.9385 34.3937 33.0305 34.4033 33.1235C34.4204 33.285 34.4247 33.4464 34.4364 33.609C34.4631 33.9757 34.542 34.583 34.5068 34.7199C34.4972 34.7562 34.5143 34.8001 34.526 34.8386C34.5441 34.8963 34.5825 34.9369 34.6486 34.9273C34.6945 34.9209 34.7297 34.8471 34.7211 34.784C34.7201 34.7744 34.7147 34.7659 34.7137 34.7562C34.6859 34.521 34.6518 34.2858 34.6337 34.0505C34.6177 33.8442 34.6326 33.6549 34.623 33.2775C34.6198 33.1577 34.6305 33.0358 34.6444 32.9172C34.6518 32.8541 34.6635 32.7835 34.7009 32.7311C34.9867 32.3323 34.7606 31.7367 34.7606 31.7367H34.7617Z" fill="white"/>
<path d="M76.1455 31.8871C76.0996 31.8871 76.0548 31.8892 76.0089 31.8892C75.9439 31.8892 75.8799 31.9106 75.8138 31.8732C75.7882 31.8582 75.7445 31.8732 75.7082 31.8753C75.6997 31.8753 75.6912 31.8818 75.6826 31.8796C75.6464 31.8732 75.609 31.8646 75.5728 31.8561C75.5728 31.8625 75.5728 31.8679 75.5717 31.8743C75.5845 31.8786 75.5962 31.8818 75.609 31.886C75.4373 31.9138 75.2731 31.9064 75.127 31.7812L75.1292 31.8326C75.0908 31.8486 75.0588 31.8625 75.0268 31.8764C75.0204 31.8721 75.0055 31.855 74.9895 31.854C74.9543 31.8529 74.918 31.8507 74.8828 31.8497L74.9287 32.7478C75.0129 32.7649 75.0481 32.8377 75.0844 32.9082C75.2006 33.137 75.2102 33.3872 75.2241 33.6353C75.2454 34.0309 75.2582 34.4276 75.2774 34.8232C75.2859 34.9964 75.3072 35.1686 75.3136 35.3418C75.3275 35.731 75.3328 36.1202 75.3488 36.5084C75.3552 36.6719 75.383 36.8355 75.3968 36.9991C75.4032 37.0761 75.3904 37.1542 75.4022 37.2301C75.4075 37.2664 75.4448 37.3135 75.4779 37.3274C75.5301 37.3488 75.5707 37.3092 75.5845 37.2568C75.5952 37.2141 75.6026 37.167 75.5973 37.1232C75.5888 37.059 75.5578 36.997 75.5525 36.9339C75.5301 36.6602 75.5099 36.3854 75.496 36.1106C75.4843 35.8615 75.4832 35.6123 75.4747 35.3643C75.4704 35.2317 75.4597 35.1002 75.4555 34.9687C75.4416 34.5025 75.4299 34.0352 75.415 33.569C75.4075 33.3584 75.4043 33.1488 75.48 32.9467C75.5109 32.8644 75.5824 32.8419 75.6517 32.8965C75.6837 32.9221 75.7157 32.9606 75.7274 32.9991C75.7541 33.0889 75.7775 33.1809 75.7871 33.2739C75.8042 33.4354 75.8085 33.5968 75.8202 33.7593C75.8468 34.1261 75.9258 34.7334 75.8906 34.8703C75.881 34.9066 75.898 34.9505 75.9098 34.989C75.9279 35.0467 75.9663 35.0873 76.0324 35.0777C76.0783 35.0713 76.1135 34.9975 76.1049 34.9344C76.1039 34.9248 76.0985 34.9163 76.0975 34.9066C76.0697 34.6714 76.0356 34.4362 76.0175 34.2009C76.0015 33.9946 76.0164 33.8053 76.0068 33.4279C76.0036 33.3081 76.0143 33.1862 76.0281 33.0675C76.0356 33.0045 76.0473 32.9339 76.0847 32.8815C76.3705 32.4827 76.1444 31.8871 76.1444 31.8871H76.1455Z" fill="white"/>
<path d="M89.8358 33.1095C89.6737 33.0935 89.5159 33.1737 89.3538 33.1951C89.1959 33.2154 89.0349 33.2239 88.876 33.2336C88.7342 33.2421 88.5913 33.2539 88.4495 33.2507C88.2618 33.2475 88.0773 33.1993 87.8875 33.2549C87.7552 33.2934 87.6145 33.3052 87.4812 33.3287C87.4513 33.4592 87.3596 33.5094 87.2444 33.4645C87.1346 33.4207 87.0237 33.3907 86.9032 33.4185C86.8818 33.4239 86.8573 33.4175 86.8349 33.4132C86.6728 33.3822 86.515 33.4741 86.499 33.6388C86.4862 33.7639 86.4179 33.8387 86.3412 33.9179C86.2836 33.9777 86.291 34.0259 86.3614 34.074C86.4233 34.1167 86.4905 34.1542 86.5416 34.2076C86.7635 34.4418 86.9479 34.6984 86.9767 35.0352C87.0066 35.3817 87.0375 35.7281 87.0589 36.0756C87.0791 36.4156 87.0876 36.7567 87.1026 37.0967C87.1239 37.5789 87.1474 38.0612 87.1655 38.5434C87.1762 38.8096 87.1708 39.0759 87.1858 39.3411C87.1986 39.572 87.2316 39.8008 87.2487 40.0307C87.2561 40.1205 87.2391 40.2125 87.2465 40.3012C87.2519 40.3622 87.2807 40.4285 87.3553 40.4295C87.4268 40.4295 87.4566 40.3686 87.4748 40.3066C87.4801 40.2873 87.4833 40.2659 87.4812 40.2456C87.4652 40.1066 87.4449 39.9676 87.431 39.8286C87.4086 39.6084 87.382 39.387 87.3713 39.1657C87.3606 38.9497 87.3713 38.7327 87.366 38.5167C87.3596 38.2761 87.3404 38.0366 87.334 37.7971C87.3287 37.5982 87.3382 37.3993 87.3308 37.2015C87.3223 36.9909 87.2935 36.7802 87.2892 36.5696C87.2785 36.1365 87.27 35.7046 87.2764 35.2715C87.2796 35.0481 87.3159 34.8257 87.3425 34.6022C87.3468 34.5712 87.3809 34.5188 87.4012 34.5188C87.4428 34.5188 87.5014 34.538 87.5206 34.569C87.5675 34.6439 87.6198 34.7284 87.6294 34.8139C87.6635 35.1218 87.6859 35.4308 87.704 35.7409C87.7222 36.0585 87.7286 36.3771 87.7414 36.6958C87.7414 36.7214 87.7435 36.7556 87.7584 36.7706C87.7872 36.7984 87.8277 36.8315 87.8619 36.8294C87.8896 36.8283 87.928 36.7845 87.9397 36.7514C87.9546 36.7097 87.9514 36.6594 87.9482 36.6124C87.9333 36.3771 87.9077 36.1419 87.9003 35.9067C87.8896 35.5763 87.8885 35.2448 87.8907 34.9144C87.8907 34.831 87.9088 34.7455 87.9344 34.6663C87.945 34.6332 87.993 34.5958 88.0282 34.5926C88.057 34.5894 88.1007 34.6257 88.1199 34.6556C88.1871 34.7615 88.2138 34.8802 88.218 35.0053C88.2234 35.1806 88.2298 35.3549 88.2426 35.5303C88.2596 35.7687 88.2874 36.0072 88.3023 36.2456C88.314 36.4263 88.3098 36.6081 88.3172 36.7888C88.3257 36.9716 88.3418 37.1555 88.3545 37.3384C88.3556 37.3587 88.3567 37.379 88.3609 37.3982C88.3865 37.5137 88.4388 37.5704 88.5038 37.5533C88.571 37.5372 88.5966 37.4517 88.5796 37.3437C88.5561 37.1972 88.5305 37.0497 88.522 36.901C88.4974 36.4669 88.4772 36.0328 88.4633 35.5987C88.4548 35.3453 88.4591 35.0908 88.4655 34.8374C88.4665 34.7807 88.4932 34.7187 88.5252 34.6695C88.5582 34.6182 88.635 34.6246 88.6542 34.677C88.7022 34.8043 88.763 34.9326 88.779 35.0662C88.811 35.3453 88.8131 35.6276 88.8344 35.9077C88.8483 36.097 88.8792 36.2852 88.8899 36.4755C88.9069 36.7674 88.9144 37.0604 88.924 37.3523C88.9336 37.6474 88.9443 37.9425 88.9507 38.2387C88.956 38.4803 88.9464 38.7241 88.9613 38.9647C88.9784 39.2384 89.0221 39.5111 89.0445 39.7848C89.0562 39.9323 89.0509 40.082 89.0434 40.2296C89.037 40.3483 89.0339 40.4584 89.1416 40.5375L89.2119 40.5343C89.2973 40.4766 89.3079 40.3964 89.2845 40.3034C89.2717 40.2531 89.2642 40.2007 89.2589 40.1494C89.2407 39.9484 89.2247 39.7474 89.2098 39.5463C89.1853 39.2149 89.1533 38.8823 89.1394 38.5509C89.1234 38.1745 89.1256 37.7971 89.116 37.4196C89.1106 37.1897 89.0957 36.9588 89.0872 36.7289C89.0818 36.5621 89.0808 36.3953 89.0754 36.2285C89.0658 35.8981 89.0488 35.5677 89.0488 35.2373C89.0488 35.1101 89.02 34.9711 89.1213 34.8588C89.2727 34.692 89.4167 34.5199 89.5735 34.3584C89.6897 34.2386 89.8838 34.2654 89.9563 34.4119C90.0096 34.5199 90.0608 34.6396 90.0704 34.7572C90.1184 35.325 90.1547 35.8938 90.1888 36.4637C90.208 36.7931 90.2101 37.1234 90.2304 37.4528C90.257 37.8751 90.2986 38.2975 90.3274 38.7198C90.3338 38.8171 90.3114 38.9166 90.3157 39.0149C90.3189 39.0855 90.3327 39.1603 90.3637 39.2224C90.4042 39.3015 90.5098 39.2929 90.5418 39.2085C90.561 39.1571 90.5599 39.0941 90.5546 39.0374C90.5226 38.6995 90.4746 38.3638 90.4554 38.0259C90.4181 37.3715 90.3914 36.7171 90.3679 36.0628C90.353 35.6565 90.3455 35.2501 90.3445 34.8438C90.3445 34.6385 90.3722 34.4343 90.4714 34.2493C90.4746 34.244 91.2467 33.2496 89.8379 33.1138L89.8358 33.1095Z" fill="white"/>
<path d="M103.195 27.1532C101.91 21.111 96.9129 8.72169 90.9175 9.03177C87.73 9.19644 86.9248 10.3469 84.8368 12.3496C84.8368 12.3496 86.0365 9.8893 83.0335 8.93661C80.0294 7.98392 71.7871 8.73239 71.7871 8.73239C71.7871 8.73239 73.5072 1.83152 66.0519 0.796495C64.9631 0.645732 58.2223 0.388045 56.5139 8.49929C56.5139 8.49929 49.5694 7.03978 47.6061 10.688C47.6061 10.688 45.5021 8.47898 42.4895 9.68294C39.4758 10.8869 39.1878 12.7153 39.1878 12.7153C39.1878 12.7153 39.1569 10.9436 38.323 9.97912C37.489 9.01467 33.025 8.74201 30.3291 10.1705C30.3291 10.1705 29.7597 10.4485 29.9143 11.784C29.9143 11.784 28.401 9.32261 24.6707 9.87861C20.9404 10.4346 20.4392 13.1911 20.4392 13.1911C20.324 10.9596 17.2112 7.88662 9.44125 10.9789C1.67028 14.0711 -1.34874 19.8503 2.26001 28.4598C5.86876 37.0704 17.1706 38.1536 25.6732 32.8715C25.6732 32.8715 30.9519 36.4374 34.7921 30.7972C34.7921 30.7972 37.4709 32.4727 39.1207 34.0498C40.7693 35.627 42.755 39.6355 47.6733 33.8488C47.6733 33.8488 48.9253 33.9654 50.5132 32.9763C50.5132 32.9763 49.9959 34.454 56.1598 33.5312C56.1598 33.5312 56.9319 33.3099 57.3094 32.4438C57.3094 32.4438 57.8 32.0258 58.1583 33.1249C58.5166 34.2252 60.4607 39.2036 62.8676 36.1616C62.8676 36.1616 63.9425 34.7908 64.4832 32.7881C64.4832 32.7881 65.909 33.1474 68.2711 32.1787C68.2711 32.1787 68.8235 33.5409 73.5819 32.2663C78.3402 30.9929 80.9977 33.4596 81.9255 33.8606C84.3772 34.9202 86.35 33.5633 86.35 33.5633C86.35 33.5633 87.7481 33.7782 89.0065 33.6146C90.4643 33.4254 91.7578 33.0394 91.7578 33.0394C91.7578 33.0394 92.6792 36.6385 94.2234 36.1252C98.2299 34.794 101.639 30.5566 102.917 28.802C103.263 28.3251 103.32 27.7274 103.197 27.15L103.195 27.1532ZM14.4011 24.1893C12.6384 24.5432 12.4261 21.8498 12.4059 21.451C12.3483 20.3304 12.9146 19.6589 13.0361 20.2246C13.1321 20.6704 12.6864 22.4999 13.6547 22.9736C13.9053 23.0965 14.5185 22.8848 14.7648 22.8763C15.4974 22.8485 15.6467 23.9402 14.4001 24.1904L14.4011 24.1893ZM48.4326 23.3606C48.2246 23.5242 47.7597 23.0965 47.3939 22.4058C47.0281 21.7151 46.8991 21.0233 47.107 20.8597C47.315 20.6961 47.7799 21.1238 48.1457 21.8145C48.5115 22.5053 48.6405 23.197 48.4326 23.3606ZM29.9527 24.3871C29.7341 24.5593 29.2435 24.108 28.8575 23.3799C28.4714 22.6517 28.336 21.9214 28.5546 21.7493C28.7732 21.5772 29.2638 22.0284 29.6498 22.7565C30.0359 23.4847 30.1713 24.215 29.9527 24.3871ZM55.3856 20.3775L55.0177 17.9225C55.0102 17.8722 55.055 17.8284 55.1051 17.837C57.3553 18.2486 55.9337 19.9658 55.5136 20.417C55.4709 20.463 55.3952 20.4384 55.3856 20.3764V20.3775ZM74.4233 19.3745C73.6426 19.799 73.5595 18.6624 73.8634 18.3726C74.3945 17.8658 76.1828 17.7354 76.9965 17.7022C77.1032 17.698 77.1437 17.8402 77.0509 17.8936C76.3684 18.2828 74.8978 19.1168 74.4233 19.3756V19.3745ZM91.8794 19.3061C91.7962 19.6108 91.0113 20.0054 90.7597 19.7488C90.4877 19.4729 90.7031 18.0583 91.0423 17.8979C91.3814 17.7386 91.9775 18.9511 91.8794 19.305V19.3061Z" fill="#0F0F0F"/>
<path d="M95.3957 12.4691C92.7115 8.92989 89.299 10.2044 89.299 10.2044C85.8811 11.7227 84.9491 15.5431 85.0195 19.4726C83.3153 19.5346 79.6522 19.9773 79.1734 22.6194C79.1734 22.6194 79.2001 23.9281 80.2281 24.761C80.2281 24.761 77.2389 22.9209 75.3631 23.5817C75.3631 23.5817 82.0847 18.645 83.7355 14.4076C84.2026 13.209 84.4585 10.2889 82.1604 9.96919C79.3525 9.57999 72.9231 9.54043 70.5173 10.0366C70.9929 9.11594 71.2371 8.05953 71.171 6.94859C70.9833 3.77509 68.2917 1.28163 65.1223 1.34899C61.6927 1.4217 59.0405 4.37387 59.3274 7.80291C59.5812 10.8374 62.1257 13.2186 65.1628 13.255C66.7326 13.2731 68.1509 12.6883 69.2163 11.726C69.0819 12.6647 69.0851 13.9232 69.1907 15.1956C69.0339 14.8578 68.7961 14.5798 68.4399 14.3969C67.0749 13.6966 64.3108 14.8749 63.127 15.4458C62.0094 12.1622 57.2938 8.83687 52.5781 9.08066C49.2498 9.2528 48.9864 10.6877 49.2274 12.4969C49.1261 12.3996 49.0248 12.3065 48.9213 12.2167C40.2055 4.63155 39.8547 18.4664 39.8547 18.4664C39.8589 19.0684 39.8888 19.6415 39.9389 20.1879C38.7488 20.5899 38.7339 21.1288 38.6613 21.6357C38.543 22.4611 40.8198 25.0936 41.3263 25.6678C40.5681 24.9321 37.4307 23.9121 37.4307 23.9121L37.1513 21.9917C37.1513 21.9917 39.4078 15.9719 38.4587 12.1397C37.4126 7.91625 30.932 10.7455 30.5385 11.1432C30.2708 11.4137 30.6398 12.9983 30.9053 13.9917C30.5075 13.534 30.0959 13.1245 29.6725 12.7759C21.0772 5.69331 21.0964 19.0342 21.0964 19.0342C18.2886 19.4929 14.8067 21.4678 16.2229 22.5007C17.2541 23.2523 19.0308 25.3074 15.5191 25.4293C12.0074 25.5501 10.524 20.5482 12.435 18.2323C14.346 15.9163 14.7577 18.0516 14.8323 19.4993C14.9016 20.8562 19.0649 18.1564 19.4499 16.6199C21.0484 10.2515 14.7161 9.42816 8.87104 12.2499C-1.50305 17.2582 7.17011 38.9605 24.5975 30.381C25.071 30.1479 25.4517 29.8463 25.7535 29.501L25.7556 29.502C30.7048 31.957 33.4412 31.293 34.642 29.1684C36.6949 28.8969 39.3087 29.6539 41.0021 31.9912C43.3877 35.2834 46.5006 32.7953 46.5006 32.7953C47.2492 32.2094 47.7888 31.7143 48.162 31.2716C50.0059 31.8276 51.3762 31.6277 52.3445 30.9081C52.5279 31.6052 53.1465 31.8768 53.1465 31.8768C57.3823 32.2928 57.7235 30.582 57.4974 29.717C57.2724 28.8509 56.1324 24.8605 56.1324 24.8605C57.7352 24.3644 61.3696 32.3601 62.4179 34.7563C62.5213 34.9926 62.8594 34.9787 62.9425 34.7349C63.3147 33.6518 64.0698 31.4534 64.796 29.3213C66.2644 31.9474 68.9315 30.8824 70.4757 29.3876C70.8266 29.9693 71.2649 30.3254 71.8247 30.2355C73.6792 29.9383 78.0355 27.4758 82.2575 30.4312C84.8862 32.2714 86.7535 31.8041 87.7879 31.1882C88.8351 31.5582 90.8261 31.0899 91.9 30.9102C93.2949 30.6771 93.0336 28.8263 91.7262 26.0719C90.4187 23.3176 90.9765 22.3317 92.4289 22.2569C95.657 22.0901 93.7108 31.7432 95.1483 33.8859C96.3277 35.6448 100.432 30.5232 101.864 28.6328C102.214 28.1698 102.394 27.5785 102.278 27.0086C101.188 21.5929 97.9263 15.8104 95.3925 12.4712L95.3957 12.4691ZM30.4766 24.9642C29.6896 25.3267 28.332 24.0479 27.4437 22.1083C26.5554 20.1687 26.4733 18.3028 27.2603 17.9404C28.0473 17.5779 29.4049 18.8567 30.2932 20.7963C31.1815 22.7359 31.2636 24.6017 30.4766 24.9642ZM49.3895 24.3761C48.5641 24.73 47.1916 23.3657 46.3246 21.3299C45.4576 19.294 45.4246 17.3566 46.25 17.0037C47.0754 16.6498 48.4478 18.0141 49.3148 20.05C50.1818 22.0858 50.2149 24.0233 49.3895 24.3761ZM55.13 20.7952L54.3003 15.2651C54.2747 15.0941 54.4262 14.9486 54.5947 14.9807C59.5748 15.9494 56.6539 19.7174 55.563 20.9257C55.4211 21.0829 55.162 21.0037 55.13 20.7942V20.7952ZM58.6374 22.9262C60.1763 22.5648 61.2288 21.8933 61.9444 21.101C62.0596 22.3702 62.3315 23.5603 62.6578 24.6092C60.8055 23.5421 58.6374 22.9262 58.6374 22.9262ZM69.8924 22.769C69.6556 22.043 69.4456 21.1716 69.3048 20.0842C69.2099 19.3582 69.3954 18.2804 69.4477 17.2432C69.7804 19.1764 70.3296 20.6979 70.9439 20.4862C72.4646 19.9644 73.4446 19.8105 73.2335 18.4932C72.8485 16.0917 74.7243 16.2114 78.9025 15.7784C83.0807 15.3453 73.3508 20.3911 73.3508 20.3911C73.3508 20.3911 71.1795 21.5544 69.8924 22.769ZM93.4921 18.8802C93.2767 19.6854 91.2516 20.7257 90.599 20.0468C89.8973 19.3165 90.4475 15.5784 91.3231 15.1582C92.1986 14.738 93.7417 17.9436 93.4921 18.8802Z" fill="url(#paint0_linear_2915_3200)"/>
<path d="M47.5825 32.6378L47.2157 32.2496C49.18 30.3795 48.4463 28.9296 47.9601 27.9705C47.8833 27.8198 47.8182 27.6904 47.7692 27.5696C47.7414 27.5022 47.6295 27.2467 47.4738 26.8927C46.8542 25.4856 45.4039 22.1892 44.8909 20.6944C44.443 19.3888 42.901 19.6326 40.4141 20.1897C40.0931 20.2613 39.7625 20.3362 39.4319 20.4046L39.3242 19.8807C39.6505 19.8133 39.979 19.7395 40.2979 19.6679C42.5928 19.1536 44.7608 18.6681 45.3953 20.5201C45.9008 21.9935 47.3447 25.275 47.9622 26.6767C48.1253 27.0478 48.2331 27.2926 48.264 27.3664C48.3045 27.4658 48.3653 27.5867 48.4367 27.7267C48.9262 28.6923 49.8369 30.4907 47.5836 32.6356L47.5825 32.6378Z" fill="#0F0F0F"/>
<path d="M34.9467 29.7554L34.4838 29.4902C35.6537 27.4341 36.4748 23.8478 33.7491 18.4418C32.1036 15.1785 29.9228 12.7844 29.9004 12.7609L30.2928 12.3984C30.3152 12.423 32.5462 14.8716 34.2247 18.2001C36.4674 22.646 36.7169 26.6418 34.9477 29.7543L34.9467 29.7554Z" fill="#0F0F0F"/>
<path d="M52.4454 31.6429L52.0178 31.3232C54.6657 27.7616 54.1091 23.3082 53.1749 20.1999C52.0221 16.3613 49.7879 12.9056 48.0859 11.183L48.4645 10.8066C50.0855 12.4469 52.4262 15.8502 53.6857 20.0459C54.654 23.2718 55.2256 27.9027 52.4454 31.6429Z" fill="#0F0F0F"/>
<path d="M26.1597 29.8464L25.7033 29.5705C27.1067 27.2396 26.1981 23.2289 24.4695 20.9439C23.788 20.0436 22.3729 18.6098 20.5472 19.1177L20.4043 18.6023C21.9826 18.1639 23.5769 18.8803 24.8939 20.621C25.8398 21.871 26.5362 23.5497 26.8049 25.2273C27.0939 27.0343 26.8646 28.6756 26.1597 29.8464Z" fill="#0F0F0F"/>
<path d="M60.3402 22.9239L60.1162 22.4384C60.1269 22.4331 61.1645 21.9391 62.0347 20.7662C63.1971 19.1997 63.5277 17.2227 63.0169 14.8918L63.5373 14.7773C64.2208 17.892 63.3208 19.9396 62.4463 21.1083C61.4951 22.3796 60.3871 22.9025 60.3402 22.9239Z" fill="#0F0F0F"/>
<path d="M65.0473 30.9162L64.5386 30.7547C64.5493 30.7194 65.6093 27.2465 63.5469 25.3005C63.1395 24.9167 62.7289 24.6643 62.3994 24.4622C62.3119 24.4088 62.2298 24.3585 62.1562 24.3104L62.4453 23.8613C62.5156 23.9073 62.5945 23.9544 62.6777 24.0067C63.0286 24.2217 63.4647 24.49 63.9126 24.9113C64.8735 25.817 65.3726 27.1471 65.3576 28.7552C65.347 29.9528 65.059 30.8766 65.0473 30.9151V30.9162Z" fill="#0F0F0F"/>
<path d="M70.4466 30.1393L70.1117 29.7234C72.2531 27.9923 71.1685 25.8335 70.1202 23.7453C69.5241 22.5595 68.9621 21.4389 69.1082 20.5033C69.7864 16.1719 69.2234 14.8513 68.8267 14.4504C68.624 14.2451 68.4438 14.2686 68.4374 14.2697L68.334 13.7458C68.3788 13.7361 68.7755 13.6656 69.1733 14.043C70.0317 14.8588 70.1863 17.0604 69.6339 20.5867C69.5145 21.3523 70.0392 22.398 70.5948 23.5047C71.6313 25.5683 72.9217 28.1366 70.4455 30.1393H70.4466Z" fill="#0F0F0F"/>
<path d="M68.4751 13.0231L68.1797 12.5783C68.201 12.5644 70.3381 11.1113 71.0953 8.73438L71.6029 8.8969C70.7881 11.4567 68.57 12.9611 68.4751 13.0231Z" fill="#0F0F0F"/>
<path d="M87.8577 31.7783L87.5687 31.3292C88.5893 30.6695 89.1427 30.0397 89.2622 29.4046C89.4232 28.5438 88.7887 27.6649 88.055 26.647C87.2253 25.4965 86.2837 24.1931 86.1973 22.5144C86.1024 20.6603 85.615 19.93 85.2226 19.6446C84.8408 19.3655 84.4814 19.4574 84.4665 19.4617L84.3193 18.9474C84.3439 18.9399 84.9251 18.7763 85.5201 19.1997C86.2368 19.7098 86.6431 20.8154 86.7294 22.4855C86.8073 24.007 87.6999 25.242 88.4858 26.3326C89.259 27.404 89.9895 28.4155 89.7858 29.5029C89.6386 30.2899 89.0073 31.0341 87.8577 31.7772V31.7783Z" fill="#0F0F0F"/>
<path d="M57.8715 11.0442C59.115 11.4837 59.6343 12.0311 59.8742 12.694C60.2592 13.7537 58.73 12.601 57.6945 11.8536C57.2306 11.5189 57.1261 10.7801 57.8715 11.0442Z" fill="white"/>
<path d="M37.1235 11.2785C37.9094 12.3392 38.0342 13.0844 37.8646 13.7687C37.5927 14.8636 36.9678 13.0502 36.5252 11.8505C36.3269 11.3127 36.6521 10.6423 37.1235 11.2785Z" fill="white"/>
<path d="M68.2784 3.06616C69.4184 3.72909 69.8279 4.36422 69.942 5.05922C70.1243 6.1723 68.835 4.75449 67.9552 3.82853C67.5607 3.41366 67.5948 2.6684 68.2794 3.06616H68.2784Z" fill="white"/>
<path d="M47.0047 11.4929C48.1565 12.1344 48.5766 12.7631 48.7035 13.456C48.9051 14.5659 47.5913 13.1716 46.6955 12.2606C46.2945 11.8532 46.3148 11.1069 47.0058 11.4918L47.0047 11.4929Z" fill="white"/>
<path d="M28.1971 12.4675C29.3488 13.109 29.769 13.7377 29.8959 14.4306C30.0975 15.5405 28.7836 14.1462 27.8879 13.2352C27.4869 12.8278 27.5071 12.0815 28.1982 12.4664L28.1971 12.4675Z" fill="white"/>
<path d="M17.924 12.2834C18.8262 13.2468 19.0362 13.9728 18.9456 14.6721C18.8006 15.7906 17.972 14.0616 17.395 12.9207C17.137 12.4096 17.3822 11.705 17.924 12.2834Z" fill="white"/>
<path d="M83.1363 11.3364C83.5885 12.5778 83.4968 13.3284 83.1395 13.9358C82.5679 14.9077 82.4837 12.9906 82.3994 11.715C82.3621 11.1429 82.8644 10.5923 83.1353 11.3375L83.1363 11.3364Z" fill="white"/>
<path d="M92.5481 11.3162C93.7436 11.8733 94.2075 12.4688 94.3834 13.151C94.665 14.2427 93.253 12.9479 92.2943 12.1053C91.8646 11.7279 91.8315 10.9826 92.5481 11.3162Z" fill="white"/>
<defs>
<linearGradient id="paint0_linear_2915_3200" x1="54.092" y1="40.3196" x2="54.0863" y2="-0.711918" gradientUnits="userSpaceOnUse">
<stop offset="0.25" stop-color="#FFE600"/>
<stop offset="0.495" stop-color="#FF8A00"/>
<stop offset="0.805" stop-color="#FF0000"/>
</linearGradient>
</defs>
</svg>
