<svg width="148" height="41" viewBox="0 0 148 41" fill="none" xmlns="http://www.w3.org/2000/svg">
<path d="M28.0668 0L19.8725 4.73077L11.6821 0H0L0.00402276 14.3532L11.4126 20.9707V13.9992L7.36568 11.6379V6.01806L16.1916 11.0103V24.9331L19.8725 27.0611L23.5533 24.9331V11.0103L32.3833 6.01806V11.6379L28.3323 13.9992V20.9707L39.7449 14.3532L39.7489 0H28.0668Z" fill="#FF007A"/>
<path d="M28.3271 23.0662V27.6481L20.8126 31.9445V40.5371L35.6968 31.9445L35.6928 18.9429L28.3271 23.0662Z" fill="#FF007A"/>
<path d="M11.4142 23.0662L4.05256 18.9429L4.04854 31.9445L18.9328 40.5371V31.9445L11.4142 27.6481V23.0662Z" fill="#FF007A"/>
<path d="M56.883 23.4683L53.2866 14.4653H51.3597L55.9457 25.9463L56.002 26.075H57.768L62.4022 14.4653H60.4753L56.883 23.4683Z" fill="black"/>
<path d="M96.8168 12.2246H94.9181V14.4653H92.3033V16.364H94.9181V26.075H96.8168V16.364H99.4316V14.4653H96.8168V12.2246Z" fill="black"/>
<path d="M83.3203 15.9581V14.4657H81.4256V26.0754H83.3203V20.6849C83.3203 16.0989 87.4034 16.2196 87.4034 16.2196V14.4657C87.4034 14.4657 85.0179 14.2565 83.3203 15.9581Z" fill="black"/>
<path d="M115.813 16.2194C117.149 16.2194 118.372 16.867 119.124 17.9371L120.822 17.3417C119.792 15.5878 117.893 14.4614 115.813 14.4614C112.611 14.4614 110.008 17.0642 110.008 20.2663C110.008 23.4684 112.611 26.0711 115.813 26.0711C117.861 26.0711 119.735 24.981 120.773 23.2753L119.064 22.6759C118.307 23.6977 117.121 24.3172 115.817 24.3172C113.585 24.3172 111.766 22.4989 111.766 20.2663C111.766 18.0336 113.581 16.2194 115.813 16.2194Z" fill="black"/>
<path d="M144.955 19.3934C144.794 19.3371 144.633 19.2848 144.476 19.2325L144.404 19.2084C143.068 18.7618 141.805 18.3354 141.805 17.4142C141.805 16.678 142.734 16.1309 143.563 16.1309C143.977 16.1309 144.388 16.2597 144.746 16.501C144.979 16.6579 145.188 16.8591 145.349 17.0884L145.361 17.1044L145.446 17.2211L147.167 16.4769L147.043 16.2798C146.375 15.2218 145.047 14.5098 143.736 14.5098C141.535 14.5098 139.874 15.8333 139.874 17.5872C139.874 19.4497 141.648 20.0652 143.213 20.6083C144.532 21.0669 145.896 21.5375 145.896 22.7001C145.896 23.7179 144.943 24.454 143.627 24.454C142.887 24.454 142.3 24.2851 141.825 23.9311C141.491 23.6857 141.214 23.3558 140.92 22.861L140.835 22.7202L139.005 23.3639L139.102 23.565C139.858 25.1419 141.539 26.0792 143.599 26.0792C146.109 26.0792 148 24.5546 148 22.5312C147.992 20.7008 146.532 19.9405 144.955 19.3934Z" fill="black"/>
<path d="M130.308 14.4653C127.105 14.4653 124.503 17.0681 124.503 20.2702C124.503 23.4723 127.105 26.075 130.308 26.075C132.391 26.075 134.294 24.9487 135.32 23.1907L133.622 22.5953C132.87 23.6694 131.651 24.3171 130.308 24.3171C128.381 24.3171 126.711 22.9373 126.337 21.0707H136.06L136.08 20.8897C136.1 20.6845 136.112 20.4753 136.112 20.2662C136.112 17.0681 133.506 14.4653 130.308 14.4653ZM126.353 19.3852C126.759 17.5387 128.389 16.2193 130.308 16.2193C132.226 16.2193 133.852 17.5387 134.262 19.3852H126.353Z" fill="black"/>
<path d="M106.163 14.4653H104.268V26.075H106.163V14.4653Z" fill="black"/>
<path d="M105.219 12.5103C105.95 12.5103 106.542 11.9177 106.542 11.1868C106.542 10.4558 105.95 9.86328 105.219 9.86328C104.488 9.86328 103.895 10.4558 103.895 11.1868C103.895 11.9177 104.488 12.5103 105.219 12.5103Z" fill="black"/>
<path d="M74.5437 9.86768H72.6088L71.4381 12.5106H73.3731L74.5437 9.86768Z" fill="black"/>
<path d="M71.8822 14.4658C68.68 14.4658 66.0773 17.0685 66.0773 20.2707C66.0773 23.4728 68.68 26.0755 71.8822 26.0755C73.9659 26.0755 75.8687 24.9491 76.8945 23.1912L75.1969 22.5958C74.4447 23.6699 73.2258 24.3176 71.8822 24.3176C69.9553 24.3176 68.2858 22.9378 67.9117 21.0712H77.6347L77.6548 20.8902C77.6749 20.685 77.687 20.4758 77.687 20.2666C77.683 17.0686 75.0803 14.4658 71.8822 14.4658ZM67.9278 19.3857C68.3341 17.5392 69.9633 16.2197 71.8822 16.2197C73.801 16.2197 75.4262 17.5392 75.8365 19.3857H67.9278Z" fill="black"/>
</svg>
