<svg width="148" height="41" viewBox="0 0 148 41" fill="none" xmlns="http://www.w3.org/2000/svg">
<path d="M28.0668 0L19.8725 4.73077L11.6821 0H0L0.00402276 14.3532L11.4126 20.9707V13.9992L7.36568 11.6379V6.01806L16.1916 11.0103V24.9331L19.8725 27.0611L23.5533 24.9331V11.0103L32.3833 6.01806V11.6379L28.3323 13.9992V20.9707L39.7449 14.3532L39.7489 0H28.0668Z" fill="#2C2C2C"/>
<path d="M28.327 23.0667V27.6486L20.8125 31.9449V40.5376L35.6967 31.9449L35.6927 18.9434L28.327 23.0667Z" fill="#2C2C2C"/>
<path d="M11.414 23.0667L4.05236 18.9434L4.04834 31.9449L18.9326 40.5376V31.9449L11.414 27.6486V23.0667Z" fill="#2C2C2C"/>
<path d="M56.883 23.4678L53.2866 14.4648H51.3597L55.9457 25.9458L56.002 26.0745H57.768L62.4022 14.4648H60.4753L56.883 23.4678Z" fill="#2C2C2C"/>
<path d="M96.8168 12.2246H94.9181V14.4653H92.3033V16.364H94.9181V26.075H96.8168V16.364H99.4316V14.4653H96.8168V12.2246Z" fill="#2C2C2C"/>
<path d="M83.3203 15.9576V14.4652H81.4256V26.0749H83.3203V20.6844C83.3203 16.0984 87.4035 16.2191 87.4035 16.2191V14.4652C87.4035 14.4652 85.018 14.256 83.3203 15.9576Z" fill="#2C2C2C"/>
<path d="M115.813 16.2189C117.149 16.2189 118.372 16.8666 119.124 17.9366L120.822 17.3412C119.792 15.5873 117.893 14.4609 115.813 14.4609C112.611 14.4609 110.009 17.0637 110.009 20.2658C110.009 23.4679 112.611 26.0706 115.813 26.0706C117.861 26.0706 119.736 24.9805 120.774 23.2748L119.064 22.6754C118.308 23.6972 117.121 24.3167 115.818 24.3167C113.585 24.3167 111.767 22.4984 111.767 20.2658C111.767 18.0332 113.581 16.2189 115.813 16.2189Z" fill="#2C2C2C"/>
<path d="M144.955 19.3934C144.794 19.3371 144.633 19.2848 144.476 19.2325L144.404 19.2084C143.068 18.7618 141.805 18.3354 141.805 17.4142C141.805 16.678 142.734 16.1309 143.563 16.1309C143.977 16.1309 144.388 16.2597 144.746 16.501C144.979 16.6579 145.188 16.8591 145.349 17.0884L145.361 17.1044L145.446 17.2211L147.167 16.4769L147.043 16.2798C146.375 15.2218 145.047 14.5098 143.736 14.5098C141.535 14.5098 139.874 15.8333 139.874 17.5872C139.874 19.4497 141.648 20.0652 143.213 20.6083C144.532 21.0669 145.896 21.5375 145.896 22.7001C145.896 23.7179 144.943 24.454 143.627 24.454C142.887 24.454 142.3 24.2851 141.825 23.9311C141.491 23.6857 141.214 23.3558 140.92 22.861L140.835 22.7202L139.005 23.3639L139.102 23.565C139.858 25.1419 141.539 26.0792 143.599 26.0792C146.109 26.0792 148 24.5546 148 22.5312C147.992 20.7008 146.532 19.9405 144.955 19.3934Z" fill="#2C2C2C"/>
<path d="M130.308 14.4648C127.106 14.4648 124.503 17.0676 124.503 20.2697C124.503 23.4718 127.106 26.0745 130.308 26.0745C132.391 26.0745 134.294 24.9482 135.32 23.1902L133.622 22.5949C132.87 23.6689 131.651 24.3166 130.308 24.3166C128.381 24.3166 126.711 22.9368 126.337 21.0702H136.06L136.08 20.8892C136.1 20.684 136.112 20.4749 136.112 20.2657C136.112 17.0676 133.506 14.4648 130.308 14.4648ZM126.353 19.3847C126.76 17.5382 128.389 16.2188 130.308 16.2188C132.226 16.2188 133.852 17.5382 134.262 19.3847H126.353Z" fill="#2C2C2C"/>
<path d="M106.163 14.4648H104.268V26.0745H106.163V14.4648Z" fill="#2C2C2C"/>
<path d="M105.219 12.5103C105.95 12.5103 106.542 11.9177 106.542 11.1868C106.542 10.4558 105.95 9.86328 105.219 9.86328C104.488 9.86328 103.895 10.4558 103.895 11.1868C103.895 11.9177 104.488 12.5103 105.219 12.5103Z" fill="#2C2C2C"/>
<path d="M74.5439 9.86719H72.6089L71.4383 12.5101H73.3732L74.5439 9.86719Z" fill="#2C2C2C"/>
<path d="M71.8823 14.4648C68.6802 14.4648 66.0775 17.0676 66.0775 20.2697C66.0775 23.4718 68.6802 26.0745 71.8823 26.0745C73.9661 26.0745 75.8689 24.9482 76.8947 23.1902L75.1971 22.5949C74.4448 23.6689 73.2259 24.3166 71.8823 24.3166C69.9554 24.3166 68.286 22.9368 67.9119 21.0702H77.6349L77.655 20.8892C77.6751 20.684 77.6872 20.4749 77.6872 20.2657C77.6832 17.0676 75.0804 14.4648 71.8823 14.4648ZM67.928 19.3847C68.3343 17.5382 69.9635 16.2188 71.8823 16.2188C73.8012 16.2188 75.4264 17.5382 75.8367 19.3847H67.928Z" fill="#2C2C2C"/>
</svg>
