<svg width="296" height="123" viewBox="0 0 296 123" fill="none" xmlns="http://www.w3.org/2000/svg">
<g clip-path="url(#clip0_2915_3110)">
<path d="M267.557 105.092C266.662 105.138 265.785 104.931 264.953 104.475C262.307 103.026 260.589 99.1429 259.721 96.6262C258.151 97.0096 255.957 97.4844 253.593 97.7917C253.043 97.8617 252.454 97.9165 251.844 97.9469C249.556 98.0656 247.404 97.88 246.214 97.74C244.97 98.4247 242.569 99.4838 239.44 99.645C237.024 99.7698 234.629 99.3285 232.328 98.3334C231.751 98.0839 231.123 97.6974 230.328 97.2105C227.514 95.485 222.807 92.6 215.686 92.9682C213.841 93.0626 211.92 93.376 209.971 93.8994C206.517 94.8246 203.491 95.3602 200.978 95.488C199.163 95.5823 197.581 95.4667 196.276 95.1411C195.293 94.8976 194.455 94.5385 193.784 94.0699C191.277 94.9737 188.852 95.491 186.57 95.6097C186.045 95.6371 185.535 95.6432 185.046 95.625C183.331 100.728 180.709 104.097 180.596 104.243C178.806 106.507 176.857 107.71 174.802 107.813C174.353 107.837 173.895 107.807 173.443 107.725C167.952 106.736 164.562 98.026 163.651 95.3724C162.234 96.9274 160.628 97.4265 160.422 97.4874L160.382 97.4965L160.17 97.5422H160.151C157.213 97.9865 154.606 98.2665 152.403 98.3791C146.293 98.6956 144.016 97.6852 142.927 96.7509C140.174 98.0778 137.861 98.3973 136.662 98.4673C131.763 104.042 127.347 106.857 123.168 107.074C123.037 107.08 122.904 107.086 122.773 107.086C117.683 107.14 114.387 103.434 111.737 100.451C111.076 99.7059 110.45 99.0029 109.877 98.4551C106.665 95.3845 101.885 92.0857 99.5541 90.5367C95.4778 95.7406 90.5062 98.5312 84.7636 98.8264C83.7681 98.8781 82.7483 98.8508 81.7315 98.7443C77.8859 98.3456 74.7688 96.9457 73.0873 96.0358C66.1671 100.144 58.4395 102.944 50.721 104.143C48.7937 104.441 46.8481 104.642 44.9329 104.742C38.7472 105.062 32.8833 104.35 27.5019 102.627C16.6906 99.1642 8.72625 91.9731 4.47396 81.824C-0.673713 69.5446 -1.38395 58.7777 2.36754 49.8245C6.07653 40.9687 14.056 34.0515 26.0845 29.2645C30.0241 27.6973 35.9761 25.7618 41.9493 25.4514C47.0029 25.1897 51.237 26.1361 54.5423 28.2603C56.157 29.298 57.5077 30.6279 58.4972 32.1343C60.382 29.6936 63.8118 26.9121 69.9003 26.0052C70.6682 25.8927 71.4331 25.8135 72.1737 25.774C77.5338 25.497 81.2671 27.253 83.5981 28.9724C84.1778 27.7642 84.9822 27.2347 85.3403 27.0491C88.594 25.3266 92.9525 24.2432 97.6085 24.0028C103.7 23.6863 108.83 24.864 110.675 27.0004C111.449 27.8981 112.089 29.0363 112.581 30.3936C114.466 28.4459 117.003 26.8269 120.139 25.5731C121.857 24.8884 123.599 24.4958 125.32 24.4045C129.715 24.1763 133.147 25.9779 135.038 27.2925C138.049 23.6559 143.066 21.6291 149.962 21.273C153.735 21.0783 157.213 21.4496 159.232 21.7447C162.267 10.0892 169.02 4.8275 174.195 2.46291C178.092 0.679589 181.807 0.156155 184.239 0.0313833C186.4 -0.0812157 187.881 0.0922477 188.282 0.147026C195.378 1.13303 200.565 3.98757 203.694 8.63152C206.999 13.5372 207.13 19.1732 206.82 22.5055C208.098 22.4112 209.853 22.2956 211.868 22.1921C220.224 21.76 231.36 21.6169 236.963 23.3972C240.311 24.4593 242.548 26.2548 243.607 28.735C243.746 29.0637 243.865 29.4045 243.962 29.7545C247.598 26.3552 251.086 23.9663 258.652 23.5737C266.969 23.1446 275.425 30.0892 283.11 43.659C289.754 55.3936 294.091 68.8659 295.785 76.8361C296.295 79.2372 295.882 81.5105 294.625 83.2391C290.862 88.4095 280.812 100.868 268.832 104.849C268.413 104.989 267.982 105.071 267.554 105.092H267.557Z" fill="#999999"/>
<path d="M42.011 100.961C41.5496 100.915 41.1004 101.144 40.6391 101.205C40.1899 101.262 39.7315 101.287 39.2793 101.314C38.8756 101.338 38.4689 101.372 38.0652 101.363C37.531 101.354 37.0059 101.217 36.4657 101.375C36.0893 101.484 35.6887 101.518 35.3093 101.585C35.2243 101.956 34.9633 102.099 34.6355 101.971C34.3228 101.847 34.0072 101.761 33.6642 101.841C33.6035 101.856 33.5337 101.838 33.47 101.825C33.0086 101.737 32.5594 101.999 32.5139 102.467C32.4775 102.824 32.2832 103.037 32.0647 103.262C31.9008 103.432 31.922 103.569 32.1223 103.706C32.2984 103.828 32.4896 103.934 32.6353 104.086C33.2666 104.753 33.7917 105.483 33.8736 106.442C33.9586 107.428 34.0466 108.414 34.1074 109.403C34.165 110.371 34.1893 111.341 34.2318 112.309C34.2925 113.682 34.3593 115.054 34.4109 116.427C34.4412 117.184 34.426 117.942 34.4685 118.697C34.505 119.354 34.5991 120.006 34.6476 120.66C34.6689 120.915 34.6203 121.177 34.6415 121.43C34.6567 121.603 34.7387 121.792 34.9511 121.795C35.1545 121.795 35.2395 121.621 35.2911 121.445C35.3062 121.39 35.3154 121.329 35.3093 121.272C35.2638 120.876 35.2061 120.48 35.1666 120.085C35.1029 119.458 35.027 118.828 34.9967 118.198C34.9663 117.583 34.9967 116.965 34.9815 116.351C34.9633 115.666 34.9086 114.984 34.8904 114.303C34.8753 113.736 34.9026 113.17 34.8813 112.607C34.857 112.008 34.7751 111.408 34.7629 110.809C34.7326 109.576 34.7083 108.347 34.7265 107.114C34.7356 106.478 34.8388 105.845 34.9147 105.209C34.9268 105.121 35.024 104.972 35.0816 104.972C35.2 104.972 35.3669 105.027 35.4216 105.115C35.5551 105.328 35.7039 105.569 35.7312 105.812C35.8283 106.688 35.892 107.568 35.9436 108.45C35.9952 109.354 36.0134 110.261 36.0499 111.168C36.0499 111.241 36.0559 111.338 36.0984 111.381C36.1804 111.46 36.2957 111.555 36.3928 111.548C36.4718 111.545 36.581 111.421 36.6144 111.326C36.6569 111.208 36.6478 111.065 36.6387 110.931C36.5962 110.261 36.5234 109.592 36.5021 108.922C36.4718 107.982 36.4687 107.038 36.4748 106.098C36.4748 105.861 36.5264 105.617 36.5992 105.392C36.6296 105.298 36.7662 105.191 36.8663 105.182C36.9483 105.173 37.0727 105.276 37.1274 105.362C37.3186 105.663 37.3945 106.001 37.4066 106.357C37.4218 106.856 37.44 107.352 37.4764 107.851C37.525 108.53 37.6039 109.208 37.6464 109.887C37.6798 110.401 37.6676 110.918 37.6889 111.433C37.7131 111.953 37.7587 112.477 37.7951 112.997C37.7981 113.055 37.8012 113.113 37.8133 113.167C37.8862 113.496 38.0349 113.657 38.22 113.609C38.4112 113.563 38.4841 113.32 38.4355 113.012C38.3687 112.595 38.2959 112.175 38.2716 111.752C38.2018 110.517 38.1441 109.281 38.1047 108.046C38.0804 107.324 38.0925 106.6 38.1108 105.879C38.1138 105.718 38.1897 105.541 38.2807 105.401C38.3748 105.255 38.5933 105.273 38.648 105.422C38.7846 105.785 38.9576 106.15 39.0031 106.53C39.0942 107.324 39.1002 108.128 39.1609 108.925C39.2004 109.464 39.2884 109.999 39.3188 110.541C39.3673 111.372 39.3886 112.206 39.4159 113.037C39.4432 113.876 39.4736 114.716 39.4918 115.559C39.5069 116.247 39.4796 116.941 39.5221 117.626C39.5707 118.405 39.6951 119.181 39.7589 119.96C39.7922 120.38 39.7771 120.806 39.7558 121.226C39.7376 121.564 39.7285 121.877 40.0351 122.102L40.2354 122.093C40.4782 121.929 40.5086 121.701 40.4418 121.436C40.4054 121.293 40.3841 121.144 40.3689 120.998C40.3173 120.425 40.2718 119.853 40.2293 119.281C40.1595 118.338 40.0684 117.391 40.029 116.448C39.9835 115.377 39.9895 114.303 39.9622 113.228C39.947 112.574 39.9045 111.917 39.8803 111.262C39.8651 110.788 39.8621 110.313 39.8469 109.838C39.8196 108.898 39.771 107.957 39.771 107.017C39.771 106.655 39.6891 106.259 39.9774 105.94C40.4084 105.465 40.8181 104.975 41.2643 104.516C41.5951 104.175 42.1475 104.251 42.3539 104.668C42.5057 104.975 42.6514 105.316 42.6787 105.651C42.8153 107.267 42.9185 108.886 43.0156 110.508C43.0702 111.445 43.0763 112.385 43.134 113.323C43.2099 114.525 43.3282 115.727 43.4102 116.929C43.4284 117.206 43.3647 117.489 43.3768 117.769C43.3859 117.97 43.4254 118.183 43.5134 118.359C43.6287 118.584 43.9292 118.56 44.0203 118.32C44.0749 118.174 44.0718 117.994 44.0567 117.833C43.9656 116.871 43.829 115.915 43.7744 114.954C43.6682 113.091 43.5923 111.229 43.5255 109.366C43.483 108.21 43.4618 107.054 43.4587 105.897C43.4587 105.313 43.5377 104.732 43.8199 104.205C43.829 104.19 46.0265 101.36 42.017 100.973L42.011 100.961Z" fill="#999999"/>
<path d="M156.391 95.0524C155.929 95.0067 155.48 95.235 155.019 95.2958C154.57 95.3537 154.111 95.378 153.659 95.4054C153.255 95.4297 152.849 95.4632 152.445 95.4541C151.911 95.445 151.386 95.308 150.845 95.4663C150.469 95.5758 150.068 95.6093 149.689 95.6762C149.604 96.0475 149.343 96.1905 149.015 96.0627C148.703 95.938 148.387 95.8527 148.044 95.9319C147.983 95.9471 147.913 95.9288 147.85 95.9167C147.388 95.8284 146.939 96.0901 146.894 96.5588C146.857 96.9148 146.663 97.1279 146.444 97.353C146.281 97.5235 146.302 97.6604 146.502 97.7974C146.678 97.9191 146.869 98.0256 147.015 98.1778C147.646 98.8442 148.171 99.5746 148.253 100.533C148.338 101.519 148.426 102.505 148.487 103.494C148.545 104.462 148.569 105.433 148.612 106.401C148.672 107.773 148.739 109.146 148.791 110.518C148.821 111.276 148.806 112.034 148.848 112.788C148.885 113.446 148.979 114.097 149.027 114.751C149.049 115.007 149 115.268 149.021 115.521C149.037 115.695 149.118 115.883 149.331 115.886C149.534 115.886 149.619 115.713 149.671 115.536C149.686 115.481 149.695 115.421 149.689 115.363C149.644 114.967 149.586 114.572 149.546 114.176C149.483 113.549 149.407 112.919 149.376 112.289C149.346 111.674 149.376 111.057 149.361 110.442C149.343 109.757 149.288 109.076 149.27 108.394C149.255 107.828 149.282 107.262 149.261 106.699C149.237 106.099 149.155 105.5 149.143 104.9C149.112 103.668 149.088 102.438 149.106 101.206C149.115 100.57 149.219 99.9367 149.294 99.3007C149.307 99.2125 149.404 99.0633 149.461 99.0633C149.58 99.0633 149.747 99.1181 149.801 99.2064C149.935 99.4194 150.084 99.6598 150.111 99.9033C150.208 100.78 150.272 101.659 150.323 102.542C150.375 103.446 150.393 104.352 150.43 105.259C150.43 105.332 150.436 105.43 150.478 105.472C150.56 105.551 150.675 105.646 150.773 105.64C150.852 105.637 150.961 105.512 150.994 105.418C151.037 105.299 151.028 105.156 151.018 105.022C150.976 104.352 150.903 103.683 150.882 103.013C150.852 102.073 150.848 101.13 150.855 100.189C150.855 99.952 150.906 99.7085 150.979 99.4833C151.009 99.389 151.146 99.2824 151.246 99.2733C151.328 99.2642 151.453 99.3677 151.507 99.4529C151.698 99.7541 151.774 100.092 151.786 100.448C151.802 100.947 151.82 101.443 151.856 101.942C151.905 102.621 151.984 103.299 152.026 103.978C152.06 104.492 152.047 105.01 152.069 105.524C152.093 106.044 152.138 106.568 152.175 107.088C152.178 107.146 152.181 107.204 152.193 107.259C152.266 107.587 152.415 107.749 152.6 107.7C152.791 107.654 152.864 107.411 152.815 107.104C152.749 106.687 152.676 106.267 152.651 105.844C152.582 104.608 152.524 103.373 152.484 102.137C152.46 101.416 152.472 100.691 152.491 99.9702C152.494 99.8089 152.569 99.6324 152.661 99.4924C152.755 99.3464 152.973 99.3646 153.028 99.5137C153.164 99.8759 153.337 100.241 153.383 100.621C153.474 101.416 153.48 102.219 153.541 103.016C153.58 103.555 153.668 104.091 153.699 104.632C153.747 105.463 153.768 106.297 153.796 107.128C153.823 107.968 153.853 108.808 153.872 109.651C153.887 110.338 153.859 111.032 153.902 111.717C153.95 112.496 154.075 113.272 154.139 114.051C154.172 114.471 154.157 114.897 154.136 115.317C154.117 115.655 154.108 115.968 154.415 116.194L154.615 116.184C154.858 116.02 154.888 115.792 154.822 115.527C154.785 115.384 154.764 115.235 154.749 115.089C154.697 114.517 154.652 113.945 154.609 113.373C154.539 112.429 154.448 111.483 154.409 110.539C154.363 109.468 154.369 108.394 154.342 107.32C154.327 106.665 154.284 106.008 154.26 105.354C154.245 104.879 154.242 104.404 154.227 103.929C154.199 102.989 154.151 102.049 154.151 101.108C154.151 100.746 154.069 100.351 154.357 100.031C154.788 99.5563 155.198 99.0664 155.644 98.6069C155.975 98.266 156.527 98.3421 156.734 98.759C156.885 99.0664 157.031 99.4072 157.058 99.742C157.195 101.358 157.298 102.977 157.395 104.599C157.45 105.536 157.456 106.477 157.514 107.414C157.59 108.616 157.708 109.818 157.79 111.02C157.808 111.297 157.744 111.58 157.757 111.86C157.766 112.061 157.805 112.274 157.893 112.45C158.009 112.676 158.309 112.651 158.4 112.411C158.455 112.265 158.452 112.085 158.436 111.924C158.345 110.962 158.209 110.007 158.154 109.045C158.048 107.183 157.972 105.32 157.905 103.458C157.863 102.301 157.842 101.145 157.839 99.9885C157.839 99.4042 157.917 98.8229 158.2 98.2964C158.209 98.2812 160.406 95.451 156.397 95.0645L156.391 95.0524Z" fill="#999999"/>
<path d="M98.937 90.3272C98.8065 90.3272 98.679 90.3332 98.5485 90.3332C98.3634 90.3332 98.1813 90.3941 97.9931 90.2876C97.9202 90.245 97.7958 90.2876 97.6926 90.2937C97.6683 90.2937 97.644 90.3119 97.6198 90.3059C97.5166 90.2876 97.4103 90.2633 97.3071 90.2389C97.3071 90.2572 97.3071 90.2724 97.3041 90.2906C97.3405 90.3028 97.3739 90.3119 97.4103 90.3241C96.9217 90.4032 96.4542 90.3819 96.0384 90.0259L96.0445 90.172C95.9352 90.2176 95.8442 90.2572 95.7531 90.2967C95.7349 90.2846 95.6924 90.2359 95.6469 90.2328C95.5467 90.2298 95.4435 90.2237 95.3434 90.2206L95.4739 92.777C95.7137 92.8256 95.8138 93.0326 95.917 93.2334C96.2478 93.8847 96.2752 94.5968 96.3146 95.3028C96.3753 96.4288 96.4117 97.5578 96.4664 98.6838C96.4907 99.1768 96.5514 99.6668 96.5696 100.16C96.609 101.268 96.6242 102.375 96.6697 103.48C96.688 103.946 96.7669 104.411 96.8063 104.877C96.8245 105.096 96.7881 105.318 96.8215 105.534C96.8367 105.638 96.9429 105.771 97.037 105.811C97.1857 105.872 97.3011 105.759 97.3405 105.61C97.3709 105.488 97.3921 105.355 97.3769 105.23C97.3527 105.047 97.2646 104.871 97.2495 104.691C97.1857 103.912 97.1281 103.13 97.0886 102.348C97.0552 101.639 97.0522 100.93 97.0279 100.224C97.0157 99.8463 96.9854 99.472 96.9733 99.0977C96.9338 97.7709 96.9004 96.441 96.8579 95.1141C96.8367 94.5146 96.8276 93.9182 97.0431 93.343C97.1311 93.1087 97.3344 93.0447 97.5317 93.2C97.6228 93.273 97.7138 93.3826 97.7472 93.4921C97.8231 93.7477 97.8899 94.0094 97.9172 94.2742C97.9658 94.7337 97.9779 95.1933 98.0113 95.6558C98.0872 96.6997 98.3118 98.4282 98.2116 98.8177C98.1843 98.9212 98.2329 99.046 98.2663 99.1555C98.3178 99.3199 98.4271 99.4355 98.6153 99.4081C98.7458 99.3899 98.846 99.1799 98.8217 99.0003C98.8186 98.9729 98.8035 98.9486 98.8004 98.9212C98.7215 98.2517 98.6244 97.5822 98.5728 96.9127C98.5273 96.3253 98.5698 95.7867 98.5425 94.7124C98.5333 94.3716 98.5637 94.0247 98.6032 93.6869C98.6244 93.5073 98.6578 93.3065 98.764 93.1574C99.5774 92.0222 98.934 90.3272 98.934 90.3272H98.937Z" fill="#999999"/>
<path d="M216.722 90.7561C216.591 90.7561 216.464 90.7622 216.333 90.7622C216.148 90.7622 215.966 90.8231 215.778 90.7165C215.705 90.6739 215.58 90.7165 215.477 90.7226C215.453 90.7226 215.429 90.7409 215.404 90.7348C215.301 90.7165 215.195 90.6922 215.092 90.6679C215.092 90.6861 215.092 90.7013 215.089 90.7196C215.125 90.7318 215.159 90.7409 215.195 90.7531C214.706 90.8322 214.239 90.8109 213.823 90.4548L213.829 90.6009C213.72 90.6466 213.629 90.6861 213.538 90.7257C213.52 90.7135 213.477 90.6648 213.432 90.6618C213.331 90.6587 213.228 90.6526 213.128 90.6496L213.259 93.2059C213.498 93.2546 213.598 93.4615 213.702 93.6624C214.032 94.3136 214.06 95.0257 214.099 95.7318C214.16 96.8578 214.196 97.9868 214.251 99.1128C214.275 99.6058 214.336 100.096 214.354 100.589C214.394 101.696 214.409 102.804 214.454 103.909C214.473 104.375 214.552 104.84 214.591 105.306C214.609 105.525 214.573 105.747 214.606 105.963C214.621 106.067 214.728 106.2 214.822 106.24C214.97 106.301 215.086 106.188 215.125 106.039C215.156 105.917 215.177 105.784 215.162 105.659C215.137 105.476 215.049 105.3 215.034 105.12C214.97 104.341 214.913 103.559 214.873 102.777C214.84 102.068 214.837 101.359 214.813 100.653C214.8 100.275 214.77 99.901 214.758 99.5267C214.718 98.1998 214.685 96.8699 214.643 95.5431C214.621 94.9436 214.612 94.3471 214.828 93.7719C214.916 93.5376 215.119 93.4737 215.316 93.6289C215.407 93.7019 215.498 93.8115 215.532 93.9211C215.608 94.1767 215.675 94.4384 215.702 94.7032C215.75 95.1627 215.763 95.6222 215.796 96.0848C215.872 97.1286 216.096 98.8572 215.996 99.2467C215.969 99.3502 216.018 99.4749 216.051 99.5845C216.102 99.7488 216.212 99.8645 216.4 99.8371C216.53 99.8188 216.631 99.6088 216.606 99.4293C216.603 99.4019 216.588 99.3775 216.585 99.3502C216.506 98.6806 216.409 98.0111 216.357 97.3416C216.312 96.7543 216.354 96.2156 216.327 95.1414C216.318 94.8005 216.348 94.4536 216.388 94.1158C216.409 93.9363 216.442 93.7354 216.549 93.5863C217.362 92.4512 216.719 90.7561 216.719 90.7561H216.722Z" fill="#999999"/>
<path d="M255.686 94.2345C255.225 94.1889 254.776 94.4171 254.315 94.478C253.865 94.5358 253.407 94.5601 252.955 94.5875C252.551 94.6119 252.144 94.6453 251.741 94.6362C251.207 94.6271 250.681 94.4901 250.141 94.6484C249.765 94.7579 249.364 94.7914 248.985 94.8584C248.9 95.2296 248.639 95.3727 248.311 95.2449C247.998 95.1201 247.683 95.0349 247.34 95.114C247.279 95.1292 247.209 95.111 247.146 95.0988C246.684 95.0105 246.235 95.2722 246.189 95.7409C246.153 96.097 245.959 96.31 245.74 96.5352C245.576 96.7056 245.598 96.8425 245.798 96.9795C245.974 97.1012 246.165 97.2077 246.311 97.3599C246.942 98.0264 247.467 98.7567 247.549 99.7153C247.634 100.701 247.722 101.687 247.783 102.676C247.841 103.644 247.865 104.615 247.907 105.583C247.968 106.955 248.035 108.328 248.086 109.7C248.117 110.458 248.102 111.216 248.144 111.97C248.18 112.628 248.275 113.279 248.323 113.933C248.344 114.189 248.296 114.451 248.317 114.703C248.332 114.877 248.414 115.065 248.627 115.068C248.83 115.068 248.915 114.895 248.967 114.718C248.982 114.664 248.991 114.603 248.985 114.545C248.939 114.149 248.882 113.754 248.842 113.358C248.778 112.731 248.703 112.101 248.672 111.471C248.642 110.857 248.672 110.239 248.657 109.624C248.639 108.939 248.584 108.258 248.566 107.576C248.551 107.01 248.578 106.444 248.557 105.881C248.533 105.281 248.451 104.682 248.438 104.082C248.408 102.85 248.384 101.62 248.402 100.388C248.411 99.7519 248.514 99.1189 248.59 98.4828C248.602 98.3946 248.7 98.2455 248.757 98.2455C248.876 98.2455 249.042 98.3002 249.097 98.3885C249.231 98.6015 249.379 98.8419 249.407 99.0854C249.504 99.9618 249.568 100.841 249.619 101.724C249.671 102.628 249.689 103.535 249.725 104.441C249.725 104.514 249.731 104.612 249.774 104.654C249.856 104.734 249.971 104.828 250.068 104.822C250.147 104.819 250.257 104.694 250.29 104.6C250.332 104.481 250.323 104.338 250.314 104.204C250.272 103.535 250.199 102.865 250.178 102.196C250.147 101.255 250.144 100.312 250.15 99.3715C250.15 99.1341 250.202 98.8906 250.275 98.6654C250.305 98.5711 250.442 98.4646 250.542 98.4554C250.624 98.4463 250.748 98.5498 250.803 98.635C250.994 98.9363 251.07 99.2741 251.082 99.6301C251.097 100.129 251.116 100.625 251.152 101.124C251.2 101.803 251.279 102.482 251.322 103.16C251.355 103.675 251.343 104.192 251.364 104.706C251.389 105.227 251.434 105.75 251.471 106.27C251.474 106.328 251.477 106.386 251.489 106.441C251.562 106.77 251.71 106.931 251.896 106.882C252.087 106.836 252.16 106.593 252.111 106.286C252.044 105.869 251.971 105.449 251.947 105.026C251.877 103.79 251.82 102.555 251.78 101.319C251.756 100.598 251.768 99.8736 251.786 99.1523C251.789 98.9911 251.865 98.8145 251.956 98.6746C252.05 98.5285 252.269 98.5467 252.324 98.6959C252.46 99.058 252.633 99.4232 252.679 99.8036C252.77 100.598 252.776 101.401 252.836 102.199C252.876 102.737 252.964 103.273 252.994 103.815C253.043 104.645 253.064 105.479 253.091 106.31C253.119 107.15 253.149 107.99 253.167 108.833C253.182 109.521 253.155 110.214 253.198 110.899C253.246 111.678 253.371 112.454 253.434 113.233C253.468 113.653 253.453 114.079 253.431 114.499C253.413 114.837 253.404 115.151 253.711 115.376L253.911 115.367C254.154 115.202 254.184 114.974 254.117 114.709C254.081 114.566 254.06 114.417 254.044 114.271C253.993 113.699 253.947 113.127 253.905 112.555C253.835 111.611 253.744 110.665 253.705 109.721C253.659 108.65 253.665 107.576 253.638 106.502C253.623 105.847 253.58 105.19 253.556 104.536C253.541 104.061 253.538 103.586 253.522 103.112C253.495 102.171 253.447 101.231 253.447 100.291C253.447 99.9284 253.365 99.5327 253.653 99.2132C254.084 98.7385 254.494 98.2485 254.94 97.789C255.271 97.4481 255.823 97.5242 256.029 97.9411C256.181 98.2485 256.327 98.5894 256.354 98.9241C256.491 100.54 256.594 102.159 256.691 103.781C256.746 104.718 256.752 105.659 256.81 106.596C256.885 107.798 257.004 109 257.086 110.202C257.104 110.479 257.04 110.762 257.052 111.042C257.061 111.243 257.101 111.456 257.189 111.633C257.304 111.858 257.605 111.833 257.696 111.593C257.75 111.447 257.747 111.267 257.732 111.106C257.641 110.144 257.505 109.189 257.45 108.227C257.344 106.365 257.268 104.502 257.201 102.64C257.159 101.483 257.137 100.327 257.134 99.1706C257.134 98.5863 257.213 98.0051 257.495 97.4786C257.505 97.4634 259.702 94.6332 255.693 94.2467L255.686 94.2345Z" fill="#999999"/>
<path d="M293.709 77.2822C290.052 60.085 275.829 24.8232 258.765 25.7057C249.693 26.1744 247.401 29.4489 241.459 35.1488C241.459 35.1488 244.873 28.1464 236.326 25.4349C227.776 22.7234 204.317 24.8536 204.317 24.8536C204.317 24.8536 209.213 5.21269 187.994 2.26685C184.895 1.83776 165.71 1.10434 160.847 24.1902C160.847 24.1902 141.082 20.0362 135.494 30.4197C135.494 30.4197 129.506 24.1324 120.932 27.559C112.354 30.9857 111.535 36.1896 111.535 36.1896C111.535 36.1896 111.447 31.147 109.073 28.402C106.7 25.657 93.9943 24.881 86.3214 28.9468C86.3214 28.9468 84.7006 29.738 85.1407 33.539C85.1407 33.539 80.8337 26.5335 70.2167 28.116C59.5996 29.6984 58.1731 37.5438 58.1731 37.5438C57.8453 31.1926 48.9856 22.4464 26.8713 31.2474C4.75389 40.0484 -3.83871 56.497 6.43234 81.001C16.7034 105.508 48.8703 108.591 73.0698 93.5573C73.0698 93.5573 88.0939 103.706 99.0236 87.6535C99.0236 87.6535 106.648 92.4222 111.343 96.911C116.036 101.4 121.687 112.809 135.686 96.3388C135.686 96.3388 139.249 96.6705 143.768 93.8556C143.768 93.8556 142.296 98.0613 159.84 95.435C159.84 95.435 162.037 94.805 163.111 92.34C163.111 92.34 164.508 91.1501 165.527 94.2786C166.547 97.41 172.08 111.579 178.931 102.921C178.931 102.921 181.99 99.0199 183.529 93.3199C183.529 93.3199 187.587 94.3425 194.31 91.5853C194.31 91.5853 195.882 95.4624 209.425 91.8349C222.968 88.2104 230.532 95.2311 233.173 96.3723C240.15 99.3881 245.765 95.5263 245.765 95.5263C245.765 95.5263 249.745 96.138 253.326 95.6724C257.475 95.1337 261.157 94.0351 261.157 94.0351C261.157 94.0351 263.779 104.279 268.174 102.818C279.577 99.029 289.281 86.9688 292.917 81.9748C293.903 80.6176 294.064 78.9164 293.715 77.2731L293.709 77.2822ZM40.9879 68.8464C35.9707 69.8537 35.3667 62.1878 35.3091 61.0527C35.1452 57.8634 36.7568 55.9523 37.1029 57.5621C37.376 58.8312 36.1073 64.0381 38.8633 65.3862C39.5765 65.7362 41.3218 65.1337 42.0229 65.1093C44.1081 65.0302 44.533 68.1373 40.9848 68.8494L40.9879 68.8464ZM137.847 66.4879C137.255 66.9535 135.931 65.7362 134.89 63.7703C133.849 61.8044 133.482 59.8354 134.074 59.3698C134.666 58.9042 135.989 60.1215 137.03 62.0874C138.071 64.0533 138.438 66.0223 137.847 66.4879ZM85.2499 69.4094C84.6277 69.8993 83.2315 68.6151 82.1328 66.5427C81.0341 64.4702 80.6486 62.3917 81.2708 61.9018C81.893 61.4118 83.2892 62.696 84.3879 64.7685C85.4867 66.8409 85.8721 68.9194 85.2499 69.4094ZM157.636 57.9973L156.589 51.0101C156.568 50.867 156.695 50.7423 156.838 50.7666C163.242 51.9383 159.196 56.8257 158 58.1099C157.879 58.2408 157.663 58.1708 157.636 57.9943V57.9973ZM211.82 55.1428C209.598 56.3509 209.362 53.116 210.227 52.2913C211.738 50.8488 216.828 50.4775 219.144 50.3832C219.447 50.371 219.563 50.7758 219.299 50.9279C217.356 52.0356 213.171 54.4094 211.82 55.1458V55.1428ZM261.503 54.948C261.266 55.8153 259.032 56.9383 258.316 56.2079C257.542 55.4227 258.155 51.3966 259.12 50.9401C260.085 50.4866 261.782 53.9377 261.503 54.945V54.948Z" fill="#E5E5E5"/>
<path d="M271.511 35.4892C263.871 25.4161 254.159 29.0437 254.159 29.0437C244.431 33.365 241.778 44.2384 241.979 55.4223C237.128 55.5988 226.702 56.8587 225.34 64.3785C225.34 64.3785 225.416 68.1034 228.341 70.474C228.341 70.474 219.834 65.2367 214.495 67.1174C214.495 67.1174 233.626 53.0668 238.324 41.0066C239.654 37.5951 240.382 29.2841 233.841 28.3742C225.85 27.2664 207.551 27.1538 200.703 28.5659C202.057 25.9457 202.752 22.939 202.564 19.7771C202.03 10.7448 194.369 3.64801 185.348 3.83973C175.587 4.04667 168.039 12.449 168.855 22.2086C169.577 30.8452 176.819 37.6225 185.463 37.726C189.931 37.7777 193.968 36.1131 197 33.3742C196.618 36.0461 196.627 39.628 196.927 43.2494C196.481 42.2877 195.804 41.4965 194.791 40.9761C190.906 38.9828 183.038 42.3364 179.669 43.9615C176.488 34.6158 163.067 25.1514 149.645 25.8452C140.173 26.3352 139.423 30.4192 140.109 35.5683C139.82 35.2914 139.532 35.0266 139.238 34.771C114.431 13.1824 113.433 52.5586 113.433 52.5586C113.445 54.2719 113.53 55.9031 113.672 57.4582C110.285 58.6024 110.243 60.1362 110.036 61.5787C109.699 63.9281 116.179 71.4205 117.621 73.0547C115.463 70.9609 106.534 68.0577 106.534 68.0577L105.738 62.5921C105.738 62.5921 112.161 45.4588 109.46 34.5519C106.482 22.5312 88.0372 30.5835 86.9172 31.7156C86.1554 32.4855 87.2055 36.9956 87.9613 39.8227C86.8292 38.5202 85.6576 37.3547 84.4526 36.3626C59.9891 16.2043 60.0437 54.1746 60.0437 54.1746C52.0521 55.4801 42.1422 61.1009 46.1729 64.0407C49.1079 66.18 54.1646 72.0291 44.1697 72.376C34.1748 72.7199 29.9529 58.4838 35.392 51.8921C40.831 45.3005 42.0026 51.3778 42.215 55.4984C42.4123 59.3602 54.2617 51.6761 55.3574 47.303C59.9071 29.1776 41.8842 26.8343 25.2484 34.8653C-4.27787 49.1198 20.4073 110.888 70.0082 86.4692C71.3558 85.8058 72.4394 84.9476 73.2983 83.9646L73.3044 83.9677C87.3907 90.9549 95.179 89.0651 98.5966 83.0182C104.439 82.2452 111.879 84.3998 116.698 91.0523C123.488 100.422 132.348 93.3408 132.348 93.3408C134.478 91.6731 136.014 90.2641 137.077 89.0042C142.324 90.5867 146.225 90.0176 148.981 87.9695C149.503 89.9537 151.263 90.7266 151.263 90.7266C163.319 91.9105 164.29 87.0413 163.647 84.5794C163.006 82.1143 159.762 70.7571 159.762 70.7571C164.323 69.345 174.667 92.1022 177.651 98.922C177.945 99.5946 178.907 99.555 179.144 98.8612C180.204 95.7784 182.352 89.5215 184.419 83.4534C188.599 90.9275 196.19 87.8965 200.585 83.642C201.583 85.2975 202.831 86.3109 204.424 86.0553C209.702 85.2093 222.101 78.2008 234.117 86.6122C241.599 91.8496 246.914 90.5197 249.858 88.7668C252.838 89.8198 258.505 88.4868 261.562 87.9756C265.532 87.3122 264.788 82.0443 261.067 74.205C257.346 66.3657 258.933 63.5598 263.067 63.3468C272.255 62.8721 266.715 90.3462 270.807 96.4449C274.164 101.451 285.846 86.8739 289.919 81.4935C290.918 80.1758 291.428 78.4929 291.1 76.8709C287.998 61.457 278.713 44.9993 271.502 35.4953L271.511 35.4892ZM86.7412 71.0522C84.5012 72.0839 80.6374 68.4442 78.1091 62.9238C75.5808 57.4034 75.3471 52.093 77.5871 51.0613C79.827 50.0297 83.6908 53.6694 86.2191 59.1898C88.7474 64.7102 88.9811 70.0206 86.7412 71.0522ZM140.57 69.3785C138.221 70.3858 134.315 66.5026 131.847 60.7083C129.379 54.9141 129.285 49.3997 131.635 48.3955C133.984 47.3882 137.89 51.2713 140.358 57.0656C142.825 62.8599 142.919 68.3742 140.57 69.3785ZM156.908 59.1867L154.547 43.4472C154.474 42.9603 154.905 42.5464 155.385 42.6377C169.559 45.3949 161.246 56.1192 158.141 59.558C157.737 60.0054 157 59.7802 156.908 59.1837V59.1867ZM166.891 65.2519C171.271 64.2233 174.267 62.3121 176.303 60.0571C176.631 63.6694 177.405 67.0565 178.334 70.0419C173.062 67.0048 166.891 65.2519 166.891 65.2519ZM198.925 64.8045C198.251 62.7382 197.653 60.2579 197.252 57.163C196.982 55.0967 197.51 52.0291 197.659 49.0772C198.606 54.5793 200.169 58.9098 201.917 58.3072C206.245 56.8222 209.035 56.3839 208.434 52.6347C207.338 45.7996 212.677 46.1405 224.569 44.908C236.461 43.6755 208.768 58.0364 208.768 58.0364C208.768 58.0364 202.588 61.3474 198.925 64.8045ZM266.093 53.7363C265.48 56.0279 259.716 58.9889 257.859 57.0565C255.861 54.978 257.428 44.3389 259.92 43.1429C262.411 41.9469 266.803 51.0705 266.093 53.7363Z" fill="#999999"/>
<path d="M135.427 92.8925L134.383 91.7878C139.974 86.4652 137.886 82.3386 136.502 79.6088C136.283 79.1797 136.098 78.8115 135.958 78.4676C135.879 78.2759 135.561 77.5486 135.118 76.5413C133.354 72.5364 129.226 63.1542 127.766 58.8997C126.492 55.184 122.103 55.8778 115.025 57.4633C114.111 57.6672 113.17 57.8803 112.229 58.075L111.923 56.5838C112.852 56.3921 113.786 56.1821 114.694 55.9782C121.226 54.5145 127.396 53.1328 129.202 58.4037C130.641 62.5972 134.75 71.9369 136.508 75.9265C136.972 76.9825 137.279 77.6794 137.367 77.8894C137.482 78.1724 137.655 78.5163 137.858 78.915C139.252 81.663 141.844 86.7817 135.43 92.8864L135.427 92.8925Z" fill="#E5E5E5"/>
<path d="M99.4636 84.6879L98.1463 83.9332C101.476 78.0811 103.813 67.8741 96.0551 52.4876C91.3718 43.1997 85.1649 36.386 85.1011 36.319L86.2181 35.2874C86.2818 35.3573 92.6314 42.3263 97.4088 51.7999C103.792 64.4536 104.502 75.8261 99.4667 84.6849L99.4636 84.6879Z" fill="#E5E5E5"/>
<path d="M149.268 90.0608L148.051 89.1508C155.587 79.0139 154.003 66.3389 151.344 57.4922C148.063 46.5671 141.704 36.7314 136.86 31.8288L137.937 30.7576C142.551 35.4259 149.213 45.1124 152.798 57.054C155.554 66.2354 157.18 79.4156 149.268 90.0608Z" fill="#E5E5E5"/>
<path d="M74.4547 84.948L73.1556 84.1628C77.1499 77.5286 74.5639 66.1135 69.6439 59.6101C67.7044 57.0477 63.6767 52.9668 58.4805 54.4123L58.0738 52.9455C62.5659 51.6978 67.1035 53.7367 70.8519 58.6911C73.5441 62.2486 75.5261 67.0264 76.291 71.8013C77.1135 76.9443 76.4609 81.6156 74.4547 84.948Z" fill="#E5E5E5"/>
<path d="M171.737 65.2449L171.1 63.8633C171.13 63.848 174.084 62.4421 176.56 59.1037C179.869 54.6453 180.81 49.0184 179.356 42.3842L180.837 42.0586C182.782 50.9235 180.221 56.7513 177.732 60.0775C175.025 63.6959 171.871 65.184 171.737 65.2449Z" fill="#E5E5E5"/>
<path d="M185.135 87.9918L183.687 87.5322C183.717 87.4318 186.734 77.5474 180.864 72.0088C179.705 70.9163 178.536 70.1981 177.598 69.6229C177.349 69.4707 177.116 69.3277 176.906 69.1908L177.729 67.9126C177.929 68.0435 178.154 68.1774 178.39 68.3265C179.389 68.9382 180.63 69.702 181.905 70.901C184.64 73.4786 186.06 77.2644 186.018 81.8414C185.988 85.2498 185.168 87.8792 185.135 87.9887V87.9918Z" fill="#E5E5E5"/>
<path d="M200.502 85.7808L199.549 84.597C205.643 79.6701 202.557 73.5258 199.573 67.5824C197.876 64.2075 196.277 61.0182 196.693 58.3554C198.623 46.0273 197.02 42.2689 195.891 41.1277C195.315 40.5434 194.802 40.6104 194.783 40.6134L194.489 39.1222C194.617 39.0948 195.746 38.894 196.878 39.9682C199.321 42.2902 199.761 48.5562 198.189 58.5927C197.849 60.7717 199.342 63.7479 200.924 66.8977C203.874 72.7711 207.546 80.0809 200.499 85.7808H200.502Z" fill="#E5E5E5"/>
<path d="M194.891 37.0657L194.05 35.7997C194.111 35.7602 200.193 31.6244 202.348 24.8594L203.793 25.3219C201.474 32.6074 195.161 36.8892 194.891 37.0657Z" fill="#E5E5E5"/>
<path d="M250.057 90.4454L249.234 89.1673C252.139 87.2896 253.714 85.4972 254.054 83.6895C254.512 81.2397 252.706 78.7382 250.618 75.841C248.257 72.5665 245.577 68.8568 245.331 64.079C245.061 58.8021 243.674 56.7235 242.557 55.911C241.47 55.1167 240.447 55.3784 240.405 55.3906L239.986 53.9268C240.056 53.9055 241.71 53.4399 243.403 54.645C245.443 56.0966 246.599 59.2433 246.845 63.9968C247.067 68.3273 249.607 71.8422 251.844 74.9463C254.045 77.9956 256.124 80.8745 255.544 83.9695C255.125 86.2093 253.328 88.3274 250.057 90.4424V90.4454Z" fill="#E5E5E5"/>
<path d="M164.711 31.4331C168.25 32.6838 169.728 34.242 170.411 36.1288C171.507 39.1446 167.155 35.864 164.207 33.7368C162.887 32.7843 162.59 30.6814 164.711 31.4331Z" fill="#999999"/>
<path d="M105.659 32.1002C107.896 35.1191 108.251 37.2402 107.769 39.1879C106.995 42.3042 105.216 37.1429 103.956 33.7284C103.392 32.1976 104.318 30.2895 105.659 32.1002Z" fill="#999999"/>
<path d="M194.331 8.72695C197.575 10.6137 198.741 12.4214 199.066 14.3995C199.585 17.5675 195.915 13.5322 193.411 10.8968C192.288 9.716 192.385 7.59488 194.334 8.72695H194.331Z" fill="#999999"/>
<path d="M133.783 32.7103C137.061 34.5362 138.257 36.3256 138.618 38.2976C139.191 41.4565 135.452 37.4881 132.902 34.8953C131.761 33.7358 131.819 31.6117 133.786 32.7072L133.783 32.7103Z" fill="#999999"/>
<path d="M80.2533 35.484C83.5313 37.3099 84.7272 39.0993 85.0884 41.0713C85.662 44.2302 81.9227 40.2618 79.3731 37.669C78.2319 36.5095 78.2896 34.3854 80.2564 35.4809L80.2533 35.484Z" fill="#999999"/>
<path d="M51.0144 34.961C53.5821 37.7029 54.1801 39.7693 53.9221 41.7595C53.5093 44.9428 51.151 40.0219 49.5089 36.7748C48.7744 35.3201 49.4725 33.3146 51.0144 34.961Z" fill="#999999"/>
<path d="M236.619 32.2647C237.906 35.7979 237.645 37.9343 236.628 39.6628C235.001 42.4291 234.761 36.9726 234.521 33.342C234.415 31.7139 235.845 30.1467 236.616 32.2678L236.619 32.2647Z" fill="#999999"/>
<path d="M263.406 32.2074C266.809 33.7929 268.129 35.488 268.63 37.4296C269.431 40.5367 265.412 36.8514 262.684 34.4533C261.461 33.3791 261.367 31.2579 263.406 32.2074Z" fill="#999999"/>
</g>
<defs>
<clipPath id="clip0_2915_3110">
<rect width="296" height="122.1" fill="white"/>
</clipPath>
</defs>
</svg>
