<svg width="149" height="62" viewBox="0 0 149 62" fill="none" xmlns="http://www.w3.org/2000/svg">
<g clip-path="url(#clip0_2915_3110)">
<path d="M134.683 52.9013C134.232 52.9242 133.79 52.8201 133.372 52.5903C132.039 51.8611 131.175 49.9064 130.738 48.6395C129.948 48.8326 128.843 49.0715 127.653 49.2263C127.376 49.2615 127.08 49.2891 126.773 49.3044C125.621 49.3641 124.538 49.2707 123.939 49.2002C123.312 49.5449 122.104 50.078 120.529 50.1592C119.313 50.222 118.107 49.9999 116.949 49.4989C116.659 49.3733 116.342 49.1788 115.942 48.9337C114.526 48.0651 112.156 46.6129 108.572 46.7982C107.643 46.8457 106.676 47.0035 105.695 47.267C103.956 47.7327 102.433 48.0023 101.168 48.0666C100.254 48.1141 99.4582 48.0559 98.8012 47.892C98.3062 47.7694 97.8845 47.5887 97.5468 47.3528C96.2848 47.8077 95.0641 48.0681 93.9151 48.1279C93.6508 48.1417 93.3941 48.1447 93.1482 48.1356C92.2849 50.7045 90.9649 52.4003 90.9083 52.4739C90.0069 53.6136 89.026 54.2187 87.9917 54.2708C87.7656 54.283 87.5349 54.2677 87.3072 54.2263C84.5433 53.7285 82.8367 49.3442 82.3784 48.0084C81.6649 48.7912 80.8566 49.0424 80.7528 49.0731L80.7329 49.0777L80.6259 49.1006H80.6168C79.1378 49.3243 77.8254 49.4652 76.7162 49.5219C73.6406 49.6812 72.4948 49.1726 71.9463 48.7024C70.5605 49.3703 69.3963 49.5311 68.7928 49.5663C66.3269 52.3728 64.1038 53.7898 62 53.8985C61.9343 53.9016 61.8671 53.9047 61.8014 53.9047C59.2392 53.9322 57.5799 52.0664 56.2461 50.5651C55.9131 50.1898 55.5983 49.836 55.3096 49.5602C53.6931 48.0145 51.2867 46.354 50.1134 45.5742C48.0615 48.1938 45.5589 49.5985 42.6682 49.7471C42.167 49.7731 41.6537 49.7594 41.1419 49.7057C39.2061 49.5051 37.637 48.8004 36.7906 48.3424C33.3071 50.4104 29.4172 51.8197 25.5319 52.4233C24.5617 52.5734 23.5823 52.6745 22.6183 52.7251C19.5045 52.8859 16.5527 52.5275 13.8439 51.6604C8.40167 49.9171 4.3926 46.2973 2.25209 41.1884C-0.339132 35.0073 -0.696648 29.5874 1.19177 25.0806C3.05879 20.6228 7.0755 17.1408 13.1303 14.7312C15.1135 13.9422 18.1096 12.9679 21.1164 12.8117C23.6603 12.68 25.7916 13.1564 27.4554 14.2256C28.2682 14.748 28.9481 15.4174 29.4462 16.1757C30.395 14.9472 32.1215 13.547 35.1863 13.0905C35.5729 13.0338 35.9579 12.994 36.3307 12.9741C39.0288 12.8347 40.9081 13.7186 42.0815 14.5841C42.3733 13.9759 42.7782 13.7094 42.9585 13.6159C44.5963 12.7489 46.7903 12.2035 49.134 12.0825C52.2004 11.9232 54.7825 12.516 55.7114 13.5914C56.101 14.0433 56.4234 14.6163 56.6709 15.2995C57.6197 14.3191 58.8969 13.5041 60.4752 12.873C61.34 12.5283 62.217 12.3307 63.0832 12.2847C65.2956 12.1698 67.0235 13.0767 67.9754 13.7385C69.491 11.9079 72.0165 10.8876 75.4878 10.7084C77.3869 10.6104 79.1378 10.7973 80.1538 10.9459C81.6817 5.07872 85.0811 2.43008 87.6861 1.2398C89.6479 0.34211 91.518 0.078625 92.7418 0.0158175C93.8296 -0.0408625 94.5752 0.0464553 94.7768 0.0740293C98.3489 0.570362 100.96 2.00727 102.535 4.34494C104.199 6.81435 104.265 9.65141 104.109 11.3288C104.752 11.2813 105.635 11.2231 106.65 11.171C110.856 10.9535 116.462 10.8815 119.282 11.7777C120.967 12.3123 122.093 13.2161 122.626 14.4646C122.697 14.6301 122.756 14.8016 122.805 14.9778C124.636 13.2667 126.391 12.0641 130.2 11.8665C134.386 11.6505 138.643 15.1463 142.511 21.977C145.856 27.884 148.039 34.6656 148.892 38.6777C149.148 39.8863 148.94 41.0306 148.308 41.9008C146.413 44.5034 141.355 50.775 135.324 52.7787C135.113 52.8492 134.897 52.8905 134.681 52.9013H134.683Z" fill="#999999"/>
<path d="M21.1474 50.8216C20.9152 50.7986 20.6891 50.9135 20.4568 50.9442C20.2307 50.9733 20 50.9855 19.7723 50.9993C19.5691 51.0116 19.3644 51.0284 19.1612 51.0238C18.8923 51.0192 18.628 50.9503 18.356 51.03C18.1666 51.0851 17.9649 51.102 17.7739 51.1357C17.7311 51.3225 17.5998 51.3945 17.4347 51.3302C17.2774 51.2674 17.1185 51.2245 16.9458 51.2643C16.9153 51.272 16.8801 51.2628 16.8481 51.2567C16.6158 51.2123 16.3897 51.344 16.3668 51.5799C16.3484 51.7591 16.2507 51.8664 16.1407 51.9797C16.0582 52.0655 16.0689 52.1344 16.1697 52.2034C16.2583 52.2647 16.3546 52.3183 16.4279 52.3949C16.7457 52.7304 17.01 53.098 17.0513 53.5806C17.094 54.0769 17.1383 54.5732 17.1689 55.0711C17.1979 55.5582 17.2102 56.0469 17.2315 56.534C17.2621 57.2249 17.2957 57.9158 17.3217 58.6067C17.337 58.9881 17.3293 59.3696 17.3507 59.7495C17.369 60.0804 17.4164 60.4082 17.4409 60.7375C17.4516 60.8662 17.4271 60.998 17.4378 61.1251C17.4454 61.2124 17.4867 61.3074 17.5936 61.3089C17.696 61.3089 17.7388 61.2216 17.7648 61.1328C17.7724 61.1052 17.777 61.0746 17.7739 61.0455C17.751 60.8463 17.722 60.6472 17.7021 60.448C17.67 60.1324 17.6318 59.8153 17.6166 59.4982C17.6013 59.1888 17.6166 58.8778 17.6089 58.5684C17.5998 58.2237 17.5723 57.8806 17.5631 57.5374C17.5554 57.2525 17.5692 56.9676 17.5585 56.6842C17.5463 56.3824 17.505 56.0806 17.4989 55.7788C17.4836 55.1584 17.4714 54.5395 17.4806 53.9191C17.4852 53.5989 17.5371 53.2803 17.5753 52.9601C17.5814 52.9157 17.6303 52.8406 17.6593 52.8406C17.7189 52.8406 17.803 52.8682 17.8305 52.9126C17.8977 53.0199 17.9725 53.1409 17.9863 53.2635C18.0352 53.7046 18.0673 54.1474 18.0932 54.5916C18.1192 55.0466 18.1284 55.5031 18.1467 55.9596C18.1467 55.9963 18.1498 56.0454 18.1712 56.0668C18.2124 56.1066 18.2705 56.1541 18.3194 56.1511C18.3591 56.1495 18.4141 56.0867 18.4309 56.0392C18.4523 55.9795 18.4477 55.9075 18.4431 55.8401C18.4217 55.5031 18.3851 55.1661 18.3744 54.829C18.3591 54.3557 18.3576 53.8808 18.3606 53.4075C18.3606 53.288 18.3866 53.1654 18.4233 53.0521C18.4385 53.0046 18.5073 52.9509 18.5577 52.9464C18.599 52.9418 18.6616 52.9938 18.6891 53.0367C18.7854 53.1884 18.8236 53.3584 18.8297 53.5377C18.8373 53.7889 18.8465 54.0386 18.8648 54.2898C18.8893 54.6314 18.929 54.973 18.9504 55.3147C18.9672 55.5735 18.9611 55.834 18.9718 56.0929C18.984 56.3548 19.0069 56.6183 19.0252 56.8802C19.0268 56.9093 19.0283 56.9385 19.0344 56.966C19.0711 57.1315 19.1459 57.2127 19.2391 57.1882C19.3354 57.1652 19.3721 57.0426 19.3476 56.8879C19.314 56.678 19.2773 56.4666 19.2651 56.2537C19.23 55.6318 19.2009 55.0098 19.1811 54.3879C19.1689 54.0248 19.175 53.6602 19.1841 53.2972C19.1857 53.216 19.2239 53.1271 19.2697 53.0566C19.3171 52.9831 19.4271 52.9923 19.4546 53.0674C19.5233 53.2497 19.6104 53.4335 19.6333 53.625C19.6792 54.0248 19.6822 54.4292 19.7128 54.8306C19.7326 55.1017 19.7769 55.3713 19.7922 55.644C19.8167 56.0622 19.8274 56.482 19.8411 56.9002C19.8549 57.323 19.8701 57.7458 19.8793 58.1701C19.8869 58.5163 19.8732 58.8656 19.8946 59.2102C19.919 59.6024 19.9817 59.993 20.0137 60.3852C20.0306 60.5966 20.0229 60.8111 20.0122 61.0225C20.0031 61.1925 19.9985 61.3503 20.1528 61.4637L20.2536 61.4591C20.3758 61.3763 20.3911 61.2614 20.3575 61.1282C20.3392 61.0562 20.3285 60.9811 20.3208 60.9076C20.2949 60.6196 20.272 60.3316 20.2506 60.0436C20.2154 59.5687 20.1696 59.0923 20.1497 58.6174C20.1268 58.0782 20.1299 57.5374 20.1161 56.9967C20.1085 56.6673 20.0871 56.3364 20.0749 56.0071C20.0672 55.7681 20.0657 55.5291 20.0581 55.2901C20.0443 54.8168 20.0199 54.3434 20.0199 53.8701C20.0199 53.6878 19.9786 53.4886 20.1238 53.3278C20.3407 53.0888 20.547 52.8422 20.7716 52.6109C20.9381 52.4393 21.2162 52.4776 21.3201 52.6875C21.3964 52.8422 21.4698 53.0138 21.4835 53.1823C21.5523 53.9957 21.6042 54.8107 21.6531 55.6272C21.6806 56.099 21.6837 56.5723 21.7127 57.0442C21.7509 57.6493 21.8105 58.2544 21.8517 58.8594C21.8609 58.9988 21.8288 59.1413 21.8349 59.2822C21.8395 59.3833 21.8594 59.4906 21.9037 59.5794C21.9618 59.6928 22.113 59.6805 22.1588 59.5595C22.1863 59.486 22.1848 59.3956 22.1772 59.3144C22.1313 58.8303 22.0626 58.3493 22.0351 57.8652C21.9816 56.9277 21.9434 55.9902 21.9098 55.0527C21.8884 54.4706 21.8777 53.8885 21.8762 53.3063C21.8762 53.0122 21.9159 52.7196 22.058 52.4546C22.0626 52.447 23.1687 51.0223 21.1505 50.8277L21.1474 50.8216Z" fill="#999999"/>
<path d="M78.7237 47.8473C78.4915 47.8243 78.2654 47.9392 78.0331 47.9698C77.807 47.9989 77.5763 48.0112 77.3487 48.025C77.1455 48.0372 76.9407 48.0541 76.7375 48.0495C76.4686 48.0449 76.2043 47.9759 75.9323 48.0556C75.7429 48.1107 75.5412 48.1276 75.3502 48.1613C75.3075 48.3482 75.1761 48.4202 75.0111 48.3558C74.8537 48.293 74.6948 48.2501 74.5221 48.29C74.4916 48.2976 74.4564 48.2884 74.4244 48.2823C74.1921 48.2379 73.966 48.3696 73.9431 48.6055C73.9248 48.7848 73.827 48.892 73.717 49.0054C73.6345 49.0911 73.6452 49.1601 73.746 49.229C73.8346 49.2903 73.9309 49.3439 74.0042 49.4205C74.322 49.756 74.5863 50.1236 74.6276 50.6062C74.6703 51.1025 74.7147 51.5989 74.7452 52.0967C74.7742 52.5839 74.7865 53.0725 74.8079 53.5597C74.8384 54.2506 74.872 54.9414 74.898 55.6323C74.9133 56.0138 74.9056 56.3952 74.927 56.7751C74.9454 57.106 74.9927 57.4338 75.0172 57.7632C75.0279 57.8919 75.0034 58.0236 75.0141 58.1507C75.0218 58.2381 75.063 58.333 75.17 58.3346C75.2723 58.3346 75.3151 58.2473 75.3411 58.1584C75.3487 58.1308 75.3533 58.1002 75.3502 58.0711C75.3273 57.8719 75.2983 57.6728 75.2784 57.4737C75.2463 57.1581 75.2081 56.841 75.1929 56.5239C75.1776 56.2144 75.1929 55.9035 75.1852 55.594C75.1761 55.2493 75.1486 54.9062 75.1394 54.5631C75.1318 54.2781 75.1455 53.9932 75.1348 53.7098C75.1226 53.408 75.0813 53.1062 75.0752 52.8044C75.0599 52.184 75.0477 51.5652 75.0569 50.9447C75.0615 50.6246 75.1134 50.3059 75.1516 49.9858C75.1577 49.9413 75.2066 49.8663 75.2356 49.8663C75.2952 49.8663 75.3793 49.8939 75.4068 49.9383C75.474 50.0455 75.5489 50.1665 75.5626 50.2891C75.6115 50.7303 75.6436 51.173 75.6696 51.6172C75.6955 52.0722 75.7047 52.5287 75.723 52.9852C75.723 53.022 75.7261 53.071 75.7475 53.0924C75.7887 53.1323 75.8468 53.1798 75.8957 53.1767C75.9354 53.1752 75.9904 53.1124 76.0072 53.0649C76.0286 53.0051 76.024 52.9331 76.0194 52.8657C75.998 52.5287 75.9614 52.1917 75.9507 51.8547C75.9354 51.3813 75.9339 50.9064 75.9369 50.4331C75.9369 50.3136 75.9629 50.191 75.9996 50.0777C76.0149 50.0302 76.0836 49.9766 76.134 49.972C76.1753 49.9674 76.2379 50.0195 76.2654 50.0624C76.3617 50.214 76.3999 50.3841 76.406 50.5633C76.4136 50.8145 76.4228 51.0642 76.4411 51.3155C76.4656 51.6571 76.5053 51.9987 76.5267 52.3403C76.5435 52.5992 76.5374 52.8596 76.5481 53.1185C76.5603 53.3804 76.5832 53.6439 76.6015 53.9059C76.6031 53.935 76.6046 53.9641 76.6107 53.9917C76.6474 54.1571 76.7222 54.2383 76.8154 54.2138C76.9117 54.1908 76.9484 54.0683 76.9239 53.9135C76.8903 53.7037 76.8536 53.4923 76.8414 53.2793C76.8063 52.6574 76.7772 52.0354 76.7574 51.4135C76.7452 51.0504 76.7513 50.6858 76.7604 50.3228C76.762 50.2416 76.8002 50.1527 76.846 50.0823C76.8934 50.0088 77.0034 50.0179 77.0309 50.093C77.0996 50.2753 77.1867 50.4591 77.2096 50.6506C77.2555 51.0504 77.2585 51.4549 77.2891 51.8562C77.3089 52.1274 77.3532 52.397 77.3685 52.6696C77.393 53.0878 77.4037 53.5076 77.4174 53.9258C77.4312 54.3486 77.4464 54.7714 77.4556 55.1957C77.4632 55.5419 77.4495 55.8912 77.4709 56.2359C77.4953 56.628 77.558 57.0187 77.5901 57.4108C77.6069 57.6222 77.5992 57.8367 77.5885 58.0481C77.5794 58.2181 77.5748 58.3759 77.7291 58.4893L77.8299 58.4847C77.9522 58.402 77.9674 58.2871 77.9338 58.1538C77.9155 58.0818 77.9048 58.0067 77.8972 57.9332C77.8712 57.6452 77.8483 57.3572 77.8269 57.0692C77.7917 56.5943 77.7459 56.1179 77.726 55.643C77.7031 55.1038 77.7062 54.5631 77.6924 54.0223C77.6848 53.6929 77.6634 53.3621 77.6512 53.0327C77.6435 52.7937 77.642 52.5547 77.6344 52.3158C77.6206 51.8424 77.5962 51.3691 77.5962 50.8957C77.5962 50.7134 77.5549 50.5143 77.7001 50.3534C77.917 50.1144 78.1233 49.8678 78.3479 49.6365C78.5144 49.4649 78.7925 49.5032 78.8964 49.7131C78.9728 49.8678 79.0461 50.0394 79.0598 50.2079C79.1286 51.0213 79.1805 51.8363 79.2294 52.6528C79.2569 53.1246 79.26 53.598 79.289 54.0698C79.3272 54.6749 79.3868 55.28 79.4281 55.8851C79.4372 56.0245 79.4051 56.1669 79.4113 56.3079C79.4158 56.409 79.4357 56.5162 79.48 56.6051C79.5381 56.7184 79.6893 56.7062 79.7352 56.5852C79.7627 56.5116 79.7611 56.4212 79.7535 56.3401C79.7077 55.856 79.6389 55.375 79.6114 54.8909C79.5579 53.9534 79.5197 53.0159 79.4861 52.0783C79.4647 51.4962 79.454 50.9141 79.4525 50.332C79.4525 50.0379 79.4922 49.7453 79.6343 49.4802C79.6389 49.4726 80.7451 48.0479 78.7268 47.8534L78.7237 47.8473Z" fill="#999999"/>
<path d="M49.8028 45.4688C49.7371 45.4688 49.6729 45.4719 49.6072 45.4719C49.514 45.4719 49.4223 45.5025 49.3276 45.4489C49.2909 45.4274 49.2283 45.4489 49.1763 45.4519C49.1641 45.4519 49.1519 45.4611 49.1397 45.4581C49.0877 45.4489 49.0343 45.4366 48.9823 45.4244C48.9823 45.4336 48.9823 45.4412 48.9808 45.4504C48.9991 45.4565 49.0159 45.4611 49.0343 45.4673C48.7883 45.5071 48.553 45.4964 48.3437 45.3171L48.3467 45.3907C48.2917 45.4136 48.2459 45.4336 48.2 45.4535C48.1909 45.4474 48.1695 45.4228 48.1466 45.4213C48.0962 45.4198 48.0442 45.4167 47.9938 45.4152L48.0595 46.702C48.1802 46.7265 48.2306 46.8306 48.2825 46.9318C48.4491 47.2596 48.4628 47.618 48.4827 47.9734C48.5133 48.5402 48.5316 49.1086 48.5591 49.6754C48.5713 49.9235 48.6019 50.1702 48.611 50.4183C48.6309 50.9759 48.6385 51.5335 48.6615 52.0896C48.6706 52.324 48.7104 52.5584 48.7302 52.7928C48.7394 52.9031 48.721 53.0149 48.7378 53.1237C48.7455 53.1757 48.799 53.2431 48.8463 53.2631C48.9212 53.2937 48.9792 53.237 48.9991 53.1619C49.0144 53.1007 49.0251 53.0333 49.0174 52.9705C49.0052 52.8785 48.9609 52.7897 48.9533 52.6993C48.9212 52.3072 48.8922 51.9135 48.8723 51.5198C48.8555 51.1628 48.854 50.8059 48.8417 50.4505C48.8356 50.2606 48.8204 50.0721 48.8142 49.8837C48.7944 49.2158 48.7776 48.5464 48.7562 47.8785C48.7455 47.5767 48.7409 47.2764 48.8494 46.9869C48.8937 46.8689 48.9961 46.8368 49.0954 46.9149C49.1412 46.9517 49.187 47.0068 49.2038 47.062C49.242 47.1906 49.2756 47.3224 49.2894 47.4557C49.3138 47.687 49.32 47.9183 49.3368 48.1511C49.375 48.6766 49.488 49.5467 49.4376 49.7428C49.4238 49.7949 49.4483 49.8577 49.4651 49.9128C49.4911 49.9955 49.5461 50.0537 49.6408 50.04C49.7065 50.0308 49.7569 49.9251 49.7447 49.8347C49.7432 49.8209 49.7355 49.8086 49.734 49.7949C49.6943 49.4578 49.6454 49.1208 49.6194 48.7838C49.5965 48.4882 49.6179 48.217 49.6041 47.6762C49.5996 47.5047 49.6148 47.33 49.6347 47.16C49.6454 47.0696 49.6622 46.9685 49.7157 46.8935C50.1251 46.3221 49.8012 45.4688 49.8012 45.4688H49.8028Z" fill="#999999"/>
<path d="M109.093 45.6846C109.027 45.6846 108.963 45.6877 108.897 45.6877C108.804 45.6877 108.713 45.7183 108.618 45.6647C108.581 45.6433 108.519 45.6647 108.467 45.6678C108.454 45.6678 108.442 45.677 108.43 45.6739C108.378 45.6647 108.324 45.6524 108.273 45.6402C108.273 45.6494 108.273 45.657 108.271 45.6662C108.289 45.6724 108.306 45.677 108.324 45.6831C108.079 45.7229 107.843 45.7122 107.634 45.533L107.637 45.6065C107.582 45.6295 107.536 45.6494 107.49 45.6693C107.481 45.6632 107.46 45.6387 107.437 45.6371C107.386 45.6356 107.334 45.6325 107.284 45.631L107.35 46.9178C107.47 46.9423 107.521 47.0465 107.573 47.1476C107.739 47.4754 107.753 47.8339 107.773 48.1893C107.803 48.7561 107.822 49.3244 107.849 49.8912C107.862 50.1394 107.892 50.386 107.901 50.6342C107.921 51.1918 107.929 51.7494 107.952 52.3054C107.961 52.5398 108.001 52.7742 108.02 53.0086C108.03 53.1189 108.011 53.2307 108.028 53.3395C108.036 53.3916 108.089 53.459 108.137 53.4789C108.211 53.5095 108.269 53.4528 108.289 53.3778C108.305 53.3165 108.315 53.2491 108.308 53.1863C108.295 53.0944 108.251 53.0055 108.244 52.9151C108.211 52.523 108.182 52.1293 108.163 51.7356C108.146 51.3787 108.144 51.0217 108.132 50.6663C108.126 50.4764 108.111 50.2879 108.104 50.0995C108.085 49.4316 108.068 48.7622 108.046 48.0943C108.036 47.7925 108.031 47.4922 108.14 47.2027C108.184 47.0848 108.286 47.0526 108.386 47.1307C108.431 47.1675 108.477 47.2226 108.494 47.2778C108.532 47.4065 108.566 47.5382 108.58 47.6715C108.604 47.9028 108.61 48.1341 108.627 48.367C108.665 48.8924 108.778 49.7625 108.728 49.9586C108.714 50.0107 108.739 50.0735 108.755 50.1286C108.781 50.2114 108.836 50.2696 108.931 50.2558C108.997 50.2466 109.047 50.1409 109.035 50.0505C109.033 50.0367 109.026 50.0245 109.024 50.0107C108.985 49.6737 108.936 49.3366 108.91 48.9996C108.887 48.704 108.908 48.4328 108.894 47.8921C108.89 47.7205 108.905 47.5459 108.925 47.3758C108.936 47.2854 108.952 47.1843 109.006 47.1093C109.415 46.5379 109.091 45.6846 109.091 45.6846H109.093Z" fill="#999999"/>
<path d="M128.707 47.4356C128.475 47.4127 128.249 47.5275 128.016 47.5582C127.79 47.5873 127.56 47.5995 127.332 47.6133C127.129 47.6256 126.924 47.6424 126.721 47.6378C126.452 47.6332 126.188 47.5643 125.916 47.644C125.726 47.6991 125.525 47.716 125.334 47.7497C125.291 47.9366 125.159 48.0086 124.994 47.9442C124.837 47.8814 124.678 47.8385 124.505 47.8783C124.475 47.886 124.44 47.8768 124.408 47.8707C124.175 47.8263 123.949 47.958 123.926 48.1939C123.908 48.3731 123.81 48.4804 123.7 48.5937C123.618 48.6795 123.629 48.7485 123.729 48.8174C123.818 48.8787 123.914 48.9323 123.988 49.0089C124.305 49.3444 124.57 49.712 124.611 50.1946C124.654 50.6909 124.698 51.1872 124.729 51.6851C124.758 52.1722 124.77 52.6609 124.791 53.1481C124.822 53.8389 124.855 54.5298 124.881 55.2207C124.897 55.6021 124.889 55.9836 124.91 56.3635C124.929 56.6944 124.976 57.0222 125.001 57.3516C125.011 57.4802 124.987 57.612 124.997 57.7391C125.005 57.8264 125.046 57.9214 125.153 57.923C125.256 57.923 125.298 57.8356 125.324 57.7468C125.332 57.7192 125.337 57.6886 125.334 57.6595C125.311 57.4603 125.282 57.2612 125.262 57.062C125.23 56.7465 125.191 56.4294 125.176 56.1123C125.161 55.8028 125.176 55.4918 125.169 55.1824C125.159 54.8377 125.132 54.4946 125.123 54.1514C125.115 53.8665 125.129 53.5816 125.118 53.2982C125.106 52.9964 125.065 52.6946 125.059 52.3928C125.043 51.7724 125.031 51.1535 125.04 50.5331C125.045 50.2129 125.097 49.8943 125.135 49.5742C125.141 49.5297 125.19 49.4547 125.219 49.4547C125.279 49.4547 125.363 49.4822 125.39 49.5267C125.457 49.6339 125.532 49.7549 125.546 49.8775C125.595 50.3187 125.627 50.7614 125.653 51.2056C125.679 51.6606 125.688 52.1171 125.706 52.5736C125.706 52.6104 125.709 52.6594 125.731 52.6808C125.772 52.7207 125.83 52.7681 125.879 52.7651C125.919 52.7635 125.974 52.7007 125.991 52.6533C126.012 52.5935 126.007 52.5215 126.003 52.4541C125.981 52.1171 125.945 51.7801 125.934 51.4431C125.919 50.9697 125.917 50.4948 125.92 50.0215C125.92 49.902 125.946 49.7794 125.983 49.6661C125.998 49.6186 126.067 49.565 126.117 49.5604C126.159 49.5558 126.221 49.6079 126.249 49.6507C126.345 49.8024 126.383 49.9724 126.389 50.1517C126.397 50.4029 126.406 50.6526 126.424 50.9038C126.449 51.2454 126.489 51.5871 126.51 51.9287C126.527 52.1876 126.521 52.448 126.531 52.7069C126.544 52.9688 126.567 53.2323 126.585 53.4943C126.586 53.5234 126.588 53.5525 126.594 53.58C126.631 53.7455 126.706 53.8267 126.799 53.8022C126.895 53.7792 126.932 53.6566 126.907 53.5019C126.874 53.292 126.837 53.0806 126.825 52.8677C126.79 52.2458 126.761 51.6238 126.741 51.0019C126.728 50.6388 126.735 50.2742 126.744 49.9112C126.745 49.83 126.783 49.7411 126.829 49.6707C126.877 49.5971 126.987 49.6063 127.014 49.6814C127.083 49.8637 127.17 50.0475 127.193 50.239C127.239 50.6388 127.242 51.0432 127.272 51.4446C127.292 51.7157 127.337 51.9853 127.352 52.258C127.376 52.6762 127.387 53.096 127.401 53.5142C127.414 53.937 127.43 54.3598 127.439 54.7841C127.447 55.1303 127.433 55.4796 127.454 55.8243C127.479 56.2164 127.541 56.6071 127.573 56.9992C127.59 57.2106 127.583 57.4251 127.572 57.6365C127.563 57.8065 127.558 57.9643 127.712 58.0777L127.813 58.0731C127.935 57.9904 127.951 57.8755 127.917 57.7422C127.899 57.6702 127.888 57.5951 127.88 57.5216C127.855 57.2336 127.832 56.9456 127.81 56.6576C127.775 56.1827 127.729 55.7063 127.709 55.2314C127.686 54.6922 127.69 54.1514 127.676 53.6107C127.668 53.2813 127.647 52.9504 127.635 52.6211C127.627 52.3821 127.625 52.1431 127.618 51.9042C127.604 51.4308 127.58 50.9574 127.58 50.4841C127.58 50.3018 127.538 50.1027 127.683 49.9418C127.9 49.7028 128.107 49.4562 128.331 49.2249C128.498 49.0533 128.776 49.0916 128.88 49.3015C128.956 49.4562 129.029 49.6278 129.043 49.7963C129.112 50.6097 129.164 51.4247 129.213 52.2412C129.24 52.713 129.243 53.1863 129.272 53.6582C129.311 54.2633 129.37 54.8684 129.411 55.4735C129.421 55.6129 129.388 55.7553 129.395 55.8963C129.399 55.9974 129.419 56.1046 129.463 56.1934C129.521 56.3068 129.673 56.2946 129.718 56.1735C129.746 56.1 129.744 56.0096 129.737 55.9284C129.691 55.4444 129.622 54.9633 129.595 54.4793C129.541 53.5417 129.503 52.6042 129.469 51.6667C129.448 51.0846 129.437 50.5025 129.436 49.9204C129.436 49.6262 129.476 49.3336 129.618 49.0686C129.622 49.061 130.728 47.6363 128.71 47.4418L128.707 47.4356Z" fill="#999999"/>
<path d="M147.847 38.9022C146.006 30.2455 138.846 12.4954 130.257 12.9397C125.69 13.1756 124.537 14.8239 121.545 17.6932C121.545 17.6932 123.264 14.1683 118.961 12.8034C114.657 11.4384 102.849 12.5108 102.849 12.5108C102.849 12.5108 105.313 2.62395 94.632 1.14108C93.0721 0.925079 83.4146 0.555893 80.967 12.1768C80.967 12.1768 71.0177 10.0858 68.2049 15.3126C68.2049 15.3126 65.1905 12.1477 60.8743 13.8726C56.5566 15.5975 56.1441 18.2171 56.1441 18.2171C56.1441 18.2171 56.0998 15.6787 54.905 14.297C53.7102 12.9152 47.3147 12.5246 43.4523 14.5712C43.4523 14.5712 42.6364 14.9695 42.858 16.8828C42.858 16.8828 40.69 13.3564 35.3456 14.153C30.0012 14.9495 29.2831 18.8988 29.2831 18.8988C29.1181 15.7017 24.6583 11.299 13.5264 15.7293C2.393 20.1595 -1.93233 28.4394 3.2379 40.7741C8.40813 53.1105 24.6002 54.6623 36.7817 47.0947C36.7817 47.0947 44.3446 52.2036 49.8463 44.1229C49.8463 44.1229 53.6843 46.5233 56.0479 48.7829C58.4099 51.0424 61.2547 56.7855 68.3012 48.4949C68.3012 48.4949 70.0949 48.6618 72.3698 47.2449C72.3698 47.2449 71.6288 49.3619 80.4597 48.0399C80.4597 48.0399 81.5659 47.7228 82.1068 46.482C82.1068 46.482 82.8096 45.883 83.3229 47.4578C83.8363 49.0341 86.6215 56.1666 90.0699 51.8084C90.0699 51.8084 91.61 49.8445 92.3846 46.9752C92.3846 46.9752 94.4273 47.49 97.8115 46.1021C97.8115 46.1021 98.6029 48.0537 105.42 46.2277C112.237 44.4032 116.045 47.9373 117.374 48.5117C120.887 50.0298 123.713 48.0859 123.713 48.0859C123.713 48.0859 125.716 48.3938 127.519 48.1594C129.607 47.8882 131.461 47.3352 131.461 47.3352C131.461 47.3352 132.781 52.4916 134.993 51.7563C140.733 49.8491 145.618 43.7782 147.448 41.2643C147.945 40.5811 148.026 39.7248 147.85 38.8976L147.847 38.9022ZM20.6324 34.6558C18.1069 35.1628 17.8028 31.304 17.7738 30.7326C17.6913 29.1272 18.5026 28.1652 18.6768 28.9755C18.8143 29.6143 18.1756 32.2354 19.5629 32.914C19.922 33.0902 20.8005 32.7869 21.1534 32.7746C22.203 32.7348 22.4169 34.2988 20.6309 34.6573L20.6324 34.6558ZM69.389 33.4686C69.0911 33.7029 68.4249 33.0902 67.9009 32.1006C67.3768 31.111 67.192 30.1198 67.4899 29.8855C67.7878 29.6511 68.454 30.2638 68.978 31.2534C69.5021 32.243 69.6869 33.2342 69.389 33.4686ZM42.913 34.9392C42.5998 35.1858 41.897 34.5394 41.3439 33.4961C40.7908 32.4529 40.5968 31.4066 40.91 31.16C41.2232 30.9134 41.926 31.5598 42.4791 32.603C43.0321 33.6463 43.2262 34.6925 42.913 34.9392ZM79.3505 29.1946L78.8234 25.6774C78.8127 25.6054 78.8769 25.5426 78.9487 25.5548C82.1725 26.1446 80.1358 28.6048 79.5339 29.2513C79.4728 29.3171 79.3643 29.2819 79.3505 29.1931V29.1946ZM106.626 27.7577C105.507 28.3658 105.388 26.7374 105.823 26.3223C106.584 25.5962 109.147 25.4093 110.312 25.3618C110.465 25.3557 110.523 25.5594 110.39 25.636C109.412 26.1936 107.306 27.3885 106.626 27.7592V27.7577ZM131.635 27.6596C131.516 28.0962 130.391 28.6615 130.031 28.2938C129.641 27.8986 129.95 25.8719 130.436 25.6421C130.921 25.4139 131.775 27.151 131.635 27.6581V27.6596Z" fill="#E5E5E5"/>
<path d="M136.673 17.8645C132.827 12.7939 127.938 14.6199 127.938 14.6199C123.041 16.7952 121.706 22.2687 121.807 27.8984C119.365 27.9872 114.117 28.6214 113.431 32.4067C113.431 32.4067 113.469 34.2817 114.942 35.4751C114.942 35.4751 110.66 32.8387 107.972 33.7854C107.972 33.7854 117.602 26.7127 119.967 20.6418C120.636 18.9245 121.003 14.741 117.711 14.2829C113.688 13.7253 104.476 13.6686 101.03 14.3794C101.711 13.0605 102.061 11.547 101.966 9.95533C101.697 5.40868 97.841 1.83631 93.3002 1.93282C88.3867 2.03699 84.5869 6.26654 84.9979 11.1793C85.3616 15.5268 89.007 18.9383 93.3583 18.9904C95.6073 19.0165 97.6393 18.1785 99.1656 16.7998C98.9731 18.1448 98.9777 19.9478 99.129 21.7708C98.9044 21.2867 98.5637 20.8884 98.0534 20.6265C96.0977 19.6231 92.1376 21.3112 90.4416 22.1293C88.8405 17.4248 82.0843 12.6606 75.3282 13.0099C70.5598 13.2566 70.1824 15.3123 70.5277 17.9043C70.3826 17.7649 70.2374 17.6316 70.0892 17.503C57.6021 6.63572 57.0995 26.4568 57.0995 26.4568C57.1056 27.3193 57.1484 28.1404 57.2202 28.9232C55.5151 29.4992 55.4937 30.2713 55.3898 30.9974C55.2202 32.18 58.4822 35.9515 59.2079 36.7741C58.1216 35.7202 53.6267 34.2588 53.6267 34.2588L53.2264 31.5075C53.2264 31.5075 56.4593 22.8829 55.0995 17.3927C53.6007 11.3417 44.316 15.3951 43.7522 15.9649C43.3687 16.3525 43.8974 18.6228 44.2778 20.0459C43.7079 19.3902 43.1182 18.8035 42.5116 18.3041C30.1972 8.15689 30.2247 27.2703 30.2247 27.2703C26.2019 27.9275 21.2135 30.7569 23.2424 32.2367C24.7199 33.3136 27.2653 36.2579 22.2341 36.4325C17.2029 36.6056 15.0776 29.4394 17.8155 26.1214C20.5534 22.8033 21.1432 25.8625 21.2501 27.9367C21.3494 29.8806 27.3142 26.0126 27.8657 23.8113C30.1559 14.6873 21.0836 13.5078 12.7095 17.5504C-2.15339 24.7258 10.2726 55.8186 35.2406 43.5267C35.919 43.1927 36.4644 42.7608 36.8968 42.266L36.8999 42.2675C43.9906 45.7847 47.911 44.8334 49.6314 41.7895C52.5725 41.4004 56.3172 42.485 58.7434 45.8337C62.1612 50.5504 66.621 46.9857 66.621 46.9857C67.6936 46.1462 68.4667 45.437 69.0014 44.8028C71.643 45.5993 73.6063 45.3129 74.9936 44.2819C75.2564 45.2807 76.1425 45.6698 76.1425 45.6698C82.2111 46.2657 82.7001 43.8147 82.3762 42.5754C82.0538 41.3346 80.4205 35.6176 80.4205 35.6176C82.7169 34.9068 87.9238 46.3622 89.4256 49.7952C89.5738 50.1337 90.0582 50.1138 90.1773 49.7646C90.7105 48.2128 91.7923 45.0632 92.8327 42.0086C94.9366 45.7709 98.7577 44.2452 100.97 42.1036C101.473 42.9369 102.101 43.447 102.903 43.3184C105.56 42.8925 111.801 39.3646 117.85 43.5987C121.616 46.2351 124.291 45.5656 125.773 44.6833C127.273 45.2133 130.126 44.5423 131.664 44.285C133.663 43.951 133.289 41.2993 131.415 37.3532C129.542 33.407 130.341 31.9946 132.422 31.8874C137.047 31.6484 134.259 45.4783 136.318 48.5482C138.008 51.0682 143.889 43.7304 145.939 41.0221C146.442 40.3588 146.698 39.5116 146.533 38.6951C144.972 30.9361 140.298 22.6516 136.668 17.8675L136.673 17.8645ZM43.6636 35.7661C42.5361 36.2855 40.5911 34.4533 39.3184 31.6745C38.0457 28.8956 37.9281 26.2225 39.0556 25.7032C40.1832 25.1838 42.1281 27.016 43.4008 29.7948C44.6735 32.5737 44.7912 35.2468 43.6636 35.7661ZM70.76 34.9236C69.5774 35.4307 67.6111 33.476 66.3689 30.5592C65.1268 27.6425 65.0794 24.8667 66.262 24.3612C67.4445 23.8542 69.4109 25.8089 70.653 28.7256C71.8951 31.6423 71.9425 34.4181 70.76 34.9236ZM78.9843 29.7933L77.7957 21.8704C77.759 21.6253 77.976 21.4169 78.2174 21.4629C85.3524 22.8508 81.1676 28.2492 79.6046 29.9802C79.4014 30.2054 79.0302 30.092 78.9843 29.7918V29.7933ZM84.0094 32.8464C86.2141 32.3286 87.7221 31.3666 88.7473 30.2314C88.9123 32.0498 89.3019 33.7548 89.7694 35.2576C87.1155 33.7287 84.0094 32.8464 84.0094 32.8464ZM100.134 32.6212C99.7951 31.581 99.4941 30.3325 99.2925 28.7746C99.1565 27.7344 99.4223 26.1903 99.4972 24.7044C99.9739 27.474 100.761 29.6539 101.641 29.3506C103.819 28.603 105.224 28.3824 104.921 26.4951C104.369 23.0545 107.057 23.2261 113.043 22.6057C119.029 21.9853 105.089 29.2142 105.089 29.2142C105.089 29.2142 101.978 30.8809 100.134 32.6212ZM133.946 27.0497C133.637 28.2032 130.735 29.6937 129.8 28.721C128.795 27.6747 129.584 22.3192 130.838 21.7172C132.092 21.1151 134.303 25.7078 133.946 27.0497Z" fill="#999999"/>
<path d="M68.1711 46.76L67.6455 46.2039C70.4598 43.5247 69.4087 41.4474 68.712 40.0733C68.602 39.8573 68.5088 39.672 68.4385 39.4988C68.3988 39.4023 68.2384 39.0362 68.0153 38.5292C67.1276 36.5132 65.0497 31.7904 64.3148 29.6488C63.6731 27.7784 61.4639 28.1276 57.901 28.9257C57.4411 29.0284 56.9674 29.1356 56.4938 29.2337L56.3395 28.483C56.807 28.3865 57.2776 28.2808 57.7344 28.1782C61.0223 27.4413 64.1284 26.7459 65.0375 29.3991C65.7617 31.51 67.8304 36.2114 68.715 38.2197C68.9488 38.7513 69.1031 39.1021 69.1474 39.2078C69.2055 39.3503 69.2926 39.5234 69.3949 39.724C70.0962 41.1073 71.401 43.684 68.1727 46.7569L68.1711 46.76Z" fill="#E5E5E5"/>
<path d="M50.0678 42.6301L49.4047 42.2502C51.0808 39.3044 52.2572 34.1664 48.3521 26.4212C45.9946 21.7459 42.8702 18.316 42.8381 18.2823L43.4003 17.7629C43.4324 17.7982 46.6287 21.3062 49.0335 26.075C52.2465 32.4446 52.6041 38.1693 50.0694 42.6286L50.0678 42.6301Z" fill="#E5E5E5"/>
<path d="M75.1382 45.3346L74.5255 44.8766C78.3191 39.7738 77.5216 33.3935 76.1832 28.9403C74.5316 23.4408 71.3308 18.4898 68.8923 16.0219L69.4347 15.4827C71.757 17.8326 75.1107 22.7086 76.9151 28.7197C78.3023 33.3414 79.1213 39.9761 75.1382 45.3346Z" fill="#E5E5E5"/>
<path d="M37.4789 42.7609L36.825 42.3657C38.8356 39.0262 37.5339 33.28 35.0572 30.0064C34.0809 28.7165 32.0535 26.6623 29.4378 27.3899L29.2331 26.6516C31.4943 26.0235 33.7784 27.0499 35.6653 29.5438C37.0205 31.3346 38.0182 33.7396 38.4032 36.1432C38.8173 38.732 38.4888 41.0835 37.4789 42.7609Z" fill="#E5E5E5"/>
<path d="M86.4489 32.8429L86.128 32.1474C86.1433 32.1397 87.6299 31.432 88.8766 29.7515C90.542 27.5073 91.0156 24.6748 90.2838 21.3353L91.0294 21.1714C92.0087 25.6338 90.7192 28.5674 89.4664 30.2417C88.1036 32.0631 86.5161 32.8122 86.4489 32.8429Z" fill="#E5E5E5"/>
<path d="M93.1928 44.2932L92.464 44.0619C92.4793 44.0113 93.9979 39.0358 91.0431 36.2477C90.4595 35.6978 89.8712 35.3362 89.3991 35.0467C89.2739 34.9701 89.1562 34.8981 89.0508 34.8292L89.4648 34.1858C89.5657 34.2517 89.6787 34.3191 89.7979 34.3941C90.3006 34.702 90.9255 35.0865 91.5671 35.6901C92.9437 36.9876 93.6588 38.8933 93.6374 41.1973C93.6221 42.913 93.2096 44.2365 93.1928 44.2917V44.2932Z" fill="#E5E5E5"/>
<path d="M100.928 43.1802L100.449 42.5843C103.516 40.1042 101.963 37.0113 100.461 34.0195C99.6067 32.3207 98.8015 30.7153 99.0108 29.3748C99.9825 23.1692 99.1758 21.2773 98.6075 20.7028C98.3172 20.4087 98.059 20.4424 98.0498 20.4439L97.9016 19.6933C97.9658 19.6795 98.5341 19.5784 99.104 20.1192C100.334 21.288 100.555 24.4422 99.764 29.4943C99.5929 30.5912 100.345 32.0894 101.141 33.6749C102.626 36.6314 104.474 40.311 100.927 43.1802H100.928Z" fill="#E5E5E5"/>
<path d="M98.1037 18.6581L97.6805 18.0208C97.7111 18.0009 100.773 15.9191 101.858 12.5137L102.585 12.7465C101.418 16.4139 98.2397 18.5692 98.1037 18.6581Z" fill="#E5E5E5"/>
<path d="M125.873 45.5283L125.459 44.8849C126.921 43.9398 127.714 43.0375 127.885 42.1275C128.116 40.8944 127.207 39.6352 126.156 38.1768C124.967 36.5285 123.618 34.6611 123.494 32.256C123.358 29.5997 122.66 28.5535 122.098 28.1444C121.551 27.7446 121.036 27.8764 121.015 27.8825L120.804 27.1457C120.839 27.1349 121.671 26.9006 122.524 27.5072C123.551 28.2379 124.133 29.8219 124.257 32.2147C124.368 34.3946 125.647 36.1639 126.773 37.7264C127.881 39.2614 128.927 40.7105 128.635 42.2685C128.425 43.3959 127.52 44.4621 125.873 45.5268V45.5283Z" fill="#E5E5E5"/>
<path d="M82.9121 15.8228C84.6935 16.4524 85.4376 17.2367 85.7814 18.1865C86.3329 19.7046 84.142 18.0532 82.6584 16.9824C81.9938 16.503 81.8441 15.4444 82.9121 15.8228Z" fill="#999999"/>
<path d="M53.1865 16.1586C54.3126 17.6782 54.4913 18.7459 54.2484 19.7263C53.8588 21.295 52.9635 18.6969 52.3294 16.9781C52.0452 16.2076 52.5112 15.2471 53.1865 16.1586Z" fill="#999999"/>
<path d="M97.8219 4.39301C99.4552 5.34278 100.042 6.25272 100.205 7.24845C100.467 8.84315 98.6194 6.81186 97.359 5.48525C96.7937 4.89087 96.8426 3.82314 97.8234 4.39301H97.8219Z" fill="#999999"/>
<path d="M67.3433 16.4657C68.9934 17.3848 69.5954 18.2856 69.7772 19.2782C70.0659 20.8683 68.1836 18.8707 66.9002 17.5656C66.3258 16.9819 66.3548 15.9127 67.3448 16.4641L67.3433 16.4657Z" fill="#999999"/>
<path d="M40.3978 17.8619C42.0479 18.781 42.6498 19.6818 42.8316 20.6745C43.1204 22.2646 41.2381 20.267 39.9547 18.9618C39.3802 18.3782 39.4093 17.3089 40.3993 17.8604L40.3978 17.8619Z" fill="#999999"/>
<path d="M25.6795 17.5986C26.9721 18.9788 27.2731 20.0189 27.1432 21.0208C26.9354 22.6232 25.7483 20.1461 24.9217 18.5116C24.552 17.7793 24.9034 16.7698 25.6795 17.5986Z" fill="#999999"/>
<path d="M119.109 16.2414C119.757 18.0199 119.625 19.0953 119.113 19.9654C118.294 21.3579 118.174 18.6113 118.053 16.7837C118 15.9642 118.719 15.1752 119.107 16.243L119.109 16.2414Z" fill="#999999"/>
<path d="M132.593 16.2126C134.306 17.0107 134.97 17.8639 135.222 18.8413C135.626 20.4053 133.603 18.5502 132.229 17.3431C131.614 16.8023 131.566 15.7346 132.593 16.2126Z" fill="#999999"/>
</g>
<defs>
<clipPath id="clip0_2915_3110">
<rect width="149" height="61.4625" fill="white"/>
</clipPath>
</defs>
</svg>
