<svg width="20" height="21" viewBox="0 0 20 21" fill="none" xmlns="http://www.w3.org/2000/svg">
<path fill-rule="evenodd" clip-rule="evenodd" d="M10.0001 12.3849L17.5428 19.9275C17.7942 20.1704 18.131 20.3048 18.4806 20.3018C18.8302 20.2987 19.1646 20.1585 19.4118 19.9113C19.6591 19.6641 19.7993 19.3297 19.8023 18.9801C19.8054 18.6305 19.671 18.2937 19.4281 18.0422L11.8854 10.4995L19.4281 2.95688C19.671 2.70541 19.8054 2.36861 19.8023 2.01901C19.7993 1.66942 19.6591 1.335 19.4118 1.08779C19.1646 0.84058 18.8302 0.700354 18.4806 0.697316C18.131 0.694278 17.7942 0.828671 17.5428 1.07155L10.0001 8.61422L2.45742 1.07155C2.20482 0.834674 1.86997 0.705369 1.52373 0.710991C1.17749 0.716613 0.847013 0.856723 0.602236 1.10167C0.357459 1.34662 0.217583 1.6772 0.212205 2.02344C0.206828 2.36969 0.336371 2.70445 0.573423 2.95688L8.11476 10.4995L0.57209 18.0422C0.444743 18.1652 0.343167 18.3123 0.273288 18.475C0.20341 18.6377 0.166628 18.8126 0.165089 18.9897C0.163551 19.1667 0.197286 19.3423 0.264327 19.5062C0.331369 19.67 0.430373 19.8189 0.555563 19.9441C0.680753 20.0693 0.829623 20.1683 0.993485 20.2353C1.15735 20.3024 1.33292 20.3361 1.50996 20.3346C1.687 20.333 1.86196 20.2962 2.02463 20.2264C2.1873 20.1565 2.33443 20.0549 2.45742 19.9275L10.0001 12.3849Z" fill="black"/>
</svg>
