<svg width="558" height="316" viewBox="0 0 558 316" fill="none" xmlns="http://www.w3.org/2000/svg">
<path d="M159.558 112.364C158.428 113.234 159.088 116.974 161.018 120.714C162.948 124.454 165.438 126.784 166.558 125.914C167.688 125.044 167.028 121.304 165.098 117.564C163.168 113.824 160.678 111.494 159.558 112.364Z" fill="white"/>
<path d="M254.388 108.803C253.318 109.623 253.938 113.173 255.768 116.713C257.598 120.263 259.948 122.473 261.028 121.643C262.098 120.813 261.478 117.273 259.648 113.733C257.818 110.183 255.458 107.973 254.388 108.803Z" fill="white"/>
<path d="M295.408 93.7833C295.148 93.7333 294.918 93.9633 294.958 94.2133L296.708 106.773C296.758 107.083 297.138 107.213 297.358 106.983C299.528 104.703 306.878 96.0033 295.408 93.7833Z" fill="white"/>
<path d="M102.368 121.223C101.468 122.103 102.108 125.323 96.758 126.323C87.238 128.093 82.078 113.643 79.748 113.623C76.998 113.593 80.988 122.813 85.608 126.203C87.248 127.413 96.398 134.323 103.978 129.143C110.738 124.523 106.098 117.593 102.368 121.223Z" fill="white"/>
<path d="M479.008 95.9938C477.268 96.7938 476.088 104.014 477.468 105.434C478.738 106.754 482.768 104.784 483.208 103.234C483.728 101.424 480.748 95.2038 479.008 95.9938Z" fill="white"/>
<path d="M407.528 95.2333C408.008 94.9633 407.808 94.2333 407.258 94.2533C403.098 94.3833 393.958 94.9533 391.218 97.5133C389.648 98.9733 390.018 104.793 394.028 102.663C396.468 101.373 404.028 97.1933 407.528 95.2333Z" fill="white"/>
<path d="M320.048 68.1434C318.858 64.7434 316.228 61.9234 309.898 59.6134C306.108 58.2234 306.598 62.0034 308.948 63.7434C314.198 67.6134 321.948 73.5834 320.038 68.1534L320.048 68.1434Z" fill="white"/>
<path d="M207.538 72.4739C208.438 68.9839 207.838 65.1739 203.878 59.7139C201.508 56.4339 199.808 59.8439 200.788 62.6039C202.988 68.7539 206.078 78.0539 207.528 72.4739H207.538Z" fill="white"/>
<path d="M371.888 29.6735C371.338 26.1135 369.278 22.8535 363.498 19.4035C360.018 17.3335 359.808 21.1435 361.798 23.2835C366.248 28.0635 372.758 35.3735 371.888 29.6735Z" fill="white"/>
<path d="M262.928 71.4534C262.318 67.9034 260.198 64.6734 254.348 61.3334C250.838 59.3234 250.698 63.1334 252.718 65.2434C257.248 69.9434 263.888 77.1334 262.918 71.4534H262.928Z" fill="white"/>
<path d="M166.788 75.4232C166.178 71.8732 164.068 68.6432 158.218 65.3032C154.708 63.2932 154.568 67.1032 156.588 69.2132C161.118 73.9132 167.758 81.1032 166.788 75.4232Z" fill="white"/>
<path d="M110.838 76.0735C111.338 72.5035 110.308 68.7835 105.748 63.8135C103.008 60.8335 101.718 64.4135 103.008 67.0435C105.898 72.9035 110.038 81.7835 110.838 76.0735Z" fill="white"/>
<path d="M440.208 69.5433C439.938 65.9533 438.148 62.5333 432.638 58.6333C429.328 56.2933 428.828 60.0733 430.648 62.3633C434.708 67.4733 440.638 75.2833 440.218 69.5433H440.208Z" fill="white"/>
<path d="M487.048 62.8331C483.408 61.0931 483.538 64.9031 485.708 66.8531C490.558 71.2131 497.708 77.9031 496.328 72.3031C495.468 68.8131 493.128 65.7431 487.048 62.8331Z" fill="white"/>
<path d="M535.938 143.133C530.658 115.403 514.298 85.6932 501.528 68.4932H501.548C488.018 50.2632 470.518 56.5932 470.518 56.5932C453.738 63.8432 448.468 81.9732 448.178 101.103C448.978 101.323 449.858 101.703 450.738 102.343C454.368 104.983 456.388 110.653 456.748 119.193C457.068 126.973 461.558 133.323 465.518 138.943C467.458 141.693 469.348 144.363 470.608 147.033L467.538 147.003C466.418 144.943 464.898 142.803 463.298 140.523C459.118 134.603 454.378 127.893 454.028 119.313C453.638 109.833 451.188 106.083 449.198 104.603C448.588 104.143 447.988 103.893 447.448 103.743C438.468 104.063 420.648 106.373 418.128 119.483C418.128 119.483 418.198 126.173 423.408 130.483C423.408 130.483 408.238 120.923 398.618 124.203C398.618 124.203 433.218 99.3332 441.878 77.7732C444.328 71.6732 445.788 56.7732 434.068 55.0132C420.898 53.0532 392.088 52.4332 377.958 54.2132C374.818 60.2332 370.438 64.6632 367.418 67.2532C367.248 69.6232 367.198 72.2232 367.258 74.9332C367.338 75.0032 367.428 75.0632 367.508 75.1432C371.148 78.6732 372.198 87.1632 370.678 100.393C372.198 105.593 374.108 108.853 376.218 108.153C384.018 105.563 389.028 104.833 388.018 98.0932C386.178 85.8032 395.758 86.5132 417.128 84.5232C438.498 82.5332 388.518 107.793 388.518 107.793C388.518 107.793 378.648 112.953 371.948 118.673C372.658 120.253 373.458 121.893 374.268 123.553C377.668 130.493 381.598 138.533 380.328 146.103L377.598 146.073C378.978 139.353 375.368 131.973 371.838 124.753C368.858 118.663 366.048 112.913 366.838 108.133C367.278 105.503 367.618 103.103 367.888 100.883C368.028 99.0632 368.248 97.1032 368.448 95.1032C368.958 87.7332 368.388 83.2432 367.518 80.5132C367.528 80.6832 367.538 80.8432 367.548 81.0132C366.768 79.2832 365.568 77.8432 363.758 76.8932C360.568 75.2132 355.838 75.5632 351.078 76.6932L351.138 70.7132C356.848 70.0832 362.048 67.8732 366.338 64.5532C368.878 62.2732 372.228 58.7632 374.848 54.2432C377.158 49.6832 378.378 44.4732 378.108 38.9932C377.318 22.7732 363.698 9.89319 347.498 10.0632C329.968 10.2532 316.268 25.1932 317.548 42.7332C318.688 58.2532 331.558 70.5532 347.078 70.8932C347.828 70.9132 348.578 70.8932 349.318 70.8532L349.248 77.1632C345.528 78.1932 341.908 79.6032 339.098 80.8332C341.548 95.5132 337.088 105.233 332.778 110.873C332.028 111.853 331.258 112.743 330.488 113.553C330.948 117.553 331.708 121.383 332.618 124.953C332.978 125.183 333.378 125.423 333.798 125.693C335.578 126.813 337.798 128.203 340.058 130.383C344.038 134.213 346.418 139.473 347.058 145.753L344.288 145.723C343.768 141.083 342.128 136.163 338.158 132.343C336.178 130.433 334.168 129.153 332.538 128.123C323.398 122.963 313.208 119.953 313.208 119.953C316.518 119.213 319.388 118.183 321.878 116.943C323.678 115.903 327.388 113.423 330.668 109.093C336.228 101.753 338.178 92.5932 336.478 81.8332C330.858 65.0432 307.008 47.9032 282.968 48.9032C268.968 49.4832 265.528 54.5332 265.378 61.4632C273.158 70.8232 282.668 86.4032 288.038 104.983C291.308 116.293 293.578 130.953 290.078 145.163L287.278 145.133C290.868 131.293 288.628 116.853 285.418 105.743C280.908 90.1532 272.928 75.7732 265.518 66.0432C265.048 65.5932 264.588 65.1532 264.108 64.7232C219.978 25.5132 217.458 96.1732 217.458 96.1732C217.458 98.4532 217.538 100.633 217.668 102.763C218.338 102.623 218.998 102.483 219.658 102.343C231.408 99.8332 242.508 97.4732 245.658 106.963C248.158 114.523 255.368 131.363 258.448 138.553C259.258 140.453 259.798 141.713 259.958 142.093C260.158 142.603 260.458 143.223 260.818 143.943C260.958 144.233 261.108 144.543 261.268 144.853L258.208 144.823C257.898 144.203 257.628 143.633 257.418 143.103C257.278 142.753 256.718 141.443 255.948 139.633C252.858 132.413 245.618 115.493 243.078 107.833C240.858 101.143 232.968 102.303 220.228 105.013C218.588 105.363 216.888 105.723 215.198 106.063C211.678 107.903 211.538 110.163 211.208 112.303C210.558 116.513 222.048 130.083 224.608 133.043C220.778 129.243 204.798 123.863 204.798 123.863L203.468 114.033C203.468 114.033 215.318 83.3932 210.668 63.7732C205.548 42.1432 172.288 56.2532 170.258 58.2632C169.378 59.1332 169.788 62.7432 170.538 66.5532C173.958 70.6932 182.198 81.2532 188.708 94.5132C197.818 113.043 200.218 129.993 195.888 144.173L193.028 144.143C196.568 133.243 196.898 117.373 186.268 95.7232C181.548 86.1232 175.928 77.9732 171.958 72.7432C171.958 72.7732 171.978 72.8032 171.978 72.8332C169.968 70.4732 167.888 68.3632 165.748 66.5532C127.588 34.4432 120.628 81.8032 121.408 96.6432C128.258 96.2932 135.148 96.0232 141.448 106.353C151.828 123.373 152.528 135.623 150.828 143.703L147.698 143.673C149.818 132.053 145.618 117.293 138.748 108.013C135.668 103.853 130.628 99.6832 125.668 99.6332C95.358 99.3232 124.148 133.423 96.148 133.133C78.198 132.943 67.528 105.253 77.408 93.5232C87.288 81.7932 89.288 92.7232 89.588 100.123C89.868 107.063 111.288 93.4832 113.328 85.6532C121.828 53.2032 89.528 48.6632 59.508 62.7632C6.23799 87.8032 49.408 199.143 138.898 156.223C141.258 155.093 143.168 153.613 144.708 151.933C145.798 150.123 146.608 148.113 147.188 145.963L150.258 145.993C149.368 149.033 148.198 151.343 147.258 152.973C170.918 164.373 184.238 161.003 190.288 150.553C190.308 150.553 190.338 150.553 190.368 150.553C191.038 149.283 191.668 147.903 192.238 146.433L195.128 146.463C194.648 147.783 194.128 149.093 193.518 150.353C203.408 150.173 214.958 154.483 222.638 165.313C234.648 182.263 250.688 169.713 250.688 169.713C252.808 168.083 254.598 166.603 256.108 165.213C262.978 157.743 261.368 151.623 259.338 147.113L262.318 147.143C263.908 151.093 264.998 156.453 261.418 162.623C269.528 164.723 275.738 163.763 280.298 160.613C283.198 156.393 285.248 151.943 286.648 147.403L289.478 147.433C287.908 152.803 285.478 158.073 281.908 163.033C283.138 164.673 284.678 165.373 284.678 165.373C306.298 167.723 308.128 159.003 307.018 154.563C306.698 153.283 306.008 150.663 305.178 147.593L316.178 147.703C322.778 159.583 329.128 174.083 331.888 180.573C332.408 181.783 334.128 181.733 334.568 180.493C336.528 174.993 340.478 163.833 344.298 153.003C344.448 151.473 344.518 149.773 344.448 148.003L347.188 148.033C347.208 148.703 347.228 149.383 347.208 150.073C347.158 152.433 346.908 154.573 346.608 156.333C354.258 165.383 366.128 160.403 373.318 153.583C373.318 153.583 373.318 153.593 373.328 153.603C375.008 151.923 376.148 150.163 376.868 148.353L379.728 148.383C378.898 150.963 377.388 153.463 374.938 155.823C376.398 157.433 378.108 158.293 380.158 157.993C389.648 156.573 412.038 144.223 433.448 159.543C446.438 168.833 455.848 166.903 461.238 163.943C466.028 160.793 468.678 157.753 469.288 154.663C469.638 152.913 469.328 151.133 468.608 149.303L471.508 149.333C472.128 151.263 472.358 153.203 471.968 155.193C471.338 158.383 469.148 161.413 465.308 164.393C470.828 164.793 478.278 163.183 482.688 162.493C487.608 161.723 488.548 156.983 486.518 149.483L496.058 149.583C496.178 161.403 496.028 173.143 499.128 177.873C505.058 186.923 526.298 160.973 533.718 151.393C535.538 149.043 536.478 146.033 535.928 143.113L535.938 143.133ZM432.628 58.6432C438.138 62.5332 439.938 65.9532 440.198 69.5432C440.618 75.2932 434.698 67.4832 430.628 62.3632C428.808 60.0632 429.318 56.2932 432.618 58.6332L432.628 58.6432ZM363.488 19.4032C369.278 22.8532 371.338 26.1132 371.878 29.6732C372.748 35.3732 366.238 28.0532 361.798 23.2832C359.808 21.1432 360.018 17.3332 363.498 19.4032H363.488ZM105.738 63.8132C110.298 68.7832 111.328 72.5032 110.828 76.0732C110.028 81.7832 105.888 72.9032 102.998 67.0432C101.708 64.4232 102.998 60.8332 105.738 63.8132ZM158.218 65.3032C164.068 68.6432 166.178 71.8832 166.788 75.4232C167.758 81.1032 161.118 73.9132 156.598 69.2132C154.568 67.1132 154.708 63.3032 158.228 65.3032H158.218ZM169.208 128.893C165.168 130.703 158.298 124.093 153.868 114.143C149.428 104.183 149.108 94.6532 153.148 92.8432C157.188 91.0332 164.058 97.6332 168.488 107.593C172.928 117.553 173.248 127.083 169.208 128.893ZM203.878 59.7132C207.838 65.1732 208.438 68.9832 207.538 72.4732C206.088 78.0532 202.998 68.7532 200.798 62.6032C199.808 59.8432 201.508 56.4332 203.888 59.7132H203.878ZM254.358 61.3232C260.208 64.6632 262.318 67.9032 262.938 71.4432C263.908 77.1232 257.268 69.9332 252.738 65.2332C250.708 63.1332 250.858 59.3232 254.368 61.3232H254.358ZM265.868 126.883C261.628 128.653 254.688 121.603 250.368 111.153C246.048 100.703 245.978 90.8032 250.218 89.0432C254.458 87.2832 261.388 94.3232 265.718 104.773C270.038 115.223 270.108 125.123 265.868 126.883ZM309.908 59.6032C316.238 61.9132 318.858 64.7432 320.058 68.1332C321.968 73.5632 314.218 67.5932 308.968 63.7232C306.618 61.9932 306.118 58.2132 309.918 59.5932L309.908 59.6032ZM295.388 108.883L291.438 80.5932C291.318 79.7132 292.098 78.9832 292.958 79.1532C318.348 84.3632 303.228 103.463 297.588 109.573C296.858 110.373 295.538 109.953 295.378 108.883H295.388ZM304.548 145.313C302.598 138.113 300.298 129.713 300.298 129.713C303.888 128.643 309.388 135.893 314.868 145.423L304.548 145.313ZM480.598 82.0032C485.098 79.9032 492.808 96.3632 491.488 101.133C490.348 105.233 479.948 110.443 476.648 106.943C473.098 103.173 476.108 84.1032 480.608 82.0032H480.598ZM485.848 147.193C484.928 144.363 483.668 141.213 482.078 137.783C475.548 123.643 478.448 118.633 485.868 118.333C494.838 117.963 495.838 132.333 496.048 147.303L485.838 147.193H485.848ZM485.708 66.8432C483.528 64.8932 483.398 61.0832 487.048 62.8232C493.128 65.7332 495.468 68.8032 496.328 72.2932C497.708 77.8832 490.568 71.1932 485.708 66.8432Z" fill="url(#paint0_linear_3462_19132)"/>
<path d="M540.618 143.904V143.924C540.128 141.504 539.528 138.894 538.818 136.124C536.978 128.924 534.398 120.694 531.208 112.244C530.718 110.944 530.208 109.644 529.688 108.334C529.428 107.684 529.168 107.024 528.898 106.374C528.368 105.064 527.818 103.754 527.258 102.454C526.698 101.144 526.118 99.8439 525.528 98.5439C524.058 95.2939 522.498 92.0839 520.868 88.9539C520.538 88.3239 520.208 87.7039 519.878 87.0839C518.218 83.9839 516.478 80.9739 514.668 78.0939C504.548 61.9939 492.238 50.1339 478.838 50.6939C476.288 50.8039 474.038 51.0339 472.018 51.3839C470.798 51.5939 469.668 51.8539 468.598 52.1539C467.888 52.3539 467.198 52.5739 466.538 52.8139C464.228 53.6439 462.228 54.7139 460.318 56.0139C459.778 56.3839 459.238 56.7739 458.708 57.1739C458.178 57.5839 457.648 58.0039 457.118 58.4439C455.538 59.7739 453.948 61.2539 452.228 62.9039C450.798 64.2739 449.268 65.7539 447.588 67.3339C447.588 67.3339 447.658 67.2039 447.748 66.9739C447.808 66.8439 447.868 66.6939 447.938 66.4939C448.058 66.1739 448.198 65.7739 448.328 65.3039C448.418 64.9939 448.498 64.6539 448.578 64.2839C448.618 64.1039 448.648 63.9139 448.678 63.7139C448.738 63.3239 448.788 62.9139 448.828 62.4839C448.848 62.2739 448.858 62.0539 448.858 61.8239C448.858 61.5939 448.858 61.3739 448.858 61.1439C448.838 60.4539 448.748 59.7439 448.588 59.0139C448.038 56.5939 446.578 54.0539 443.338 51.9939C442.048 51.1739 440.468 50.4239 438.558 49.7939C436.888 49.2439 434.888 48.7939 432.668 48.4339C432.348 48.3839 432.028 48.3339 431.698 48.2839C430.388 48.0939 429.008 47.9239 427.578 47.7839C426.498 47.6739 425.398 47.5839 424.268 47.5039C422.008 47.3439 419.658 47.2339 417.268 47.1539C416.078 47.1139 414.868 47.0939 413.658 47.0739C412.448 47.0539 411.248 47.0439 410.038 47.0439C409.238 47.0439 408.438 47.0439 407.638 47.0439C405.248 47.0639 402.898 47.1039 400.648 47.1639C398.768 47.2139 396.958 47.2739 395.248 47.3439C392.788 47.4439 390.528 47.5539 388.578 47.6639C388.088 47.6939 387.608 47.7139 387.158 47.7439C385.188 47.8639 383.618 47.9639 382.568 48.0439C381.958 48.0839 381.528 48.1239 381.298 48.1339C381.168 48.1339 381.088 48.1539 381.088 48.1539C381.088 48.1539 385.418 31.5339 375.758 19.2939C375.538 19.0139 375.308 18.7439 375.078 18.4639C374.608 17.9139 374.108 17.3839 373.578 16.8539C373.318 16.5939 373.038 16.3339 372.758 16.0739C372.198 15.5639 371.608 15.0639 370.978 14.5839C370.038 13.8539 369.018 13.1639 367.918 12.5139C367.188 12.0839 366.418 11.6639 365.608 11.2639C364.798 10.8639 363.948 10.4939 363.068 10.1339C359.968 8.89389 356.368 7.91389 352.208 7.29389C352.188 7.29389 352.158 7.29389 352.138 7.28389C351.998 7.26389 351.848 7.24389 351.678 7.22389C350.988 7.14389 350.028 7.06389 348.868 7.03389C338.418 6.72389 311.088 9.98389 303.078 46.1439C303.078 46.1439 302.538 46.0239 301.578 45.8539C301.558 45.8539 301.548 45.8539 301.528 45.8539C301.088 45.7739 300.538 45.6839 299.928 45.5839C299.828 45.5639 299.738 45.5539 299.628 45.5339C299.008 45.4339 298.308 45.3339 297.548 45.2439C297.488 45.2439 297.438 45.2239 297.378 45.2239C290.168 44.3039 277.518 43.5939 267.858 47.8139C267.618 47.9239 267.368 48.0139 267.138 48.1239C266.138 48.5939 265.188 49.1339 264.268 49.7239C264.128 49.8139 263.988 49.8839 263.858 49.9739C262.898 50.6139 262.008 51.3339 261.168 52.1139C261.098 52.1839 261.018 52.2439 260.938 52.3139C260.908 52.3439 260.888 52.3739 260.858 52.3939C259.538 53.6739 258.388 55.1539 257.448 56.8539C257.448 56.8539 256.608 55.9539 255.058 54.7939C254.608 54.4539 254.088 54.0939 253.528 53.7339C253.228 53.5439 252.918 53.3439 252.578 53.1439C252.098 52.8639 251.588 52.5839 251.038 52.3139C250.298 51.9439 249.498 51.5839 248.648 51.2639C247.878 50.9739 247.068 50.7039 246.208 50.4839C244.918 50.1439 243.528 49.8939 242.058 49.7839C241.628 49.7539 241.198 49.7239 240.748 49.7239C237.888 49.6739 234.738 50.1539 231.358 51.4639C215.898 57.4539 214.328 66.7839 214.328 66.7839C214.328 66.7839 214.308 64.9539 213.918 62.4939C213.658 60.8439 213.218 58.9139 212.498 57.0439C211.898 55.4939 211.108 53.9939 210.058 52.7539C209.008 51.5139 206.788 50.4739 203.848 49.7339C203.478 49.6439 203.098 49.5539 202.708 49.4739C201.928 49.3039 201.108 49.1639 200.248 49.0339C199.388 48.9039 198.498 48.8039 197.578 48.7139C196.658 48.6339 195.708 48.5639 194.728 48.5239C193.758 48.4839 192.758 48.4639 191.748 48.4739C191.238 48.4739 190.728 48.4839 190.218 48.5039C188.678 48.5539 187.118 48.6539 185.548 48.8239C184.958 48.8839 184.358 48.9639 183.768 49.0439C182.788 49.1739 181.818 49.3239 180.848 49.5139C178.258 49.9939 175.708 50.6639 173.318 51.5339C171.888 52.0539 170.508 52.6439 169.208 53.3239C169.208 53.3239 169.158 53.3439 169.088 53.3939C169.008 53.4439 168.898 53.5239 168.768 53.6439C168.698 53.7039 168.628 53.7739 168.558 53.8539C168.408 54.0139 168.238 54.2239 168.068 54.4839C167.848 54.8339 167.618 55.2739 167.428 55.8239C167.138 56.6539 166.928 57.7439 166.898 59.1639C166.888 59.8739 166.918 60.6639 167.008 61.5439C167.008 61.5439 164.328 57.0839 158.158 54.0139C157.898 53.8839 157.628 53.7539 157.348 53.6239C153.748 51.9839 149.058 50.8639 143.138 51.2439C142.228 51.3039 141.288 51.3939 140.318 51.5339C130.628 52.8739 125.158 57.1639 122.118 61.0539C121.418 61.9539 120.848 62.8339 120.388 63.6439C120.138 64.0839 119.928 64.4939 119.738 64.8939C119.458 65.4839 119.228 66.0239 119.058 66.4839C118.888 66.9439 118.768 67.3339 118.678 67.6239C118.618 67.8139 118.588 67.9739 118.558 68.0739C118.538 68.1739 118.518 68.2339 118.518 68.2339C118.488 67.5239 118.398 66.7939 118.248 66.0539C118.098 65.3139 117.888 64.5639 117.608 63.8239C117.058 62.3239 116.248 60.8339 115.168 59.4039C112.998 56.5539 109.748 53.9839 105.258 52.2439C104.138 51.8139 102.938 51.4339 101.658 51.1039C101.018 50.9439 100.358 50.8039 99.678 50.6739C97.638 50.2839 95.428 50.0539 93.018 49.9839C84.998 49.7739 74.898 51.5339 62.448 56.3439C51.308 60.6439 42.058 66.0339 34.898 72.5339C34.838 72.5939 34.768 72.6439 34.708 72.7039C32.978 74.2839 31.388 75.9339 29.908 77.6439C28.668 79.0739 27.508 80.5539 26.448 82.0739C25.278 83.7539 24.218 85.4939 23.278 87.2839C22.098 89.5239 21.088 91.8539 20.258 94.2639C19.428 96.6839 18.778 99.1839 18.318 101.774C18.128 102.814 17.978 103.864 17.848 104.924C17.468 108.084 17.358 111.374 17.518 114.794C17.638 117.334 17.908 119.954 18.328 122.644C18.808 125.734 19.498 128.914 20.388 132.194C21.528 136.404 22.998 140.754 24.838 145.274C25.668 147.314 26.608 149.244 27.598 151.124C28.178 152.224 28.788 153.304 29.428 154.354C37.498 167.614 49.778 176.434 64.098 181.044C65.178 181.394 66.268 181.714 67.368 182.014C68.968 182.444 70.578 182.854 72.218 183.184C73.858 183.514 75.508 183.804 77.188 184.034C78.858 184.264 80.548 184.454 82.258 184.584C83.968 184.714 85.678 184.804 87.408 184.844C89.138 184.884 90.878 184.874 92.628 184.814C109.918 184.224 128.028 178.874 144.208 169.054C144.208 169.054 149.318 172.574 156.738 174.164C157.388 174.304 158.048 174.434 158.728 174.534C160.228 174.764 161.798 174.914 163.428 174.924C163.968 174.924 164.518 174.924 165.078 174.894C166.738 174.824 168.458 174.604 170.198 174.214C172.518 173.694 174.898 172.844 177.278 171.594C178.468 170.964 179.658 170.244 180.848 169.394C182.038 168.554 183.218 167.594 184.388 166.514C184.848 166.094 185.308 165.654 185.758 165.194C186.208 164.734 186.668 164.254 187.118 163.754C187.998 162.774 188.878 161.704 189.738 160.554C189.908 160.324 190.078 160.094 190.258 159.854C190.478 159.554 190.698 159.254 190.918 158.934C190.918 158.934 191.398 159.244 192.228 159.794C193.058 160.344 194.248 161.144 195.658 162.124C197.248 163.224 199.128 164.564 201.128 166.044C202.458 167.034 203.838 168.084 205.218 169.174C206.598 170.264 207.978 171.394 209.298 172.534C209.958 173.104 210.608 173.684 211.238 174.254C211.798 174.764 212.338 175.274 212.858 175.784C212.988 175.914 213.118 176.044 213.248 176.174C213.508 176.444 213.778 176.714 214.038 177.004C214.308 177.294 214.568 177.584 214.848 177.894C215.388 178.504 215.948 179.134 216.508 179.784C216.938 180.274 217.368 180.764 217.808 181.264C218.308 181.824 218.818 182.384 219.338 182.944C220.118 183.774 220.938 184.594 221.788 185.364C223.208 186.644 224.738 187.804 226.398 188.684C227.068 189.034 227.748 189.344 228.458 189.604C229.528 189.984 230.648 190.254 231.828 190.374C232.218 190.414 232.618 190.434 233.028 190.434C237.128 190.474 241.948 188.714 247.728 183.984C248.068 183.704 248.408 183.414 248.758 183.114C249.798 182.214 250.868 181.224 251.978 180.134C252.348 179.774 252.718 179.394 253.088 179.004C253.838 178.234 254.608 177.414 255.378 176.544C255.768 176.114 256.158 175.664 256.558 175.204C256.558 175.204 256.658 175.214 256.848 175.224C256.938 175.224 257.058 175.224 257.198 175.224C257.338 175.224 257.498 175.224 257.678 175.224C258.408 175.204 259.458 175.134 260.768 174.904C263.058 174.504 266.128 173.634 269.598 171.754C270.098 171.484 270.598 171.194 271.108 170.884C271.108 170.884 270.688 172.044 272.098 173.184C272.938 173.874 274.438 174.554 277.088 174.964C278.038 175.114 279.148 175.234 280.418 175.304C281.058 175.344 281.738 175.364 282.458 175.374C283.548 175.394 284.738 175.374 286.038 175.334C286.908 175.304 287.828 175.254 288.798 175.194C291.228 175.034 293.988 174.774 297.128 174.384C298.028 174.274 298.958 174.154 299.918 174.014C299.918 174.014 300.678 173.804 301.688 173.204C301.978 173.034 302.288 172.824 302.608 172.584C302.928 172.344 303.258 172.064 303.588 171.744C304.408 170.944 305.218 169.894 305.838 168.514C305.838 168.514 305.868 168.484 305.928 168.454C306.098 168.344 306.498 168.114 307.018 168.134C307.218 168.134 307.428 168.174 307.658 168.274C307.768 168.324 307.888 168.384 308.008 168.454C308.238 168.604 308.488 168.824 308.728 169.114C309.218 169.704 309.708 170.634 310.148 172.044C310.258 172.394 310.398 172.824 310.568 173.324C310.698 173.694 310.838 174.104 310.998 174.534C311.108 174.824 311.218 175.124 311.338 175.444C313.768 181.714 319.008 192.414 325.798 192.694C326.118 192.704 326.438 192.694 326.768 192.664C329.048 192.424 331.478 190.984 334.038 187.824C334.038 187.824 335.798 185.624 337.848 181.884C338.528 180.634 339.248 179.224 339.938 177.654C340.858 175.564 341.748 173.224 342.468 170.674C342.468 170.674 342.658 170.724 343.018 170.784C343.028 170.784 343.038 170.784 343.048 170.784C343.538 170.864 344.348 170.974 345.428 171.014C345.748 171.024 346.078 171.034 346.438 171.034C347.178 171.034 348.008 171.014 348.938 170.934C349.868 170.864 350.878 170.744 351.988 170.554C354.198 170.194 356.768 169.574 359.638 168.564C360.358 168.314 361.098 168.034 361.848 167.734C361.848 167.734 364.598 174.724 388.978 168.464C391.308 167.864 393.548 167.444 395.678 167.164C397.938 166.874 400.088 166.754 402.128 166.754C402.828 166.754 403.508 166.774 404.178 166.804C405.518 166.874 406.808 166.994 408.058 167.164C415.518 168.194 421.208 170.954 425.308 173.334C425.648 173.534 425.978 173.724 426.298 173.924C426.758 174.204 427.198 174.474 427.618 174.734C428.448 175.254 429.198 175.724 429.848 176.124C430.498 176.524 431.058 176.834 431.538 177.044C444.008 182.584 454.158 175.764 454.158 175.764C454.158 175.764 454.458 175.814 454.978 175.884C457.018 176.164 462.588 176.784 467.728 176.164C470.548 175.824 473.258 175.344 475.528 174.874C479.258 174.104 481.818 173.364 481.818 173.364C481.818 173.364 486.338 191.804 494.248 189.264C501.948 186.794 509.248 182.234 515.708 177.024C516.788 176.154 517.838 175.274 518.868 174.374C519.378 173.924 519.888 173.474 520.388 173.024C521.388 172.114 522.368 171.204 523.318 170.284C523.788 169.824 524.258 169.364 524.718 168.914C525.638 167.994 526.528 167.084 527.388 166.184C527.818 165.734 528.238 165.284 528.658 164.834C529.488 163.944 530.278 163.064 531.038 162.194C532.558 160.474 533.948 158.824 535.178 157.304C536.718 155.404 538.028 153.704 539.058 152.314C540.408 150.504 540.918 148.334 540.848 146.114C540.818 145.374 540.728 144.634 540.578 143.894L540.618 143.904ZM347.458 10.0739C363.658 9.89389 377.278 22.7739 378.068 39.0039C378.338 44.4839 377.118 49.6939 374.808 54.2539C372.188 58.7739 368.848 62.2839 366.298 64.5639C361.018 68.6639 354.338 71.0639 347.038 70.9039C331.518 70.5539 318.648 58.2539 317.508 42.7439C316.228 25.2139 329.928 10.2639 347.458 10.0739ZM138.888 156.254C49.398 199.164 6.22801 87.8339 59.498 62.7939C89.508 48.6839 121.818 53.2239 113.318 85.6839C111.268 93.5139 89.858 107.084 89.578 100.154C89.278 92.7539 87.288 81.8239 77.398 93.5539C67.508 105.284 78.188 132.984 96.138 133.164C124.138 133.454 95.348 99.3439 125.658 99.6639C130.618 99.7139 135.658 103.884 138.738 108.044C147.398 119.744 151.818 140.114 144.708 151.974C143.168 153.664 141.258 155.134 138.898 156.264L138.888 156.254ZM103.978 129.134C96.398 134.324 87.248 127.404 85.608 126.194C80.988 122.804 77.008 113.584 79.748 113.614C82.078 113.634 87.238 128.084 96.758 126.314C102.118 125.314 101.468 122.094 102.368 121.214C106.098 117.584 110.738 124.514 103.978 129.134ZM190.348 150.584C190.348 150.584 190.298 150.584 190.268 150.584C184.218 161.024 170.898 164.404 147.238 153.004C150.628 147.104 157.208 132.244 141.438 106.374C135.138 96.0439 128.258 96.3139 121.398 96.6639C120.618 81.8239 127.588 34.4639 165.738 66.5739C167.878 68.3739 169.968 70.4939 171.968 72.8539C171.968 72.8239 171.948 72.7939 171.948 72.7639C175.918 78.0039 181.548 86.1439 186.258 95.7439C199.208 122.104 195.908 139.914 190.328 150.584H190.348ZM256.088 165.254C254.578 166.634 252.788 168.124 250.668 169.754C250.668 169.754 234.628 182.304 222.618 165.354C214.938 154.524 203.388 150.214 193.498 150.394C200.808 135.074 199.188 115.854 188.718 94.5439C182.208 81.2839 173.968 70.7239 170.548 66.5839C169.798 62.7639 169.388 59.1639 170.268 58.2939C172.298 56.2839 205.558 42.1739 210.678 63.8039C215.328 83.4339 203.478 114.064 203.478 114.064L204.808 123.894C204.808 123.894 220.788 129.274 224.618 133.074C222.058 130.114 210.568 116.544 211.218 112.334C211.548 110.184 211.688 107.934 215.208 106.084C216.898 105.764 218.598 105.394 220.238 105.044C232.978 102.334 240.868 101.164 243.088 107.864C245.628 115.524 252.868 132.444 255.958 139.664C256.738 141.484 257.298 142.794 257.428 143.134C257.668 143.754 257.998 144.414 258.378 145.194C260.658 149.814 264.028 156.644 256.098 165.264L256.088 165.254ZM280.278 160.654C275.718 163.804 269.508 164.764 261.398 162.664C266.068 154.614 262.778 147.924 260.818 143.964C260.458 143.244 260.158 142.624 259.958 142.114C259.808 141.734 259.268 140.474 258.448 138.574C255.368 131.384 248.168 114.534 245.658 106.984C242.518 97.4939 231.408 99.8539 219.658 102.364C219.008 102.504 218.338 102.644 217.668 102.784C217.538 100.654 217.458 98.4839 217.458 96.1939C217.458 96.1939 219.978 25.5339 264.108 64.7439C264.588 65.1639 265.048 65.6039 265.518 66.0639C272.918 75.7939 280.908 90.1739 285.418 105.764C289.868 121.144 292.448 142.924 280.268 160.654H280.278ZM344.298 153.044C340.478 163.874 336.518 175.034 334.568 180.534C334.128 181.774 332.398 181.824 331.888 180.614C326.658 168.314 308.518 127.274 300.298 129.724C300.298 129.724 305.908 150.174 307.018 154.604C308.128 159.034 306.298 167.754 284.678 165.414C284.678 165.414 283.138 164.714 281.908 163.074C295.388 144.304 292.738 121.214 288.058 104.994C282.688 86.4139 273.168 70.8339 265.398 61.4739C265.548 54.5439 268.988 49.4939 282.988 48.9139C307.028 47.9239 330.868 65.0539 336.498 81.8439C338.188 92.6039 336.248 101.774 330.688 109.104C327.408 113.434 323.698 115.914 321.898 116.954C319.398 118.194 316.538 119.224 313.228 119.964C313.228 119.964 323.418 122.974 332.558 128.134C334.198 129.164 336.198 130.444 338.178 132.354C344.358 138.314 344.918 146.954 344.328 153.034L344.298 153.044ZM373.338 153.614C366.138 160.444 354.278 165.424 346.628 156.364C346.928 154.604 347.178 152.464 347.228 150.104C347.388 141.894 344.908 135.064 340.048 130.394C337.778 128.214 335.568 126.824 333.788 125.704C333.368 125.434 332.968 125.184 332.608 124.944C331.698 121.384 330.948 117.554 330.478 113.554C331.248 112.744 332.018 111.864 332.768 110.874C337.078 105.234 341.538 95.5139 339.088 80.8339C345.958 77.8439 357.648 73.6939 363.748 76.9039C365.558 77.8539 366.758 79.2939 367.538 81.0239C367.528 80.8539 367.518 80.6939 367.508 80.5239C368.378 83.2539 368.948 87.7439 368.438 95.1139C368.238 97.1139 368.018 99.0739 367.878 100.894C367.608 103.104 367.268 105.514 366.828 108.144C366.028 112.914 368.848 118.674 371.828 124.764C376.748 134.814 381.818 145.184 373.358 153.634C373.358 153.634 373.358 153.624 373.348 153.614H373.338ZM461.268 163.964C455.878 166.924 446.468 168.864 433.478 159.564C412.068 144.244 389.678 156.594 380.188 158.014C378.138 158.324 376.428 157.454 374.968 155.844C385.218 145.974 379.178 133.604 374.258 123.554C373.448 121.894 372.648 120.254 371.938 118.674C378.638 112.954 388.508 107.794 388.508 107.794C388.508 107.794 438.488 82.5339 417.118 84.5239C395.748 86.5139 386.168 85.8039 388.008 98.0939C389.018 104.834 383.998 105.574 376.208 108.154C374.098 108.854 372.188 105.584 370.668 100.394C372.188 87.1639 371.138 78.6739 367.498 75.1439C367.418 75.0639 367.328 75.0139 367.248 74.9339C367.198 72.2339 367.248 69.6239 367.408 67.2539C370.428 64.6639 374.818 60.2339 377.948 54.2139C392.088 52.4339 420.888 53.0439 434.058 55.0139C445.778 56.7639 444.318 71.6739 441.868 77.7739C433.208 99.3339 398.608 124.204 398.608 124.204C408.228 120.924 423.398 130.484 423.398 130.484C418.188 126.174 418.118 119.484 418.118 119.484C420.638 106.364 438.458 104.064 447.438 103.744C447.978 103.894 448.578 104.154 449.188 104.604C451.178 106.084 453.628 109.844 454.018 119.314C454.368 127.894 459.108 134.604 463.288 140.524C466.988 145.764 470.178 150.284 469.308 154.674C468.698 157.764 466.038 160.804 461.258 163.954L461.268 163.964ZM391.228 97.5139C393.968 94.9539 403.108 94.3839 407.268 94.2539C407.808 94.2339 408.008 94.9639 407.538 95.2339C404.028 97.1839 396.478 101.374 394.038 102.664C390.028 104.784 389.658 98.9739 391.228 97.5139ZM533.738 151.414C526.328 160.994 505.088 186.944 499.148 177.894C491.918 166.874 502.368 117.654 485.868 118.334C478.448 118.644 475.538 123.644 482.078 137.784C488.608 151.924 489.848 161.394 482.708 162.514C478.288 163.204 470.848 164.814 465.328 164.414C469.168 161.434 471.358 158.394 471.988 155.214C473.088 149.674 469.408 144.464 465.518 138.944C461.558 133.334 457.068 126.974 456.748 119.194C456.398 110.654 454.378 104.984 450.738 102.344C449.858 101.704 448.978 101.324 448.178 101.104C448.468 81.9739 453.738 63.8439 470.518 56.5939C470.518 56.5939 488.018 50.2639 501.548 68.4839H501.528C514.298 85.6939 530.658 115.404 535.938 143.134C536.498 146.054 535.548 149.064 533.728 151.414H533.738Z" fill="#0F0F0F"/>
<path d="M359.698 168.573C356.818 169.573 354.258 170.193 352.048 170.563C354.258 170.203 356.828 169.583 359.698 168.573Z" fill="#0F0F0F"/>
<path d="M18.348 101.764C18.818 99.1739 19.458 96.6639 20.288 94.2539C19.458 96.6739 18.808 99.1739 18.348 101.764Z" fill="#0F0F0F"/>
<path d="M195.688 162.103C194.268 161.123 193.088 160.323 192.258 159.773C193.088 160.323 194.278 161.123 195.688 162.103Z" fill="#0F0F0F"/>
<path d="M297.578 45.2432C298.338 45.3432 299.038 45.4432 299.658 45.5332C299.038 45.4332 298.338 45.3332 297.578 45.2432Z" fill="#0F0F0F"/>
<path d="M260.888 52.4032C260.888 52.4032 260.938 52.3432 260.968 52.3232C260.938 52.3532 260.918 52.3832 260.888 52.4032Z" fill="#0F0F0F"/>
<path d="M261.188 52.1136C262.028 51.3236 262.928 50.6136 263.878 49.9736C262.918 50.6136 262.028 51.3336 261.188 52.1136Z" fill="#0F0F0F"/>
<path d="M297.408 45.2132C290.198 44.2932 277.548 43.5832 267.888 47.8032C277.548 43.5732 290.198 44.2832 297.408 45.2132Z" fill="#0F0F0F"/>
<path d="M299.658 45.5332C299.758 45.5532 299.858 45.5632 299.958 45.5832C299.858 45.5632 299.768 45.5532 299.658 45.5332Z" fill="#0F0F0F"/>
<path d="M267.168 48.1235C267.408 48.0135 267.648 47.9135 267.888 47.8135C267.648 47.9235 267.398 48.0135 267.168 48.1235Z" fill="#0F0F0F"/>
<path d="M260.968 52.3133C261.038 52.2433 261.118 52.1833 261.198 52.1133C261.128 52.1833 261.048 52.2433 260.968 52.3133Z" fill="#0F0F0F"/>
<path d="M263.878 49.9736C264.008 49.8836 264.158 49.8036 264.288 49.7236C264.148 49.8136 264.008 49.8836 263.878 49.9736Z" fill="#0F0F0F"/>
<path d="M381.328 48.133C381.558 48.113 381.988 48.083 382.598 48.043C381.988 48.083 381.558 48.123 381.328 48.133Z" fill="#0F0F0F"/>
<path d="M382.588 48.0334C383.638 47.9634 385.198 47.8534 387.178 47.7334C385.208 47.8534 383.638 47.9534 382.588 48.0334Z" fill="#0F0F0F"/>
<path d="M381.118 48.143C381.118 48.143 381.198 48.143 381.328 48.123C381.198 48.123 381.118 48.143 381.118 48.143Z" fill="#0F0F0F"/>
<path d="M167.448 55.8039C167.638 55.2539 167.868 54.8039 168.088 54.4639C167.868 54.8139 167.638 55.2539 167.448 55.8039Z" fill="#0F0F0F"/>
<path d="M447.598 67.3131C447.598 67.3131 447.658 67.1831 447.758 66.9531C447.658 67.1731 447.598 67.3131 447.598 67.3131Z" fill="#0F0F0F"/>
<path d="M447.948 66.4736C447.878 66.6736 447.808 66.8236 447.758 66.9536C447.818 66.8236 447.878 66.6736 447.948 66.4736Z" fill="#0F0F0F"/>
<path d="M432.678 48.4238C434.908 48.7838 436.898 49.2338 438.568 49.7838C436.898 49.2338 434.898 48.7838 432.678 48.4238Z" fill="#0F0F0F"/>
<path d="M307.078 168.133C306.558 168.123 306.158 168.343 305.988 168.453C306.158 168.343 306.558 168.113 307.078 168.133Z" fill="#0F0F0F"/>
<path d="M326.828 192.653C329.108 192.413 331.538 190.973 334.098 187.813C331.548 190.973 329.108 192.413 326.828 192.653Z" fill="#0F0F0F"/>
<path d="M297.178 174.384C294.038 174.774 291.278 175.044 288.848 175.194C291.278 175.034 294.048 174.774 297.178 174.384Z" fill="#0F0F0F"/>
<path d="M345.488 171.013C344.408 170.963 343.598 170.863 343.108 170.783C343.598 170.863 344.408 170.973 345.488 171.013Z" fill="#0F0F0F"/>
<path d="M346.498 171.034C346.138 171.034 345.798 171.024 345.488 171.014C345.808 171.024 346.138 171.034 346.498 171.034Z" fill="#0F0F0F"/>
<path d="M408.118 167.193C406.878 167.023 405.588 166.903 404.238 166.833C405.578 166.903 406.868 167.023 408.118 167.193Z" fill="#0F0F0F"/>
<path d="M425.358 173.354C421.268 170.974 415.568 168.214 408.108 167.184C415.568 168.214 421.258 170.974 425.358 173.354Z" fill="#0F0F0F"/>
<path d="M77.2281 184.024C75.5581 183.794 73.8981 183.504 72.2581 183.174C73.8981 183.504 75.5481 183.794 77.2281 184.024Z" fill="#0F0F0F"/>
<path d="M29.458 154.333C37.528 167.593 49.808 176.413 64.128 181.023C49.798 176.413 37.528 167.593 29.458 154.333Z" fill="#0F0F0F"/>
<path d="M226.428 188.664C224.768 187.784 223.238 186.634 221.818 185.344C223.238 186.624 224.768 187.784 226.428 188.664Z" fill="#0F0F0F"/>
<path d="M219.368 182.923C218.848 182.373 218.338 181.803 217.838 181.243C218.338 181.803 218.848 182.363 219.368 182.923Z" fill="#0F0F0F"/>
<path d="M231.858 190.343C230.678 190.223 229.558 189.963 228.488 189.573C229.558 189.953 230.678 190.223 231.858 190.343Z" fill="#0F0F0F"/>
<path d="M144.248 169.033C144.248 169.033 149.358 172.553 156.778 174.143C149.368 172.553 144.248 169.033 144.248 169.033Z" fill="#0F0F0F"/>
<path d="M158.768 174.523C158.088 174.413 157.428 174.283 156.778 174.153C157.428 174.293 158.088 174.423 158.768 174.523Z" fill="#0F0F0F"/>
<path d="M157.368 53.6037C153.768 51.9637 149.078 50.8437 143.158 51.2237C149.078 50.8437 153.768 51.9737 157.368 53.6037Z" fill="#0F0F0F"/>
<path d="M140.338 51.5137C130.648 52.8537 125.178 57.1437 122.138 61.0337C125.178 57.1437 130.638 52.8537 140.338 51.5137Z" fill="#0F0F0F"/>
<path d="M242.088 49.7832C243.558 49.8932 244.938 50.1432 246.238 50.4832C244.948 50.1432 243.558 49.8932 242.088 49.7832Z" fill="#0F0F0F"/>
<path d="M253.548 53.7334C254.118 54.1034 254.628 54.4634 255.078 54.7934C254.628 54.4534 254.108 54.0934 253.548 53.7334Z" fill="#0F0F0F"/>
<path d="M292.958 79.1634C292.098 78.9934 291.318 79.7234 291.438 80.6034L295.388 108.903C295.538 109.973 296.858 110.383 297.598 109.593C303.238 103.483 318.358 84.3834 292.968 79.1734L292.958 79.1634ZM297.358 106.983C297.138 107.213 296.758 107.083 296.708 106.773L294.958 94.2134C294.918 93.9534 295.158 93.7334 295.408 93.7834C306.878 96.0034 299.528 104.703 297.358 106.983Z" fill="#0F0F0F"/>
<path d="M250.218 89.0538C245.978 90.8138 246.048 100.714 250.368 111.164C254.688 121.614 261.628 128.654 265.868 126.894C270.108 125.134 270.038 115.234 265.718 104.784C261.398 94.3338 254.458 87.2938 250.218 89.0538ZM261.028 121.644C259.958 122.464 257.608 120.254 255.768 116.714C253.938 113.164 253.308 109.624 254.388 108.804C255.458 107.984 257.808 110.194 259.648 113.734C261.488 117.274 262.098 120.824 261.028 121.644Z" fill="#0F0F0F"/>
<path d="M480.588 82.0132C476.098 84.1132 473.088 103.183 476.628 106.953C479.928 110.453 490.328 105.253 491.468 101.143C492.788 96.3732 485.078 79.9132 480.578 82.0132H480.588ZM483.208 103.233C482.768 104.793 478.738 106.763 477.468 105.443C476.088 104.023 477.268 96.8032 479.008 96.0032C480.748 95.2032 483.728 101.433 483.208 103.233Z" fill="#0F0F0F"/>
<path d="M153.148 92.833C149.108 94.643 149.428 104.183 153.868 114.133C158.308 124.093 165.168 130.693 169.208 128.883C173.248 127.073 172.928 117.533 168.488 107.583C164.048 97.623 157.188 91.023 153.148 92.833ZM166.558 125.913C165.428 126.783 162.948 124.453 161.018 120.713C159.088 116.973 158.428 113.233 159.558 112.363C160.688 111.493 163.168 113.823 165.098 117.563C167.028 121.303 167.688 125.043 166.558 125.913Z" fill="#0F0F0F"/>
<path d="M546.508 141.713C546.458 141.453 541.108 117.133 530.208 93.0631C515.658 60.9631 497.838 43.8831 478.658 43.6831C465.708 43.5531 459.038 47.8831 453.128 52.9531C450.858 48.4231 446.608 45.1031 440.458 43.0731C428.038 38.9931 400.488 39.9631 388.038 40.6631C388.368 34.0731 387.518 24.9431 382.128 16.7831C376.238 7.87313 366.488 2.34313 353.138 0.343127C351.808 0.143127 339.718 -1.43687 326.598 4.40313C317.208 8.58313 304.798 17.8531 298.688 38.3031C294.988 37.8131 289.668 37.3331 283.928 37.5331C271.888 37.9631 262.398 41.3631 256.398 47.3931C251.258 44.1831 241.448 40.1031 229.238 44.8331C224.518 46.6631 220.468 48.9631 217.178 51.6631C216.458 50.2231 215.618 48.9431 214.688 47.8431C207.728 39.6231 181.608 39.1431 166.498 46.9431C165.898 47.2531 164.828 47.9431 163.778 49.2231C158.888 46.0931 150.898 42.9631 139.538 44.5431C131.108 45.7131 124.348 48.8931 119.418 54.0131C117.728 51.9531 115.708 50.1431 113.398 48.6231C104.908 43.0531 88.808 38.7131 60.338 49.7031C38.108 58.2831 23.248 70.9331 16.178 87.2931C9.01805 103.863 10.078 123.773 19.328 146.493C26.748 164.723 40.828 178.023 59.578 184.803C83.678 197.093 74.998 208.833 71.968 216.793C70.978 219.393 70.208 222.013 70.238 224.803C70.288 229.363 72.848 232.593 76.328 232.563C79.878 232.533 82.3881 229.313 82.1581 224.723C81.9381 220.413 81.4181 216.113 81.0881 211.803C80.7981 208.023 80.108 204.263 80.508 200.443C80.708 198.513 81.598 197.193 83.678 197.103C85.668 197.023 86.778 198.223 87.428 199.973C88.058 201.683 87.698 203.353 87.178 204.983C86.658 206.613 86.078 208.233 86.188 209.963C86.358 212.523 86.788 215.253 89.888 215.633C93.308 216.053 94.038 213.143 94.218 210.703C94.918 201.223 89.0981 191.573 105.698 188.533C105.998 188.473 106.328 188.433 106.638 188.373C106.898 188.333 107.158 188.283 107.428 188.243C107.548 188.223 107.638 188.193 107.748 188.173C120.328 185.943 132.718 181.483 144.228 174.973C156.218 181.333 173.978 183.273 188.498 169.883C189.588 168.883 190.638 167.813 191.628 166.713C191.838 166.473 192.048 166.233 192.268 165.993C196.558 168.963 203.738 174.173 208.718 179.033C209.678 179.963 210.758 181.203 211.898 182.523C216.588 187.903 222.998 195.283 233.008 195.383H233.228C241.418 195.383 249.958 190.383 259.348 180.113C260.148 180.043 261.088 179.923 262.128 179.733C262.338 180.443 262.628 181.103 262.988 181.643C264.798 184.363 265.708 187.243 265.488 190.523C265.238 194.343 264.368 198.003 263.258 201.653C262.098 205.483 261.568 209.363 263.958 213.023C265.238 214.983 267.178 215.763 269.358 215.603C271.608 215.433 273.208 214.153 273.988 211.913C275.118 208.663 274.788 205.463 273.838 202.253C272.968 199.343 272.218 196.413 273.558 193.423C274.928 190.353 277.508 190.003 279.598 192.603C282.868 196.663 283.698 196.663 286.858 192.613C290.358 188.133 295.088 188.593 297.618 193.703C299.238 196.963 298.918 200.313 297.998 203.683C296.088 210.743 295.288 217.823 297.508 224.983C298.508 228.203 300.088 231.083 303.868 230.833C307.598 230.593 308.568 227.573 308.788 224.323C308.858 223.273 308.918 222.233 308.968 221.183C309.318 214.413 307.558 207.953 306.198 201.413C305.598 198.523 305.648 195.573 308.438 193.593C309.858 192.583 311.428 192.603 312.838 193.663C315.618 195.763 315.128 198.723 314.698 201.583C314.308 204.163 313.128 206.563 313.258 209.273C313.388 212.173 314.738 213.983 317.518 214.623C320.238 215.253 322.078 213.893 323.338 211.653C325.108 208.503 324.648 205.353 323.158 202.243C322.428 200.713 321.488 199.233 321.028 197.623C320.918 197.243 320.828 196.863 320.768 196.483C321.728 196.913 322.728 197.243 323.778 197.443C324.518 197.583 325.268 197.663 326.018 197.663C329.198 197.693 333.988 196.483 338.798 190.533C338.988 190.293 343.478 184.643 346.748 176.013C349.828 176.013 354.528 175.563 360.568 173.583C366.378 176.983 376.458 176.873 390.538 173.253C392.548 172.733 394.558 172.353 396.518 172.093C398.398 171.853 400.298 171.733 402.178 171.733H402.418C413.398 171.853 420.858 176.523 425.308 179.313C426.798 180.243 427.978 180.983 429.148 181.503C435.998 184.543 442.288 184.573 447.188 183.653C447.228 183.653 447.258 183.653 447.298 183.633C466.878 179.613 448.528 193.053 451.508 210.313C451.638 212.753 452.308 215.683 455.738 215.333C458.848 215.013 459.328 212.303 459.558 209.743C459.708 208.013 459.158 206.383 458.678 204.743C458.188 203.103 457.868 201.423 458.538 199.733C459.218 198.003 460.348 196.813 462.338 196.943C464.408 197.073 465.278 198.413 465.438 200.343C465.758 204.163 464.988 207.913 464.618 211.693C464.198 215.993 463.588 220.283 463.278 224.593C462.948 229.183 465.398 232.453 468.948 232.553C472.428 232.653 475.058 229.483 475.198 224.923C475.288 222.133 474.578 219.503 473.638 216.883C470.768 208.853 471.858 204.793 478.938 200.243C482.548 197.923 484.968 195.273 485.638 191.833C486.208 192.293 486.808 192.703 487.428 193.053C490.178 194.593 493.178 194.903 496.118 193.963C518.288 186.853 536.918 164.253 543.908 154.873C546.568 151.293 547.488 146.603 546.488 141.683L546.508 141.713ZM539.098 152.323C538.068 153.713 536.758 155.413 535.218 157.313C533.988 158.833 532.598 160.483 531.078 162.203C530.318 163.063 529.518 163.943 528.698 164.843C528.288 165.293 527.858 165.743 527.428 166.193C526.568 167.093 525.678 168.013 524.758 168.923C524.298 169.383 523.828 169.843 523.358 170.293C522.408 171.213 521.438 172.123 520.428 173.033C519.928 173.483 519.418 173.933 518.908 174.383C517.878 175.283 516.828 176.163 515.748 177.033C509.288 182.243 501.998 186.803 494.288 189.273C486.368 191.813 481.858 173.373 481.858 173.373C481.858 173.373 480.098 173.873 477.378 174.493C476.818 174.623 476.208 174.753 475.578 174.883C473.308 175.353 470.608 175.833 467.778 176.173C462.638 176.783 457.068 176.173 455.028 175.893C454.508 175.823 454.208 175.773 454.208 175.773C454.208 175.773 451.348 177.703 446.788 178.673C442.768 179.533 437.428 179.653 431.578 177.053C431.108 176.843 430.538 176.523 429.888 176.133C429.238 175.743 428.498 175.263 427.658 174.743C427.238 174.483 426.798 174.213 426.338 173.933C421.238 170.863 413.308 166.813 402.178 166.763C400.138 166.763 397.988 166.873 395.728 167.173C393.588 167.453 391.358 167.873 389.028 168.473C364.648 174.733 361.898 167.743 361.898 167.743C361.138 168.043 360.398 168.323 359.688 168.573C356.808 169.573 354.248 170.193 352.038 170.563C350.928 170.743 349.918 170.863 348.988 170.943C348.058 171.013 347.228 171.043 346.488 171.043C343.908 171.043 342.518 170.673 342.518 170.673C341.798 173.223 340.918 175.573 339.988 177.653C339.298 179.213 338.578 180.633 337.898 181.883C335.848 185.623 334.088 187.823 334.088 187.823C331.168 191.433 328.398 192.803 325.858 192.693C324.558 192.643 323.318 192.203 322.148 191.493C317.168 188.483 313.368 180.513 311.398 175.443C311.278 175.133 311.158 174.823 311.058 174.533C310.898 174.103 310.748 173.693 310.628 173.323C310.458 172.833 310.318 172.403 310.208 172.043C310.178 171.963 310.158 171.893 310.128 171.813C309.708 170.543 309.248 169.673 308.788 169.113C308.548 168.813 308.298 168.603 308.068 168.453C307.948 168.373 307.838 168.313 307.718 168.273C307.488 168.183 307.278 168.143 307.078 168.133C306.388 168.113 305.898 168.523 305.898 168.523C305.278 169.903 304.468 170.953 303.648 171.753C303.318 172.073 302.988 172.353 302.668 172.593C302.348 172.833 302.038 173.043 301.748 173.213C300.728 173.813 299.978 174.023 299.978 174.023C299.018 174.153 298.088 174.283 297.188 174.393C294.048 174.783 291.288 175.053 288.858 175.203C287.888 175.263 286.968 175.313 286.098 175.343C284.798 175.393 283.598 175.403 282.518 175.383C281.788 175.373 281.108 175.343 280.478 175.313C279.208 175.243 278.098 175.123 277.148 174.973C274.508 174.553 273.008 173.873 272.158 173.193C271.338 172.533 271.148 171.873 271.118 171.423C271.098 171.103 271.168 170.893 271.168 170.893C270.858 171.083 270.558 171.243 270.248 171.423C270.048 171.533 269.848 171.653 269.658 171.763C266.698 173.363 264.028 174.233 261.878 174.703C261.518 174.783 261.158 174.853 260.828 174.913C259.518 175.143 258.468 175.213 257.738 175.233C257.558 175.233 257.398 175.233 257.258 175.233C257.118 175.233 256.998 175.233 256.908 175.233C256.718 175.233 256.618 175.213 256.618 175.213C256.218 175.673 255.828 176.113 255.438 176.553C254.658 177.423 253.898 178.243 253.148 179.013C252.768 179.403 252.398 179.773 252.038 180.143C250.938 181.233 249.858 182.223 248.818 183.123C248.468 183.423 248.128 183.713 247.788 183.993C242.008 188.723 237.188 190.483 233.088 190.443C226.568 190.373 221.848 185.763 217.868 181.283C217.428 180.783 216.998 180.293 216.568 179.803C215.998 179.153 215.448 178.513 214.908 177.913C214.638 177.613 214.368 177.313 214.098 177.023C213.828 176.733 213.568 176.463 213.308 176.193C213.178 176.063 213.048 175.933 212.918 175.803C212.398 175.293 211.858 174.783 211.298 174.273C206.278 169.673 199.968 165.083 195.718 162.143C194.298 161.163 193.118 160.363 192.288 159.813C191.458 159.263 190.978 158.953 190.978 158.953C190.758 159.263 190.538 159.563 190.318 159.873C190.148 160.113 189.978 160.343 189.798 160.573C188.938 161.723 188.058 162.793 187.178 163.773C186.728 164.273 186.278 164.753 185.818 165.213C185.358 165.673 184.908 166.113 184.448 166.533C183.278 167.613 182.088 168.573 180.908 169.413C179.718 170.253 178.528 170.983 177.338 171.613C174.958 172.863 172.578 173.703 170.258 174.233C168.518 174.623 166.808 174.843 165.138 174.913C164.588 174.933 164.038 174.943 163.488 174.943C161.858 174.923 160.288 174.783 158.788 174.553C150.308 173.233 144.268 169.063 144.268 169.063C132.718 176.073 120.188 180.793 107.668 183.143C102.648 184.083 97.628 184.653 92.678 184.833C90.928 184.893 89.188 184.903 87.458 184.863C85.728 184.823 84.0081 184.743 82.3081 184.603C80.6081 184.463 78.9181 184.283 77.2381 184.053C75.5681 183.823 73.908 183.533 72.268 183.203C68.628 182.463 65.078 181.473 61.668 180.233C47.288 175.023 35.188 165.403 27.638 151.143C26.648 149.263 25.708 147.333 24.878 145.293C23.038 140.773 21.568 136.423 20.428 132.213C19.538 128.943 18.848 125.753 18.368 122.663C17.948 119.983 17.678 117.363 17.558 114.813C17.408 111.403 17.518 108.113 17.888 104.943C18.018 103.873 18.168 102.823 18.358 101.793C19.288 96.6031 20.958 91.7731 23.318 87.2931C24.268 85.5031 25.318 83.7631 26.488 82.0831C27.548 80.5531 28.708 79.0831 29.948 77.6531C31.428 75.9431 33.018 74.2931 34.748 72.7131C34.808 72.6531 34.878 72.6031 34.938 72.5431C42.098 66.0431 51.348 60.6531 62.488 56.3531C74.948 51.5431 85.0481 49.7831 93.0581 49.9931C95.4581 50.0531 97.678 50.2931 99.718 50.6831C100.398 50.8131 101.058 50.9531 101.698 51.1131C102.978 51.4331 104.178 51.8131 105.298 52.2531C109.788 53.9831 113.048 56.5631 115.208 59.4131C116.288 60.8431 117.098 62.3331 117.648 63.8331C117.928 64.5831 118.138 65.3331 118.288 66.0631C118.438 66.7931 118.528 67.5331 118.558 68.2431C118.558 68.2431 118.568 68.1931 118.598 68.0831C118.618 67.9831 118.658 67.8231 118.718 67.6331C118.798 67.3431 118.928 66.9531 119.098 66.4931C119.268 66.0331 119.488 65.4931 119.778 64.9031C119.968 64.5131 120.188 64.0931 120.428 63.6531C122.898 59.3031 128.428 53.1931 140.358 51.5431C148.108 50.4731 153.968 51.9231 158.198 54.0231C164.368 57.0931 167.048 61.5531 167.048 61.5531C166.558 56.8531 167.778 54.7331 168.598 53.8631C168.668 53.7831 168.738 53.7131 168.808 53.6531C168.938 53.5331 169.048 53.4531 169.128 53.4031C169.208 53.3531 169.248 53.3331 169.248 53.3331C170.548 52.6631 171.928 52.0731 173.358 51.5431C175.748 50.6731 178.288 50.0131 180.888 49.5231C181.858 49.3431 182.828 49.1931 183.808 49.0531C184.398 48.9731 184.998 48.9031 185.588 48.8331C187.158 48.6631 188.718 48.5631 190.258 48.5131C190.768 48.4931 191.278 48.4831 191.788 48.4831C192.798 48.4831 193.798 48.4931 194.768 48.5331C195.738 48.5731 196.698 48.6331 197.618 48.7231C198.538 48.8031 199.438 48.9131 200.288 49.0431C201.148 49.1731 201.968 49.3131 202.748 49.4831C203.138 49.5631 203.518 49.6531 203.888 49.7431C206.828 50.4831 209.048 51.5131 210.098 52.7631C211.148 54.0031 211.948 55.5031 212.538 57.0531C213.258 58.9131 213.688 60.8531 213.958 62.5031C214.358 64.9631 214.368 66.7931 214.368 66.7931C214.368 66.7931 215.938 57.4631 231.398 51.4731C234.778 50.1631 237.928 49.6831 240.788 49.7331C241.228 49.7331 241.668 49.7631 242.098 49.7931C243.568 49.9031 244.948 50.1531 246.248 50.4931C247.108 50.7231 247.918 50.9831 248.688 51.2731C249.538 51.5931 250.338 51.9531 251.078 52.3231C251.618 52.5931 252.138 52.8731 252.618 53.1531C252.948 53.3531 253.268 53.5431 253.568 53.7431C254.138 54.1131 254.648 54.4731 255.098 54.8031C256.648 55.9631 257.488 56.8631 257.488 56.8631C267.708 38.3331 303.108 46.1531 303.118 46.1531C311.128 9.98313 338.468 6.73313 348.908 7.04313C350.078 7.07313 351.028 7.15313 351.718 7.23313C351.888 7.25313 352.038 7.27313 352.178 7.29313C352.198 7.29313 352.228 7.29313 352.248 7.30313C356.408 7.92313 360.008 8.90313 363.108 10.1431C363.998 10.4931 364.838 10.8731 365.648 11.2731C366.458 11.6731 367.228 12.0831 367.958 12.5231C369.058 13.1731 370.078 13.8631 371.018 14.5931C371.648 15.0731 372.238 15.5731 372.798 16.0831C373.078 16.3431 373.348 16.6031 373.618 16.8631C374.148 17.3831 374.648 17.9231 375.118 18.4731C375.348 18.7431 375.578 19.0231 375.798 19.3031C385.458 31.5331 381.128 48.1631 381.128 48.1631C381.128 48.1631 387.058 47.6831 395.268 47.3531C396.978 47.2831 398.788 47.2231 400.668 47.1731C402.918 47.1131 405.268 47.0731 407.658 47.0531C408.458 47.0531 409.258 47.0531 410.058 47.0531C411.258 47.0531 412.468 47.0631 413.678 47.0831C414.888 47.1031 416.088 47.1231 417.288 47.1631C419.678 47.2331 422.028 47.3531 424.288 47.5131C425.418 47.5931 426.528 47.6831 427.598 47.7931C429.028 47.9331 430.408 48.1031 431.718 48.2931C432.048 48.3431 432.368 48.3931 432.688 48.4431C434.918 48.8031 436.908 49.2531 438.578 49.8031C440.488 50.4331 442.068 51.1731 443.358 52.0031C446.588 54.0631 448.058 56.6031 448.608 59.0231C448.768 59.7531 448.858 60.4631 448.878 61.1531C448.878 61.3831 448.878 61.6131 448.878 61.8331C448.878 62.0531 448.858 62.2731 448.848 62.4931C448.818 62.9231 448.768 63.3331 448.698 63.7231C448.668 63.9131 448.628 64.1031 448.598 64.2931C448.528 64.6631 448.438 65.0031 448.348 65.3131C448.218 65.7831 448.078 66.1831 447.958 66.5031C447.758 67.0331 447.608 67.3431 447.608 67.3431C449.288 65.7631 450.818 64.2831 452.248 62.9131C453.968 61.2731 455.558 59.7831 457.138 58.4531C457.668 58.0131 458.198 57.5831 458.728 57.1831C459.258 56.7731 459.798 56.3931 460.338 56.0231C462.238 54.7331 464.248 53.6631 466.558 52.8231C467.218 52.5831 467.898 52.3631 468.618 52.1631C469.688 51.8631 470.818 51.6031 472.038 51.3931C474.068 51.0431 476.318 50.8131 478.858 50.7031C492.268 50.1531 504.568 62.0031 514.688 78.1031C516.498 80.9831 518.238 83.9931 519.898 87.0931C520.228 87.7131 520.558 88.3331 520.888 88.9631C522.518 92.0931 524.078 95.3131 525.548 98.5531C526.138 99.8531 526.708 101.153 527.278 102.463C527.838 103.773 528.388 105.073 528.918 106.383C529.188 107.033 529.448 107.693 529.708 108.343C530.228 109.653 530.738 110.953 531.228 112.253C534.418 120.703 536.988 128.933 538.838 136.133C539.548 138.903 540.148 141.523 540.638 143.933V143.913C540.788 144.653 540.878 145.393 540.908 146.133C540.988 148.353 540.468 150.523 539.118 152.333L539.098 152.323Z" fill="white"/>
<path d="M546.148 141.703C546.098 141.463 540.748 117.133 529.838 93.0727C515.288 60.9727 497.458 43.9027 478.278 43.7027C465.328 43.5727 458.658 47.9127 452.748 52.9727C450.478 48.4427 446.228 45.1227 440.068 43.1027C427.648 39.0227 400.098 40.0027 387.648 40.7027C387.978 34.1127 387.128 24.9827 381.738 16.8327C375.848 7.9227 366.088 2.3927 352.748 0.402698C351.418 0.202698 339.328 -1.3773 326.208 4.4627C316.818 8.6427 304.408 17.9127 298.308 38.3727C294.608 37.8827 289.288 37.4027 283.548 37.6027C271.518 38.0327 262.018 41.4427 256.018 47.4727C250.878 44.2627 241.068 40.1827 228.858 44.9227C224.138 46.7527 220.088 49.0527 216.798 51.7527C216.078 50.3127 215.238 49.0327 214.308 47.9327C207.348 39.7127 181.228 39.2327 166.118 47.0427C165.518 47.3527 164.448 48.0427 163.398 49.3227C158.508 46.1927 150.518 43.0727 139.158 44.6427C130.728 45.8127 123.968 48.9927 119.038 54.1127C117.348 52.0527 115.328 50.2427 113.008 48.7227C104.518 43.1527 88.418 38.8227 59.948 49.8127C37.718 58.3927 22.868 71.0427 15.798 87.4127C8.63803 103.983 9.70803 123.903 18.958 146.613C27.828 168.403 46.218 183.153 70.728 188.133C77.698 189.553 85.038 190.133 92.538 189.873C110.118 189.263 127.858 184.153 143.878 175.073C155.868 181.423 173.638 183.363 188.148 169.973C189.238 168.973 190.288 167.903 191.278 166.803C191.488 166.563 191.698 166.323 191.918 166.083C196.208 169.053 203.388 174.263 208.368 179.113C209.328 180.043 210.408 181.283 211.548 182.603C216.238 187.983 222.658 195.353 232.668 195.463H232.888C241.078 195.463 249.618 190.463 258.998 180.193C261.358 179.993 264.878 179.383 268.998 177.613C270.748 178.733 272.998 179.503 275.848 179.953C280.958 180.763 288.068 180.583 297.578 179.393C298.508 179.273 299.458 179.153 300.518 179.003L301.218 178.853C301.608 178.743 303.408 178.203 305.478 176.753C308.358 184.283 314.178 195.753 323.418 197.503C324.158 197.643 324.908 197.723 325.658 197.723C328.838 197.753 333.628 196.543 338.438 190.593C338.628 190.353 343.118 184.693 346.388 176.073C349.468 176.073 354.168 175.623 360.208 173.643C366.018 177.043 376.098 176.933 390.178 173.303C392.188 172.783 394.198 172.393 396.158 172.143C398.038 171.903 399.938 171.783 401.818 171.783H402.058C413.038 171.893 420.498 176.563 424.948 179.363C426.438 180.293 427.618 181.033 428.788 181.553C440.658 186.833 450.898 183.043 455.018 180.993C457.878 181.323 463.118 181.743 468.128 181.143C470.738 180.833 473.528 180.373 476.428 179.773C476.778 179.703 477.128 179.623 477.458 179.553C479.288 184.443 482.378 190.463 487.078 193.093C489.828 194.633 492.838 194.943 495.768 194.003C517.938 186.883 536.568 164.293 543.548 154.903C546.208 151.323 547.128 146.633 546.128 141.713L546.148 141.703ZM538.738 152.333C537.708 153.723 536.398 155.423 534.858 157.323C533.628 158.843 532.238 160.493 530.718 162.213C529.958 163.073 529.158 163.953 528.338 164.853C527.928 165.303 527.498 165.753 527.078 166.203C526.218 167.103 525.328 168.023 524.408 168.933C523.948 169.393 523.478 169.853 523.008 170.303C522.058 171.223 521.088 172.133 520.078 173.043C519.578 173.493 519.068 173.943 518.558 174.393C517.528 175.293 516.478 176.173 515.398 177.043C508.938 182.253 501.648 186.813 493.948 189.293C486.028 191.833 481.508 173.403 481.508 173.403C481.508 173.403 478.948 174.143 475.218 174.913C472.948 175.383 470.248 175.863 467.418 176.203C462.278 176.813 456.718 176.203 454.668 175.923C454.148 175.853 453.848 175.803 453.848 175.803C453.848 175.803 443.698 182.633 431.228 177.093C430.758 176.883 430.188 176.563 429.538 176.173C428.888 175.783 428.148 175.303 427.308 174.783C426.888 174.523 426.448 174.253 425.988 173.973C420.888 170.903 412.958 166.853 401.828 166.803C399.788 166.803 397.638 166.913 395.378 167.213C393.238 167.493 391.008 167.913 388.678 168.513C364.298 174.773 361.548 167.793 361.548 167.793C360.788 168.093 360.048 168.373 359.338 168.623C356.458 169.623 353.898 170.243 351.688 170.613C350.578 170.793 349.568 170.913 348.638 170.993C347.708 171.063 346.878 171.093 346.138 171.093C343.558 171.093 342.168 170.723 342.168 170.723C341.448 173.273 340.568 175.623 339.638 177.703C338.948 179.263 338.228 180.683 337.548 181.933C335.498 185.673 333.738 187.873 333.738 187.873C330.818 191.483 328.048 192.853 325.508 192.743C318.718 192.473 313.478 181.773 311.038 175.503C310.918 175.193 310.798 174.883 310.698 174.593C310.538 174.163 310.388 173.753 310.268 173.383C310.098 172.893 309.958 172.463 309.848 172.103C309.408 170.693 308.918 169.773 308.428 169.173C308.188 168.873 307.938 168.663 307.708 168.513C307.588 168.433 307.478 168.373 307.358 168.333C307.128 168.243 306.918 168.203 306.718 168.193C306.028 168.173 305.538 168.583 305.538 168.583C304.918 169.963 304.108 171.013 303.288 171.813C302.958 172.133 302.628 172.413 302.308 172.653C301.988 172.893 301.678 173.103 301.388 173.273C300.368 173.873 299.618 174.083 299.618 174.083C298.658 174.213 297.728 174.343 296.828 174.453C293.688 174.843 290.928 175.113 288.498 175.273C287.528 175.333 286.608 175.383 285.738 175.413C284.438 175.463 283.238 175.473 282.148 175.453C281.418 175.443 280.738 175.423 280.108 175.383C278.838 175.313 277.728 175.193 276.778 175.043C274.138 174.623 272.638 173.943 271.788 173.263C270.378 172.123 270.798 170.963 270.798 170.963C270.288 171.273 269.788 171.563 269.288 171.833C265.818 173.713 262.748 174.583 260.458 174.983C259.148 175.213 258.098 175.283 257.368 175.303C257.188 175.303 257.028 175.303 256.888 175.303C256.748 175.303 256.628 175.303 256.538 175.303C256.348 175.303 256.248 175.283 256.248 175.283C255.848 175.743 255.458 176.183 255.068 176.623C254.288 177.493 253.528 178.313 252.778 179.083C252.398 179.473 252.028 179.843 251.668 180.213C250.568 181.303 249.488 182.293 248.448 183.193C248.098 183.493 247.758 183.783 247.418 184.063C241.638 188.793 236.818 190.553 232.718 190.513C226.198 190.443 221.478 185.833 217.498 181.353C217.058 180.853 216.628 180.363 216.198 179.873C215.628 179.223 215.078 178.583 214.538 177.983C214.268 177.683 213.998 177.383 213.728 177.093C213.458 176.803 213.198 176.533 212.938 176.263C212.808 176.133 212.678 176.003 212.548 175.873C212.028 175.363 211.488 174.853 210.928 174.343C205.908 169.743 199.598 165.153 195.348 162.213C193.928 161.233 192.748 160.443 191.918 159.883C191.088 159.333 190.608 159.023 190.608 159.023C190.388 159.333 190.168 159.633 189.948 159.943C189.778 160.183 189.608 160.413 189.428 160.643C188.568 161.793 187.688 162.863 186.808 163.843C186.358 164.343 185.908 164.823 185.448 165.283C184.998 165.743 184.538 166.183 184.078 166.603C182.908 167.683 181.718 168.643 180.538 169.483C179.348 170.323 178.158 171.053 176.968 171.683C174.588 172.933 172.208 173.783 169.888 174.303C168.148 174.693 166.438 174.913 164.768 174.983C164.218 175.003 163.668 175.013 163.118 175.013C161.488 174.993 159.918 174.853 158.418 174.623C149.938 173.313 143.898 169.143 143.898 169.143C127.708 178.973 109.608 184.313 92.318 184.913C90.568 184.973 88.828 184.983 87.098 184.953C85.368 184.923 83.648 184.833 81.948 184.693C80.248 184.553 78.558 184.373 76.878 184.143C75.208 183.913 73.548 183.623 71.908 183.293C52.938 179.433 36.618 168.883 27.268 151.243C26.278 149.363 25.338 147.433 24.498 145.393C22.658 140.873 21.188 136.523 20.048 132.313C19.158 129.043 18.468 125.853 17.988 122.773C17.568 120.093 17.298 117.473 17.178 114.923C17.028 111.513 17.138 108.223 17.508 105.053C17.638 103.983 17.788 102.933 17.978 101.903C18.908 96.7127 20.568 91.8827 22.938 87.4027C23.888 85.6127 24.938 83.8727 26.108 82.1927C27.168 80.6627 28.328 79.1927 29.568 77.7627C31.048 76.0527 32.638 74.4027 34.368 72.8227C34.428 72.7627 34.498 72.7127 34.558 72.6527C41.718 66.1527 50.968 60.7627 62.098 56.4627C74.558 51.6527 84.658 49.8927 92.668 50.0927C95.068 50.1527 97.288 50.3927 99.328 50.7727C100.008 50.9027 100.668 51.0427 101.308 51.2027C102.588 51.5227 103.788 51.9027 104.908 52.3327C109.398 54.0627 112.658 56.6327 114.818 59.4927C115.898 60.9227 116.708 62.4127 117.268 63.9127C117.548 64.6627 117.758 65.4127 117.908 66.1427C118.058 66.8827 118.148 67.6127 118.178 68.3227C118.178 68.3227 118.188 68.2727 118.218 68.1627C118.238 68.0627 118.278 67.9027 118.338 67.7127C118.418 67.4227 118.548 67.0327 118.718 66.5727C118.888 66.1127 119.108 65.5727 119.398 64.9827C119.588 64.5927 119.808 64.1727 120.048 63.7327C122.518 59.3827 128.048 53.2727 139.978 51.6127C147.728 50.5327 153.588 51.9827 157.818 54.0927C163.988 57.1627 166.668 61.6227 166.668 61.6227C166.168 56.9227 167.398 54.8027 168.218 53.9327C168.288 53.8527 168.358 53.7827 168.428 53.7227C168.558 53.6027 168.668 53.5227 168.748 53.4727C168.828 53.4227 168.868 53.4027 168.868 53.4027C170.168 52.7327 171.538 52.1427 172.978 51.6127C175.368 50.7427 177.908 50.0727 180.508 49.5927C181.478 49.4127 182.448 49.2627 183.428 49.1227C184.018 49.0427 184.618 48.9727 185.208 48.9027C186.778 48.7327 188.338 48.6327 189.878 48.5827C190.388 48.5627 190.898 48.5527 191.408 48.5527C192.418 48.5527 193.418 48.5527 194.388 48.6027C195.358 48.6427 196.318 48.7027 197.238 48.7927C198.158 48.8827 199.058 48.9827 199.918 49.1127C200.778 49.2427 201.598 49.3827 202.378 49.5527C202.768 49.6327 203.148 49.7227 203.518 49.8127C206.468 50.5527 208.678 51.5827 209.728 52.8327C210.778 54.0727 211.578 55.5727 212.168 57.1227C212.888 58.9827 213.318 60.9227 213.588 62.5727C213.988 65.0327 213.998 66.8627 213.998 66.8627C213.998 66.8627 215.568 57.5327 231.018 51.5427C234.398 50.2327 237.548 49.7527 240.408 49.8027C240.848 49.8027 241.288 49.8327 241.718 49.8627C243.188 49.9727 244.578 50.2227 245.868 50.5627C246.728 50.7927 247.538 51.0527 248.308 51.3427C249.158 51.6627 249.958 52.0227 250.698 52.3927C251.238 52.6627 251.758 52.9427 252.238 53.2227C252.568 53.4227 252.878 53.6127 253.188 53.8127C253.758 54.1827 254.268 54.5427 254.718 54.8727C256.268 56.0327 257.108 56.9327 257.108 56.9327C267.328 38.3927 302.728 46.2127 302.728 46.2127C310.728 10.0427 338.068 6.7827 348.518 7.0927C349.688 7.1227 350.638 7.2027 351.328 7.2827C351.498 7.3027 351.648 7.3227 351.788 7.3427C351.808 7.3427 351.838 7.3427 351.858 7.3527C356.018 7.9727 359.618 8.9427 362.718 10.1927C363.608 10.5427 364.448 10.9227 365.258 11.3227C366.068 11.7227 366.838 12.1327 367.568 12.5727C368.668 13.2227 369.688 13.9127 370.628 14.6427C371.258 15.1227 371.848 15.6227 372.408 16.1327C372.688 16.3927 372.958 16.6527 373.228 16.9127C373.758 17.4327 374.258 17.9727 374.728 18.5227C374.958 18.7927 375.188 19.0727 375.408 19.3527C385.068 31.5827 380.738 48.2027 380.738 48.2127C380.738 48.2127 386.668 47.7327 394.878 47.4027C396.588 47.3327 398.398 47.2727 400.278 47.2227C402.528 47.1627 404.878 47.1227 407.268 47.1027C408.068 47.1027 408.868 47.1027 409.668 47.1027C410.868 47.1027 412.078 47.1027 413.288 47.1327C414.498 47.1527 415.698 47.1727 416.898 47.2127C419.288 47.2827 421.638 47.3927 423.898 47.5627C425.028 47.6427 426.138 47.7327 427.208 47.8427C428.638 47.9827 430.018 48.1527 431.328 48.3427C431.658 48.3927 431.978 48.4427 432.298 48.4927C434.528 48.8527 436.518 49.3027 438.188 49.8527C440.098 50.4827 441.678 51.2227 442.968 52.0527C446.198 54.1127 447.668 56.6527 448.218 59.0727C448.378 59.8027 448.468 60.5127 448.488 61.2027C448.488 61.4327 448.488 61.6627 448.488 61.8827C448.488 62.1027 448.468 62.3227 448.458 62.5427C448.428 62.9727 448.378 63.3827 448.308 63.7727C448.278 63.9627 448.238 64.1527 448.208 64.3427C448.138 64.7127 448.048 65.0527 447.958 65.3627C447.828 65.8327 447.688 66.2327 447.568 66.5527C447.368 67.0827 447.218 67.3927 447.218 67.3927C448.898 65.8127 450.428 64.3327 451.858 62.9627C453.578 61.3227 455.168 59.8327 456.748 58.5027C457.278 58.0627 457.808 57.6327 458.338 57.2327C458.868 56.8327 459.408 56.4427 459.948 56.0727C461.848 54.7827 463.858 53.7127 466.168 52.8727C466.828 52.6327 467.508 52.4127 468.228 52.2127C469.298 51.9127 470.428 51.6527 471.648 51.4427C473.678 51.0927 475.928 50.8527 478.468 50.7527C491.878 50.1927 504.178 62.0527 514.308 78.1527C516.118 81.0227 517.858 84.0427 519.518 87.1427C519.848 87.7627 520.178 88.3827 520.508 89.0127C522.138 92.1427 523.698 95.3627 525.168 98.6027C525.758 99.9027 526.328 101.203 526.898 102.513C527.458 103.823 528.008 105.123 528.538 106.433C528.808 107.083 529.068 107.743 529.328 108.393C529.848 109.703 530.358 111.003 530.848 112.303C534.038 120.753 536.608 128.983 538.458 136.173C539.168 138.943 539.768 141.553 540.258 143.973V143.953C540.408 144.693 540.498 145.433 540.528 146.173C540.608 148.393 540.088 150.563 538.738 152.373V152.333Z" fill="white"/>
<path d="M87.4322 251.231V240.625H126.344V251.231H112.788V289.792H100.918V251.231H87.4322ZM132.072 240.625H143.942V272.794C143.942 275.276 144.598 277.29 145.909 278.835C147.22 280.38 149.186 281.153 151.809 281.153C154.478 281.153 156.468 280.38 157.779 278.835C159.09 277.29 159.746 275.276 159.746 272.794V240.625H171.616V273.637C171.616 276.728 171.101 279.42 170.071 281.715C169.087 284.009 167.683 285.905 165.856 287.404C164.077 288.855 161.97 289.956 159.535 290.705C157.147 291.454 154.571 291.829 151.809 291.829C149.046 291.829 146.471 291.454 144.083 290.705C141.694 289.956 139.587 288.855 137.761 287.404C135.982 285.905 134.577 284.009 133.547 281.715C132.563 279.42 132.072 276.728 132.072 273.637V240.625ZM212.984 265.349V260.152H220.921C222.279 260.152 223.427 259.941 224.363 259.519C225.346 259.098 226.096 258.513 226.611 257.763C227.126 256.967 227.383 256.007 227.383 254.884C227.383 253.198 226.798 251.934 225.627 251.091C224.503 250.248 222.935 249.827 220.921 249.827H216.005V280.591H222.045C223.59 280.591 224.972 280.404 226.189 280.029C227.407 279.607 228.367 278.952 229.069 278.062C229.818 277.126 230.193 275.861 230.193 274.269C230.193 273.239 229.982 272.35 229.561 271.6C229.139 270.851 228.554 270.242 227.805 269.774C227.055 269.306 226.189 268.978 225.206 268.791C224.269 268.557 223.216 268.44 222.045 268.44H212.984V261.978H223.38C225.768 261.978 228.086 262.235 230.333 262.75C232.581 263.265 234.618 264.108 236.444 265.279C238.27 266.403 239.722 267.854 240.799 269.634C241.923 271.366 242.484 273.473 242.484 275.955C242.484 279.233 241.688 281.879 240.096 283.892C238.551 285.905 236.35 287.404 233.494 288.387C230.638 289.324 227.266 289.792 223.38 289.792H204.134V240.625H222.186C225.604 240.625 228.601 241.094 231.176 242.03C233.798 242.92 235.859 244.301 237.357 246.174C238.902 248 239.675 250.318 239.675 253.128C239.675 255.703 238.902 257.904 237.357 259.73C235.859 261.556 233.798 262.961 231.176 263.944C228.601 264.881 225.604 265.349 222.186 265.349H212.984ZM258.177 280.31L259.019 271.249H283.392L284.165 280.31H258.177ZM271.03 258.677L264.147 274.55L264.709 277.149L258.598 289.792H245.183L271.03 237.535L296.948 289.792H283.462L277.562 277.641L277.984 274.621L271.03 258.677ZM315.024 267.527H327.386L342.768 289.792H328.861L315.024 267.527ZM302.802 240.625H314.673V289.792H302.802V240.625ZM310.248 250.669V240.625H320.713C324.927 240.625 328.439 241.304 331.249 242.662C334.058 244.02 336.189 245.917 337.641 248.352C339.092 250.74 339.818 253.526 339.818 256.71C339.818 259.847 339.092 262.633 337.641 265.068C336.189 267.456 334.058 269.329 331.249 270.687C328.439 272.045 324.927 272.724 320.713 272.724H310.248V263.523H319.87C321.462 263.523 322.82 263.289 323.944 262.821C325.115 262.305 326.004 261.58 326.613 260.643C327.222 259.66 327.526 258.489 327.526 257.131C327.526 255.773 327.222 254.626 326.613 253.69C326.004 252.706 325.115 251.957 323.944 251.442C322.82 250.927 321.462 250.669 319.87 250.669H310.248ZM361.203 267.527H373.565L388.947 289.792H375.04L361.203 267.527ZM348.981 240.625H360.851V289.792H348.981V240.625ZM356.426 250.669V240.625H366.892C371.106 240.625 374.618 241.304 377.428 242.662C380.237 244.02 382.368 245.917 383.819 248.352C385.271 250.74 385.997 253.526 385.997 256.71C385.997 259.847 385.271 262.633 383.819 265.068C382.368 267.456 380.237 269.329 377.428 270.687C374.618 272.045 371.106 272.724 366.892 272.724H356.426V263.523H366.049C367.641 263.523 368.999 263.289 370.123 262.821C371.294 262.305 372.183 261.58 372.792 260.643C373.401 259.66 373.705 258.489 373.705 257.131C373.705 255.773 373.401 254.626 372.792 253.69C372.183 252.706 371.294 251.957 370.123 251.442C368.999 250.927 367.641 250.669 366.049 250.669H356.426ZM395.16 240.625H407.241V289.792H395.16V240.625ZM428.124 265.209C428.124 268.112 428.686 270.687 429.809 272.935C430.98 275.136 432.595 276.868 434.656 278.132C436.763 279.397 439.221 280.029 442.031 280.029C444.793 280.029 447.205 279.397 449.265 278.132C451.372 276.868 452.988 275.136 454.112 272.935C455.282 270.687 455.868 268.112 455.868 265.209C455.868 262.305 455.306 259.754 454.182 257.553C453.058 255.305 451.466 253.549 449.406 252.285C447.345 251.021 444.887 250.388 442.031 250.388C439.221 250.388 436.763 251.021 434.656 252.285C432.595 253.549 430.98 255.305 429.809 257.553C428.686 259.754 428.124 262.305 428.124 265.209ZM415.551 265.209C415.551 261.416 416.207 257.951 417.518 254.813C418.876 251.676 420.749 248.96 423.137 246.666C425.525 244.371 428.334 242.615 431.565 241.398C434.796 240.134 438.285 239.502 442.031 239.502C445.824 239.502 449.312 240.134 452.496 241.398C455.727 242.615 458.537 244.371 460.925 246.666C463.313 248.96 465.163 251.676 466.474 254.813C467.785 257.951 468.44 261.416 468.44 265.209C468.44 269.002 467.785 272.49 466.474 275.674C465.209 278.858 463.383 281.621 460.995 283.962C458.654 286.304 455.868 288.13 452.637 289.441C449.406 290.705 445.87 291.337 442.031 291.337C438.144 291.337 434.586 290.705 431.355 289.441C428.124 288.13 425.314 286.304 422.926 283.962C420.585 281.621 418.759 278.858 417.447 275.674C416.183 272.49 415.551 269.002 415.551 265.209Z" fill="white"/>
<defs>
<linearGradient id="paint0_linear_3462_19132" x1="286.168" y1="181.483" x2="286.168" y2="10.0732" gradientUnits="userSpaceOnUse">
<stop offset="0.25" stop-color="#FFE600"/>
<stop offset="0.49" stop-color="#FF8A00"/>
<stop offset="0.81" stop-color="#FF0000"/>
</linearGradient>
</defs>
</svg>
