<svg width="32" height="33" viewBox="0 0 32 33" fill="none" xmlns="http://www.w3.org/2000/svg">
<path d="M2 12.4556C2 8.97078 2 7.2284 2.67818 5.89739C3.27473 4.72661 4.22661 3.77473 5.39739 3.17818C6.7284 2.5 8.47078 2.5 11.9556 2.5H20.0444C23.5292 2.5 25.2716 2.5 26.6026 3.17818C27.7734 3.77473 28.7253 4.72661 29.3218 5.89739C30 7.2284 30 8.97078 30 12.4556V20.5444C30 24.0292 30 25.7716 29.3218 27.1026C28.7253 28.2734 27.7734 29.2253 26.6026 29.8218C25.2716 30.5 23.5292 30.5 20.0444 30.5H11.9556C8.47078 30.5 6.7284 30.5 5.39739 29.8218C4.22661 29.2253 3.27473 28.2734 2.67818 27.1026C2 25.7716 2 24.0292 2 20.5444V12.4556Z" fill="white"/>
<g clip-path="url(#clip0_3088_48281)">
<path d="M12.8604 21.368C13.4408 22.1078 13.9691 22.887 14.4414 23.7C14.8447 24.4646 15.0128 24.9831 15.3075 25.9045C15.4882 26.4135 15.6516 26.5654 16.0028 26.5654C16.3855 26.5654 16.5591 26.307 16.6933 25.9072C16.9719 25.0372 17.1905 24.3731 17.5353 23.7457C18.212 22.5344 19.0529 21.458 19.8791 20.4235C20.1028 20.1307 21.5489 18.4249 22.2 17.079C22.2 17.079 23.0002 15.6005 23.0002 13.5357C23.0002 11.6042 22.211 10.2646 22.211 10.2646L19.939 10.8731L18.5593 14.5071L18.2179 15.0082L18.1497 15.099L18.0589 15.2127L17.8995 15.3942L17.6718 15.6218L16.4431 16.6228L13.3714 18.3965L12.8604 21.368Z" fill="#34A853"/>
<path d="M9.68945 16.8303C10.4392 18.5427 11.8849 20.048 12.863 21.3691L18.0584 15.2149C18.0584 15.2149 17.3265 16.1721 15.9988 16.1721C14.5198 16.1721 13.3251 14.9911 13.3251 13.502C13.3251 12.4808 13.9394 11.7793 13.9394 11.7793L10.4127 12.7243L9.68945 16.8303Z" fill="#FBBC04"/>
<path d="M18.1164 6.81641C19.8419 7.37274 21.3188 8.5407 22.2121 10.263L18.06 15.211C18.06 15.211 18.6743 14.4968 18.6743 13.4819C18.6743 11.9581 17.3912 10.8197 16.005 10.8197C14.6942 10.8197 13.9414 11.7754 13.9414 11.7754V8.65823L18.1164 6.81641Z" fill="#4285F4"/>
<path d="M10.6416 9.00277C11.6722 7.76973 13.4856 6.5 15.9857 6.5C17.1987 6.5 18.1125 6.81845 18.1125 6.81845L13.9379 11.7782H10.9801L10.6416 9.00277Z" fill="#1A73E8"/>
<path d="M9.68972 16.8302C9.68972 16.8302 9 15.4795 9 13.5228C9 11.6734 9.71892 10.0569 10.6414 9.00293L13.9401 11.7788L9.68972 16.8302Z" fill="#EA4335"/>
</g>
<defs>
<clipPath id="clip0_3088_48281">
<rect width="14" height="20.0703" fill="white" transform="translate(9 6.5)"/>
</clipPath>
</defs>
</svg>
