<svg width="15" height="21" viewBox="0 0 15 21" fill="none" xmlns="http://www.w3.org/2000/svg">
<g clip-path="url(#clip0_3307_853)">
<path d="M4.36035 15.368C4.94078 16.1078 5.46907 16.887 5.94142 17.7C6.34469 18.4646 6.5128 18.9831 6.80751 19.9045C6.98825 20.4135 7.1516 20.5654 7.5028 20.5654C7.88551 20.5654 8.05914 20.307 8.19329 19.9072C8.47187 19.0372 8.69045 18.3731 9.03531 17.7457C9.71202 16.5344 10.5529 15.458 11.3791 14.4235C11.6028 14.1307 13.0489 12.4249 13.7 11.079C13.7 11.079 14.5002 9.60051 14.5002 7.53567C14.5002 5.60422 13.711 4.26465 13.711 4.26465L11.439 4.8731L10.0593 8.50714L9.71792 9.00824L9.64967 9.09902L9.55889 9.21266L9.39953 9.39417L9.17181 9.62184L7.94315 10.6228L4.87135 12.3965L4.36035 15.368Z" fill="#34A853"/>
<path d="M1.18994 10.8303C1.93965 12.5427 3.38537 14.048 4.36351 15.3691L9.55888 9.21487C9.55888 9.21487 8.82694 10.1721 7.49924 10.1721C6.02032 10.1721 4.82557 8.99115 4.82557 7.50201C4.82557 6.48083 5.43993 5.7793 5.43993 5.7793L1.91318 6.7243L1.18994 10.8303Z" fill="#FBBC04"/>
<path d="M9.6169 0.816406C11.3424 1.37274 12.8193 2.5407 13.7126 4.26298L9.56047 9.21099C9.56047 9.21099 10.1748 8.49677 10.1748 7.48194C10.1748 5.95812 8.89169 4.81975 7.50553 4.81975C6.19472 4.81975 5.44189 5.77541 5.44189 5.77541V2.65823L9.6169 0.816406Z" fill="#4285F4"/>
<path d="M2.1416 3.00277C3.17219 1.76973 4.98563 0.5 7.48572 0.5C8.69869 0.5 9.61252 0.818445 9.61252 0.818445L5.43789 5.77822H2.48012L2.1416 3.00277Z" fill="#1A73E8"/>
<path d="M1.18972 10.8302C1.18972 10.8302 0.5 9.47952 0.5 7.5228C0.5 5.67343 1.21892 4.05687 2.14145 3.00293L5.44009 5.77881L1.18972 10.8302Z" fill="#EA4335"/>
</g>
<defs>
<clipPath id="clip0_3307_853">
<rect width="14" height="20.0703" fill="white" transform="translate(0.5 0.5)"/>
</clipPath>
</defs>
</svg>
