<svg width="318" height="180" viewBox="0 0 318 180" fill="none" xmlns="http://www.w3.org/2000/svg">
<g clip-path="url(#clip0_2045_4520)">
<path d="M169.382 31.2799L194.307 17.099V33.066L182.873 39.7725V59.5791L215.082 40.7793L215.093 0H182.121L158.997 13.4414L135.88 0H102.907L102.919 40.7793L135.122 59.5791V39.7725L123.7 33.066V17.099L148.607 31.2799V70.8362L158.997 76.8828L169.382 70.8362V31.2799Z" fill="#FF007A"/>
<path d="M114.346 50.5859L114.335 90.7566L157.629 115.95V91.5359L135.122 78.5495V62.7532L114.346 50.5859Z" fill="#FF007A"/>
<path d="M203.648 50.5859L182.873 62.7532V78.5495L160.365 91.5359V115.95L203.66 90.7566L203.648 50.5859Z" fill="#FF007A"/>
<path d="M18.1762 171.326L6.338 141.502H0L15.0926 179.534L15.275 179.96H21.0887L36.3352 141.502H29.9972L18.1762 171.326Z" fill="white"/>
<path d="M149.587 134.084H143.34V141.507H134.733V147.798H143.34V179.966H149.587V147.798H158.193V141.507H149.587V134.084Z" fill="white"/>
<path d="M105.176 146.445V141.502H98.9404V179.96H105.176V162.105C105.176 146.911 118.61 147.315 118.61 147.315V141.508C118.61 141.508 110.761 140.814 105.176 146.451V146.445Z" fill="white"/>
<path d="M212.09 147.327C216.484 147.327 220.508 149.471 222.982 153.015L228.567 151.041C225.176 145.233 218.929 141.502 212.09 141.502C201.551 141.502 192.99 150.125 192.99 160.728C192.99 171.331 201.557 179.96 212.09 179.96C218.827 179.96 224.994 176.348 228.413 170.7L222.788 168.715C220.297 172.099 216.393 174.153 212.107 174.153C204.76 174.153 198.775 168.129 198.775 160.734C198.775 153.339 204.743 147.327 212.09 147.327Z" fill="white"/>
<path d="M307.98 157.838C307.45 157.651 306.92 157.48 306.402 157.304L306.162 157.224C301.768 155.745 297.613 154.334 297.613 151.28C297.613 148.84 300.668 147.031 303.398 147.031C304.76 147.031 306.111 147.457 307.291 148.254C308.06 148.771 308.75 149.443 309.28 150.199L309.32 150.25L309.599 150.637L315.265 148.174L314.854 147.52C312.654 144.016 308.288 141.655 303.974 141.655C296.735 141.655 291.269 146.041 291.269 151.849C291.269 158.02 297.106 160.057 302.252 161.854C306.595 163.373 311.081 164.932 311.081 168.783C311.081 172.156 307.946 174.59 303.615 174.59C301.181 174.59 299.243 174.033 297.681 172.856C296.581 172.042 295.669 170.95 294.7 169.312L294.421 168.845L288.396 170.978L288.716 171.644C291.206 176.866 296.741 179.972 303.518 179.972C311.776 179.972 318 174.92 318 168.22C317.972 162.156 313.167 159.636 307.98 157.827V157.838Z" fill="white"/>
<path d="M259.784 141.502C249.245 141.502 240.685 150.125 240.685 160.728C240.685 171.331 249.251 179.96 259.784 179.96C266.641 179.96 272.905 176.229 276.279 170.404L270.693 168.43C268.214 171.985 264.207 174.136 259.784 174.136C253.446 174.136 247.952 169.568 246.72 163.379H278.713L278.781 162.782C278.849 162.105 278.889 161.411 278.889 160.717C278.889 150.125 270.311 141.502 259.784 141.502ZM246.772 157.799C248.105 151.684 253.469 147.31 259.784 147.31C266.099 147.31 271.446 151.678 272.796 157.799H246.772Z" fill="white"/>
<path d="M180.331 141.508H174.096V179.966H180.331V141.508Z" fill="white"/>
<path d="M177.219 126.257C174.814 126.257 172.864 128.219 172.864 130.642C172.864 133.066 174.814 135.028 177.219 135.028C179.624 135.028 181.573 133.066 181.573 130.642C181.573 128.219 179.624 126.257 177.219 126.257Z" fill="white"/>
<path d="M76.278 126.297H69.9116L66.0586 135.051H72.4251L76.278 126.297Z" fill="white"/>
<path d="M67.5233 141.542C56.9847 141.542 48.4238 150.165 48.4238 160.768C48.4238 171.371 56.9904 179.995 67.5233 179.995C74.38 179.995 80.6439 176.263 84.0181 170.438L78.4324 168.464C75.9588 172.02 71.9462 174.17 67.5233 174.17C61.1853 174.17 55.6909 169.596 54.4597 163.413H86.4575L86.5259 162.816C86.5943 162.139 86.6285 161.445 86.6285 160.751C86.6171 150.16 78.0506 141.536 67.529 141.536L67.5233 141.542ZM54.511 157.839C55.8505 151.724 61.2081 147.35 67.5233 147.35C73.8385 147.35 79.1848 151.718 80.5356 157.839H54.511Z" fill="white"/>
</g>
<defs>
<clipPath id="clip0_2045_4520">
<rect width="318" height="180" fill="white"/>
</clipPath>
</defs>
</svg>
